<svg xmlns="http://www.w3.org/2000/svg" xmlns:xlink="http://www.w3.org/1999/xlink" version="1.1"><metadata>Created by FontForge 20160405 at Thu Sep 28 20:20:05 2017 By www-data Copyright (c) 2017 by Hannes von Doehren. All rights reserved.</metadata><defs><font id="Font" horiz-adv-x="600"><font-face x-height="462" ascent="800" bbox="-143 -271 1176 1031" cap-height="700" descent="-200" font-family="Font" font-stretch="normal" font-weight="400" panose-1="2 11 5 3 2 2 3 6 2 3" underline-position="-154" underline-thickness="55" unicode-range="U+000D-FB04" units-per-em="1000"/><glyph d="M50 30v640q0 16 7 23t23 7h439q16 0 23 -7t7 -23v-640q0 -16 -7 -23t-23 -7h-439q-16 0 -23 7t-7 23zM262 314q0 -5 4 -8.5t10 -3.5h36q15 0 15 13v26q0 13 10.5 25t26.5 23.5t31 24.5t26 33t11 44q0 48 -36 79.5t-89 31.5q-42 0 -78 -19t-52 -42q-4 -6 -4 -10q0 -6 4 -8 l22 -22q4 -3 9 -3q6 0 8 3l10 9q10 10 17 15t23 11t34 6q28 0 44.5 -15t16.5 -37q0 -18 -10.5 -32t-24.5 -25.5t-29 -23t-25 -28.5t-10 -38v-29zM293 108q20 0 34.5 14t14.5 34t-14.5 34t-34.5 14t-34 -14t-14 -34t14.5 -34t33.5 -14z" glyph-name=".notdef" horiz-adv-x="599"/><glyph glyph-name="glyph1" horiz-adv-x="0"/><glyph glyph-name="glyph1" horiz-adv-x="0"/><glyph glyph-name="uni000D" horiz-adv-x="0"/><glyph glyph-name="space" horiz-adv-x="240"/><glyph d="M88 47q0 24 17 40.5t40 16.5q24 0 40.5 -16.5t16.5 -40.5q0 -23 -16.5 -40t-40.5 -17q-23 0 -40 17t-17 40zM145 220q-13 0 -20 6t-7 14l-19 435q-1 14 12 24.5t34 10.5t34 -10.5t12 -24.5l-18 -435q0 -8 -7.5 -14t-20.5 -6z" glyph-name="exclam" horiz-adv-x="290" unicode="!"/><glyph d="M83 501q-8 0 -13.5 5.5t-5.5 13.5v161q0 8 6 13.5t13 5.5h34q10 0 15.5 -8t3.5 -17l-29 -159q-2 -6 -7.5 -10.5t-10.5 -4.5h-6zM234 501q-8 0 -13.5 5.5t-5.5 13.5v161q0 8 6 13.5t13 5.5h34q10 0 15.5 -8t3.5 -17l-29 -159q-2 -6 -7.5 -10.5t-10.5 -4.5h-6z" glyph-name="quotedbl" horiz-adv-x="337" unicode="&quot;"/><glyph d="M375 0q-20 0 -17 20l23 170h-176l-23 -172q-3 -18 -20 -18h-29q-20 0 -17 20l23 170h-65q-19 0 -19 19v24q0 19 19 19h74l27 196h-73q-19 0 -19 19v25q0 19 19 19h82l24 171q3 18 20 18h28q20 0 17 -20l-24 -169h177l24 171q3 18 20 18h28q20 0 17 -20l-24 -169h75 q19 0 19 -19v-25q0 -19 -19 -19h-84l-27 -196h83q19 0 19 -19v-24q0 -19 -19 -19h-91l-24 -172q-3 -18 -20 -18h-28zM214 252h176l27 196h-176z" glyph-name="numbersign" horiz-adv-x="640" unicode="#"/><glyph d="M450 193q0 -33 -13.5 -61.5t-37 -51t-55 -36.5t-68.5 -18l8 -96q1 -9 -8.5 -16t-23.5 -7t-23.5 7t-8.5 16l7 96q-35 3 -63 13t-49.5 22t-35 22.5t-18.5 14.5q-6 5 -11 11.5t5 18.5l18 23q7 9 13 11t15 -6q4 -3 17.5 -13.5t34 -22t46 -20.5t54.5 -9q53 0 84.5 28.5 t31.5 69.5q0 46 -38 76.5t-114 62.5q-36 15 -65.5 31t-50.5 37t-32.5 49t-11.5 67q0 23 9 50t29 50.5t52.5 41t79.5 20.5l-7 94q-1 9 8.5 16t23.5 7t23.5 -7t8.5 -16l-8 -95q29 -3 53 -10t42 -15t28 -14t10 -7q5 -3 9 -11t-4 -20l-12 -20q-6 -10 -13.5 -10.5t-18.5 4.5 q-29 17 -56 28t-65 11q-33 0 -55.5 -9.5t-36 -24t-19.5 -31t-6 -30.5q0 -46 31 -71t89 -48q44 -18 80.5 -37t62.5 -42.5t40.5 -53t14.5 -69.5z" glyph-name="dollar" horiz-adv-x="492" unicode="$"/><glyph d="M419 124q0 -33 22.5 -55.5t55.5 -22.5q31 0 53.5 23t22.5 55q0 31 -22.5 53.5t-53.5 22.5q-32 0 -55 -22.5t-23 -53.5zM497 -11q-56 0 -95.5 39.5t-39.5 95.5t39.5 95.5t95.5 39.5t95.5 -39.5t39.5 -95.5t-40 -95.5t-95 -39.5zM181 498q31 0 53.5 23t22.5 55 q0 31 -22.5 53.5t-53.5 22.5q-32 0 -55 -22.5t-23 -53.5q0 -33 22.5 -55.5t55.5 -22.5zM276 480q-39 -39 -95 -39t-95.5 39.5t-39.5 95.5t39.5 95.5t95.5 39.5t95.5 -39.5t39.5 -95.5t-40 -96zM187 10q-5 -10 -17 -10h-14q-8 0 -13.5 5t-5.5 13q0 6 2 9l343 663q6 10 17 10 h16q8 0 13.5 -5t5.5 -13q0 -6 -2 -9z" glyph-name="percent" horiz-adv-x="677" unicode="%"/><glyph d="M71 174q0 38 13.5 71t36.5 58t43 40.5t46 30.5v2l-24 26q-34 37 -52 69.5t-18 71.5v5q0 30 11 58t32 51.5t56 38t78 14.5q78 0 123.5 -44.5t45.5 -109.5q0 -100 -148 -192l165 -165q40 82 40 178q0 15 5 19t18 4h24q4 0 6.5 -0.5t4.5 -1.5t3.5 -2t2.5 -3t1 -3t0.5 -3.5 t0.5 -3.5v-3v-3q0 -58 -15.5 -116.5t-43.5 -108.5l96 -96q12 -12 12 -21q0 -10 -13 -25l-12 -11q-11 -9 -19 -9q-11 0 -23 12l-85 88q-88 -100 -218 -100q-90 0 -141.5 53t-51.5 131zM269 410q16 9 21.5 12.5t21.5 14.5t24.5 18.5t21 20t18.5 23.5t11 25.5t5 29.5 q0 38 -28 67.5t-77 29.5q-48 0 -76 -30t-28 -75q0 -31 15.5 -56.5t48.5 -57.5zM141 173q0 -52 36.5 -86.5t89.5 -34.5q100 0 171 85l-185 194q-112 -68 -112 -158z" glyph-name="ampersand" horiz-adv-x="665" unicode="&amp;"/><glyph d="M83 501q-8 0 -13.5 5.5t-5.5 13.5v161q0 8 6 13.5t13 5.5h34q10 0 15.5 -8t3.5 -17l-29 -159q-2 -6 -7.5 -10.5t-10.5 -4.5h-6z" glyph-name="quotesingle" horiz-adv-x="186" unicode="'"/><glyph d="M78 319q0 75 11 138.5t29 116t40 95t45 76.5q10 16 26 6l21 -12q17 -11 6 -26q-48 -76 -77.5 -171.5t-30.5 -222.5q1 -127 30.5 -222.5t77.5 -171.5q12 -16 -6 -26l-21 -12q-15 -9 -22 -1q-23 34 -46 77t-41.5 96.5t-30 118t-11.5 141.5z" glyph-name="parenleft" horiz-adv-x="339" unicode="("/><glyph d="M265 319q0 -77 -11.5 -141.5t-30 -118t-41.5 -96.5t-46 -77q-7 -8 -22 1l-21 12q-18 10 -6 26q48 76 77.5 171.5t30.5 222.5q-1 127 -30.5 222.5t-77.5 171.5q-11 15 6 26l21 12q16 10 26 -6q23 -34 45 -76.5t40 -95t29 -116t11 -138.5z" glyph-name="parenright" horiz-adv-x="339" unicode=")"/><glyph d="M92 631q8 11 17 14.5t14 -1.5l63 -55l-10 84q-1 8 8 13t19 5q13 0 21 -5t7 -13l-8 -85l61 56q5 5 14.5 0.5t15.5 -12.5q8 -10 8.5 -19.5t-6.5 -13.5l-77 -45l80 -45q7 -4 5.5 -14t-6.5 -18q-8 -11 -17 -14.5t-14 1.5l-63 55l10 -84q1 -8 -8 -13t-19 -5q-13 0 -21 5t-7 13 l8 85l-61 -56q-5 -5 -14.5 -0.5t-15.5 12.5q-8 10 -8.5 19.5t6.5 13.5l77 45l-80 45q-7 4 -5.5 14t6.5 18z" glyph-name="asterisk" horiz-adv-x="414" unicode="*"/><glyph d="M267 157v157h-157q-8 0 -13.5 6t-5.5 13v28q0 8 5.5 13.5t13.5 5.5h157v158q0 8 5.5 13t13.5 5h28q8 0 13.5 -5t5.5 -13v-158h158q8 0 13 -6t5 -13v-28q0 -8 -5.5 -13.5t-12.5 -5.5h-158v-157q0 -8 -5.5 -13t-13.5 -5h-28q-8 0 -13.5 5t-5.5 13z" glyph-name="plus" unicode="+"/><glyph d="M57 49q0 26 14.5 43.5t41.5 17.5q37 0 56 -32t19 -78q0 -55 -19.5 -87t-40.5 -50q-9 -7 -16 0l-17 16q-5 5 -3.5 9.5t5.5 8.5q21 21 33 40.5t12 48.5q0 12 -4 23q-5 -4 -15 -6.5t-18 -2.5q-24 0 -36 16t-12 33z" glyph-name="comma" horiz-adv-x="241" unicode=","/><glyph d="M87 220q-8 0 -13.5 5t-5.5 13v19q0 8 5.5 13.5t13.5 5.5h209q8 0 13.5 -5.5t5.5 -13.5v-19q0 -8 -5.5 -13t-13.5 -5h-209z" glyph-name="hyphen" horiz-adv-x="383" unicode="-"/><glyph d="M40 50q0 25 17 42t42 17q26 0 43 -17t17 -42t-17 -43t-43 -18q-25 0 -42 18t-17 43z" glyph-name="period" horiz-adv-x="199" unicode="."/><glyph d="M58 25l196 662q2 6 7 9.5t11 3.5h22q9 0 14 -5t5 -13q0 -5 -1 -7l-195 -662q-2 -5 -7 -9t-11 -4h-23q-8 0 -13.5 5t-5.5 13q0 5 1 7z" glyph-name="slash" horiz-adv-x="377" unicode="/"/><glyph d="M302 -10q-119 0 -184.5 95t-65.5 265t65.5 265t184.5 95q120 0 185.5 -95t65.5 -265t-65.5 -265t-185.5 -95zM302 60q85 0 129 74t44 216q0 141 -44 215.5t-129 74.5q-84 0 -128 -74.5t-44 -215.5q0 -142 44 -216t128 -74z" glyph-name="zero" horiz-adv-x="605" unicode="0"/><glyph d="M148 572h-1l-73 -57q-14 -10 -23 1l-20 22q-4 4 -4 9q0 7 6 13l137 133q7 7 17 7h18q8 0 13.5 -6t5.5 -13v-661q0 -8 -5.5 -14t-13.5 -6h-37q-8 0 -14 6t-6 14v552z" glyph-name="one" horiz-adv-x="323" unicode="1"/><glyph d="M155 69v-2h301q8 0 14 -6t6 -14v-27q0 -8 -6 -14t-14 -6h-391q-9 0 -14.5 6t-5.5 14v14q0 6 0.5 9.5t3 8.5t9.5 12q20 21 106.5 115.5t133.5 143.5q104 114 104 187q0 24 -8 46t-24.5 41t-45.5 31t-67 12q-72 0 -146 -78q-13 -13 -28 0l-20 20q-5 5 -5.5 12.5t4.5 14.5 q30 42 83.5 71.5t111.5 29.5q54 0 97 -16t70 -44t41.5 -63t14.5 -75q0 -33 -9.5 -63.5t-29.5 -60.5t-39 -53t-51 -57z" glyph-name="two" horiz-adv-x="536" unicode="2"/><glyph d="M46 81q-5 6 -5 13q0 8 6 12l28 24q8 5 13 5q8 0 15 -10q5 -7 16 -17t30 -23t48 -22t60 -9q62 0 105 35t43 95q0 61 -45.5 97t-136.5 36h-58q-20 0 -20 23v25q0 12 4.5 17t17.5 5h57q79 0 121 35.5t42 89.5q0 59 -38.5 94.5t-96.5 35.5q-76 0 -135 -67q-13 -15 -26 -2 l-25 19q-6 6 -6 14t6 13q29 36 80.5 63.5t105.5 27.5q95 0 154 -51t59 -137q0 -54 -33.5 -99t-73.5 -64v-3q20 -8 40 -21t40 -33t32 -49t12 -61q0 -90 -62 -146t-167 -56q-127 0 -207 91z" glyph-name="three" horiz-adv-x="535" unicode="3"/><glyph d="M42 159q-8 0 -14 5.5t-6 13.5v28q0 9 6 18l381 474q6 8 10 10t14 2h17q8 0 13.5 -6t5.5 -14v-468h84q8 0 13.5 -5t5.5 -13v-26q0 -8 -5.5 -13.5t-13.5 -5.5h-84v-139q0 -8 -5.5 -14t-13.5 -6h-33q-8 0 -14 6t-6 14v139h-355zM397 581h-2l-287 -354v-5h289v359z" glyph-name="four" horiz-adv-x="611" unicode="4"/><glyph d="M63 75q-10 12 -10 20q0 7 8 15l11 11t13 12q10 7 14.5 6.5t10.5 -7.5q12 -14 22 -23.5t29 -23.5t45 -21.5t57 -7.5q36 0 67 15t51.5 39t32 54t11.5 61q0 64 -41.5 106t-120.5 42h-157q-14 0 -23 11t-9 25v272q0 8 6 13.5t14 5.5h311q8 0 14 -6t6 -13v-30q0 -8 -6 -14 t-14 -6h-262v-189h120q115 0 176.5 -57t61.5 -159q0 -64 -30.5 -118t-85.5 -86t-123 -32q-127 0 -199 85z" glyph-name="five" horiz-adv-x="546" unicode="5"/><glyph d="M54 283q0 56 13.5 107.5t35 91t52 74.5t60.5 59.5t65 45.5t60.5 33t51.5 23q3 1 7 1q12 0 16 -11l11 -25q2 -6 2 -8q0 -14 -20 -22q-215 -92 -265 -249q28 18 71.5 32t85.5 14q58 0 108 -26.5t81.5 -78.5t31.5 -118q0 -97 -67.5 -166.5t-159.5 -69.5q-61 0 -107.5 22.5 t-75.5 63t-43 92.5t-14 115zM294 58q64 0 109 48t45 115q0 68 -45 114.5t-110 46.5q-44 0 -89.5 -19.5t-73.5 -47.5q-4 -20 -4 -48q0 -38 9.5 -73.5t29 -66.5t52.5 -50t77 -19z" glyph-name="six" horiz-adv-x="558" unicode="6"/><glyph d="M380 629v2h-336q-8 0 -13.5 6.5t-5.5 13.5v30q0 8 5.5 13.5t13.5 5.5h414q9 0 14.5 -5t5.5 -14q0 -7 -5 -17l-296 -637q-12 -27 -34 -27h-30q-8 0 -13.5 6t-5.5 14q0 11 7 25z" glyph-name="seven" horiz-adv-x="498" unicode="7"/><glyph d="M50 189q0 32 12 61.5t32 50.5t40 36t40 23v4q-40 18 -73 61t-33 98q0 84 60 135.5t153 51.5q94 0 154 -51t60 -136q0 -54 -32.5 -97.5t-73.5 -61.5v-4q20 -8 40 -23t39.5 -36t32 -51t12.5 -61q0 -87 -61.5 -143t-171.5 -56q-107 0 -168.5 56t-61.5 143zM282 397 q68 6 102.5 39.5t34.5 83.5q0 57 -39.5 92.5t-97.5 35.5q-60 0 -98.5 -35.5t-38.5 -92.5q0 -50 34 -83.5t103 -39.5zM127 182q0 -60 41.5 -95.5t111.5 -35.5t113 35.5t43 95.5q0 50 -42 90.5t-112 47.5q-71 -7 -113 -47.5t-42 -90.5z" glyph-name="eight" horiz-adv-x="563" unicode="8"/><glyph d="M127 20q-2 6 -2 9q0 14 20 20q16 6 41.5 18.5t61.5 35.5t67.5 51t58.5 66t37 77q-27 -19 -71 -33t-85 -14q-59 0 -109 27t-81.5 79t-31.5 118q0 64 31 118.5t83.5 86t113.5 31.5t108 -23t75 -63t42.5 -92.5t14.5 -115.5q0 -56 -13.5 -108t-35 -91t-52.5 -74t-60.5 -59 t-65 -45.5t-60.5 -33.5t-52 -23q-2 -1 -6 -1q-12 0 -17 12zM262 317q46 0 91 20.5t71 46.5q4 20 4 48q0 30 -6 59t-19 57t-31.5 48.5t-47 33t-63.5 12.5q-65 0 -110 -48t-45 -116q0 -67 45.5 -114t110.5 -47z" glyph-name="nine" horiz-adv-x="555" unicode="9"/><glyph d="M134 352q-25 0 -42.5 17.5t-17.5 41.5q0 26 17.5 43.5t42.5 17.5q26 0 43 -17.5t17 -43.5q0 -24 -17 -41.5t-43 -17.5zM74 50q0 25 17.5 42t42.5 17q26 0 43 -17t17 -42t-17 -43t-43 -18q-25 0 -42.5 18t-17.5 43z" glyph-name="colon" horiz-adv-x="268" unicode=":"/><glyph d="M135 352q-25 0 -42.5 17.5t-17.5 41.5q0 26 17.5 43.5t42.5 17.5q26 0 42.5 -17.5t16.5 -43.5q0 -24 -16.5 -41.5t-42.5 -17.5zM72 49q0 26 14.5 43.5t41.5 17.5q37 0 56 -32t19 -78q0 -55 -19.5 -87t-40.5 -50q-9 -7 -16 0l-17 16q-5 5 -3.5 9.5t5.5 8.5q21 21 33 40.5 t12 48.5q0 12 -4 23q-5 -4 -15 -6.5t-18 -2.5q-24 0 -36 16t-12 33z" glyph-name="semicolon" horiz-adv-x="272" unicode=";"/><glyph d="M107 210q-10 6 -10 17v5q0 11 10 17l340 212q4 3 11 3t12 -5t5 -14v-36q0 -12 -11 -19l-261 -160l261 -154q11 -6 11 -19v-36q0 -8 -5 -13.5t-12 -5.5q-6 0 -11 3z" glyph-name="less" unicode="&lt;"/><glyph d="M150 351q-8 0 -13.5 5.5t-5.5 13.5v30q0 8 5.5 13.5t13.5 5.5h299q8 0 13.5 -5.5t5.5 -13.5v-30q0 -8 -5.5 -13.5t-13.5 -5.5h-299zM150 140q-8 0 -13.5 6t-5.5 13v31q0 8 5.5 13.5t13.5 5.5h299q8 0 13.5 -5.5t5.5 -13.5v-31q0 -8 -5.5 -13.5t-13.5 -5.5h-299z" glyph-name="equal" unicode="="/><glyph d="M124 21v36q0 14 11 19l261 154l-261 160q-11 8 -11 19v36q0 8 5 13.5t12 5.5q6 0 11 -3l340 -212q10 -6 10 -17v-5q0 -11 -10 -17l-340 -205q-4 -3 -11 -3t-12 5.5t-5 13.5z" glyph-name="greater" unicode="&gt;"/><glyph d="M203 230q-8 0 -13.5 5.5t-5.5 13.5v84q0 31 11 52t28 37t36 29t36 27.5t28 34t11 47.5q0 35 -25 61.5t-74 26.5q-30 0 -52.5 -7.5t-39 -18.5t-28 -22.5t-18.5 -19.5q-13 -13 -26 -1l-19 17q-6 5 -5.5 12.5t5.5 13.5q18 25 44 44q23 17 57 30.5t82 13.5q39 0 71 -11 t55 -31t35.5 -48.5t12.5 -62.5q0 -33 -11.5 -56.5t-29.5 -41.5t-38 -32.5t-38 -28.5t-29.5 -29.5t-11.5 -35.5v-83q0 -11 -6.5 -15.5t-14.5 -4.5h-27zM158 47q0 24 17 40.5t40 16.5q24 0 40.5 -16.5t16.5 -40.5q0 -23 -16.5 -40t-40.5 -17q-23 0 -40 17t-17 40z" glyph-name="question" horiz-adv-x="467" unicode="?"/><glyph d="M776 -134q11 -14 -2 -26q-50 -41 -113.5 -62.5t-141.5 -21.5q-105 0 -190 35t-145 97.5t-92.5 148t-32.5 186.5q0 106 32.5 195.5t92.5 154.5t145 101t190 36q100 0 178.5 -32t132.5 -88.5t82.5 -134t28.5 -167.5q0 -50 -13 -98t-39 -85.5t-65.5 -61t-91.5 -23.5 t-79.5 23t-35.5 55h-8q-16 -32 -48 -55t-78 -23q-38 0 -70 15t-55.5 42.5t-36.5 66.5t-13 87q0 50 13.5 89t37 65.5t56 40.5t71.5 14q46 0 73.5 -17.5t41.5 -35.5q4 20 14.5 33.5t30.5 13.5q18 0 18 -18v-218q0 -36 5 -60t14 -37.5t22.5 -19t30.5 -5.5q29 0 55 14t45.5 41 t31 66.5t11.5 90.5q0 77 -23 143.5t-68.5 116t-113 78t-157.5 28.5t-163 -30t-124.5 -85.5t-79.5 -135.5t-28 -180q0 -92 28 -167.5t79.5 -129.5t124.5 -84t163 -30q69 0 123.5 19t96.5 52q14 12 26 -2zM372 230q0 -35 9.5 -62t25.5 -45t37.5 -27.5t44.5 -9.5q25 0 43.5 8 t31.5 21.5t21 30.5t12 34v142q-11 16 -26 28q-14 11 -33.5 19.5t-47.5 8.5q-51 0 -84.5 -38t-33.5 -110z" glyph-name="at" horiz-adv-x="987" unicode="@"/><glyph d="M20 0q-9 0 -14 5t-5 12q0 3 2 9l304 673q6 11 17 11h10q12 0 17 -11l302 -673q2 -6 2 -9q0 -8 -5 -12.5t-14 -4.5h-40q-12 0 -17 11l-74 165h-355l-73 -165q-4 -11 -17 -11h-40zM178 238h300q-24 54 -73 164t-73 164h-8z" glyph-name="A" horiz-adv-x="665" unicode="A"/><glyph d="M171 386h152q60 0 95.5 35.5t35.5 89.5t-35 87t-96 33h-152v-245zM169 67h176q60 0 96 36t36 91q0 53 -39.5 88t-96.5 35h-172v-250zM442 357v-2q22 -9 41 -22t38 -32.5t29.5 -47t10.5 -60.5q0 -84 -59.5 -138.5t-151.5 -54.5h-235q-8 0 -13.5 6t-5.5 13v662 q0 8 5.5 13.5t13.5 5.5h221q90 0 146.5 -52t56.5 -132q0 -100 -97 -159z" glyph-name="B" horiz-adv-x="623" unicode="B"/><glyph d="M413 710q135 0 242 -93q7 -7 7 -15q0 -7 -6 -13l-27 -27q-6 -8 -11.5 -7.5t-14.5 8.5q-40 35 -89.5 55t-101.5 20q-77 0 -141.5 -39.5t-101 -105.5t-36.5 -143q0 -76 36.5 -142t101 -105.5t141.5 -39.5q60 0 103 18.5t88 56.5q13 12 26 -1l23 -23q5 -4 5 -12q0 -9 -6 -15 q-50 -46 -111.5 -71.5t-126.5 -25.5q-98 0 -181.5 48t-131.5 130t-48 181t48 182t131 131t182 48z" glyph-name="C" horiz-adv-x="706" unicode="C"/><glyph d="M96 19v662q0 8 5 13.5t13 5.5h224q71 0 136 -28t112 -74.5t75 -111t28 -135.5q0 -96 -47.5 -176.5t-128 -127.5t-175.5 -47h-224q-8 0 -13 5.5t-5 13.5zM172 69h157q123 0 201 79t78 203q0 123 -78 202t-201 79h-157v-563z" glyph-name="D" horiz-adv-x="742" unicode="D"/><glyph d="M96 19v662q0 8 5.5 13.5t13.5 5.5h394q8 0 13.5 -6t5.5 -13v-29q0 -8 -5.5 -13.5t-13.5 -5.5h-336v-244h287q8 0 13.5 -5.5t5.5 -13.5v-29q0 -8 -5.5 -13.5t-13.5 -5.5h-287v-255h336q8 0 13.5 -5.5t5.5 -13.5v-29q0 -8 -5.5 -13.5t-13.5 -5.5h-394q-8 0 -13.5 5.5 t-5.5 13.5z" glyph-name="E" horiz-adv-x="576" unicode="E"/><glyph d="M96 19v662q0 8 5.5 13.5t13.5 5.5h394q8 0 13.5 -6t5.5 -13v-29q0 -8 -5.5 -13.5t-13.5 -5.5h-336v-274h287q8 0 13.5 -5.5t5.5 -13.5v-29q0 -8 -5.5 -13.5t-13.5 -5.5h-287v-273q0 -8 -5.5 -13.5t-13.5 -5.5h-39q-8 0 -13.5 5.5t-5.5 13.5z" glyph-name="F" horiz-adv-x="558" unicode="F"/><glyph d="M413 710q72 0 130 -23.5t112 -69.5q7 -7 7 -15q0 -7 -6 -13l-28 -28q-7 -8 -12.5 -7.5t-13.5 8.5q-40 35 -90.5 56.5t-99.5 21.5q-77 0 -141.5 -39t-100.5 -105t-36 -143q0 -57 21.5 -110t58 -92.5t88.5 -63t110 -23.5q52 0 102 13t78 29v140h-115q-8 0 -13.5 5t-5.5 13 v37q0 8 5.5 13.5t13.5 5.5h173q8 0 13 -6t5 -13v-229q0 -10 -8 -16q-40 -26 -109 -46t-138 -20q-98 0 -181.5 48t-131.5 130t-48 181t48 182t131 131t182 48z" glyph-name="G" horiz-adv-x="734" unicode="G"/><glyph d="M96 19v662q0 8 6 13.5t13 5.5h39q8 0 13.5 -6t5.5 -13v-292h406v292q0 8 5.5 13.5t13.5 5.5h39q8 0 13.5 -6t5.5 -13v-662q0 -8 -6 -13.5t-13 -5.5h-39q-8 0 -13.5 6t-5.5 13v303h-406v-303q0 -8 -5.5 -13.5t-13.5 -5.5h-39q-8 0 -13.5 5.5t-5.5 13.5z" glyph-name="H" horiz-adv-x="752" unicode="H"/><glyph d="M96 19v662q0 8 6 13.5t13 5.5h40q8 0 13.5 -6t5.5 -13v-662q0 -8 -6 -13.5t-13 -5.5h-40q-8 0 -13.5 5.5t-5.5 13.5z" glyph-name="I" horiz-adv-x="270" unicode="I"/><glyph d="M20 64q-4 4 -4 12q0 6 5 13l20 23q8 9 16 9t18 -12q46 -52 106 -52q21 0 40.5 7.5t36.5 22.5t27.5 43.5t10.5 66.5v484q0 8 5.5 13.5t13.5 5.5h39q8 0 13.5 -6t5.5 -13v-482q0 -100 -54 -154.5t-138 -54.5q-33 0 -62.5 8t-48.5 21.5t-30.5 24t-19.5 20.5z" glyph-name="J" horiz-adv-x="464" unicode="J"/><glyph d="M96 24v652q0 10 7 17t17 7h29q10 0 17 -7t7 -17v-289l312 303q8 10 19 10h49q9 0 14.5 -5t5.5 -13q0 -10 -8 -17l-316 -301l331 -333q4 -4 4 -11q0 -8 -5 -14t-16 -6h-51q-5 0 -10.5 2t-7.5 5l-321 329v-312q0 -10 -7 -17t-17 -7h-29q-10 0 -17 7t-7 17z" glyph-name="K" horiz-adv-x="601" unicode="K"/><glyph d="M96 19v662q0 8 5.5 13.5t13.5 5.5h39q8 0 13.5 -6t5.5 -13v-614h288q8 0 13.5 -5.5t5.5 -13.5v-29q0 -8 -5.5 -13.5t-13.5 -5.5h-346q-8 0 -13.5 5.5t-5.5 13.5z" glyph-name="L" horiz-adv-x="494" unicode="L"/><glyph d="M50 24l129 672q2 6 7 10t11 4h16q6 0 10.5 -3t6.5 -8l198 -551h5l195 551q2 4 7 7.5t10 3.5h16q6 0 11.5 -4t6.5 -10l129 -672q0 -1 0.5 -3.5t0.5 -3.5q0 -8 -5 -12.5t-14 -4.5h-40q-6 0 -11 4t-7 10l-89 515h-4l-184 -528q-2 -4 -7.5 -7.5t-9.5 -3.5h-18q-4 0 -10 3 t-7 8l-186 528h-4l-87 -515q-1 -5 -6.5 -9.5t-11.5 -4.5h-40q-9 0 -14 5t-5 12q0 1 0.5 3.5t0.5 3.5z" glyph-name="M" horiz-adv-x="862" unicode="M"/><glyph d="M96 19v673q0 8 6 13t13 5h15q10 0 16 -8l445 -554h2v533q0 8 5.5 13.5t13.5 5.5h35q8 0 13.5 -6t5.5 -13v-673q0 -8 -6 -13t-13 -5h-8q-10 0 -16 8l-453 565h-1v-544q0 -8 -5.5 -13.5t-13.5 -5.5h-35q-8 0 -13.5 5.5t-5.5 13.5z" glyph-name="N" horiz-adv-x="762" unicode="N"/><glyph d="M100 168q-48 82 -48 181t48 182t130 131t181 48t181.5 -48t130.5 -131t48 -182t-48 -181t-130.5 -130t-181.5 -48t-181 48t-130 130zM145 461q-23 -53 -23 -112t23 -112t62 -92t92 -62t112 -23t112.5 23t92 62t62 92t23.5 112t-23.5 112.5t-62 93t-92 62.5t-112.5 23 t-112 -23t-92 -62.5t-62 -93.5z" glyph-name="O" horiz-adv-x="823" unicode="O"/><glyph d="M96 19v662q0 8 5.5 13.5t13.5 5.5h221q92 0 158 -65t66 -156q0 -93 -66 -159t-157 -66h-165v-235q0 -8 -6 -13.5t-13 -5.5h-38q-8 0 -13.5 5.5t-5.5 13.5zM172 328h159q63 0 107.5 43t44.5 110q0 64 -44 103.5t-108 39.5h-159v-296z" glyph-name="P" horiz-adv-x="593" unicode="P"/><glyph d="M52 349q0 75 28 141t76.5 114.5t114 77t140.5 28.5t140.5 -28.5t114.5 -77t77 -114.5t28 -141q0 -80 -31.5 -148t-85.5 -117l89 -104q8 -10 3.5 -19t-13.5 -9h-48q-15 0 -23 11l-66 77q-41 -24 -87.5 -37t-97.5 -13q-75 0 -140.5 28t-114 76.5t-76.5 114t-28 140.5z M122 349q0 -60 23 -112.5t62 -91.5t91.5 -62t112.5 -23q38 0 72.5 9t65.5 26l-111 132q-9 11 -5.5 19.5t17.5 8.5h46q15 0 23 -11l89 -106q43 40 68 94t25 117q0 60 -23 112.5t-62.5 92.5t-92 63t-112.5 23t-112.5 -23t-91.5 -63t-62 -92.5t-23 -112.5z" glyph-name="Q" horiz-adv-x="823" unicode="Q"/><glyph d="M96 19v662q0 8 5.5 13.5t13.5 5.5h259q90 0 154 -62t64 -151q0 -68 -41 -122.5t-107 -81.5l137 -254q3 -4 3 -10q0 -8 -5 -13.5t-15 -5.5h-48q-14 0 -22 15l-130 259h-191v-255q0 -8 -5.5 -13.5t-13.5 -5.5h-39q-8 0 -13.5 5.5t-5.5 13.5zM175 340h194q58 0 101 42.5 t43 103.5q0 57 -43 99t-101 42h-194v-287z" glyph-name="R" horiz-adv-x="650" unicode="R"/><glyph d="M56 71q-3 3 -6.5 6t-5 7t-0.5 9t6 12l15 19q8 10 14.5 12.5t17.5 -6.5q3 -2 17.5 -14t37.5 -25t53.5 -23.5t63.5 -10.5q30 0 55 9t42.5 24.5t27 36t9.5 44.5q0 52 -44 87t-131 71q-41 18 -74 36t-55.5 41t-34.5 53t-12 73q0 25 11 56t36 58t65.5 45.5t100.5 18.5 q37 0 68 -8t54 -18q26 -11 49 -25q5 -2 9.5 -11t-3.5 -23l-10 -17q-11 -19 -35 -5q-32 19 -61.5 29.5t-71.5 10.5q-40 0 -66.5 -11.5t-42.5 -28t-22.5 -35.5t-6.5 -35q0 -53 36 -82t99 -55q51 -21 92 -42t70 -46.5t44.5 -58t15.5 -75.5q0 -39 -17.5 -72.5t-47 -58.5 t-68.5 -39t-83 -14t-81 11t-64 25t-44 27t-22 18z" glyph-name="S" horiz-adv-x="532" unicode="S"/><glyph d="M219 19v614h-174q-8 0 -13.5 5.5t-5.5 13.5v29q0 8 5.5 13.5t13.5 5.5h424q8 0 13.5 -6t5.5 -13v-29q0 -8 -5.5 -13.5t-13.5 -5.5h-174v-614q0 -8 -5.5 -13.5t-13.5 -5.5h-38q-8 0 -13.5 5.5t-5.5 13.5z" glyph-name="T" horiz-adv-x="514" unicode="T"/><glyph d="M89 254v427q0 8 5.5 13.5t13.5 5.5h38q8 0 13.5 -6t5.5 -13v-421q0 -88 51 -143.5t137 -55.5q87 0 138.5 55t51.5 142v423q0 8 5.5 13.5t13.5 5.5h38q8 0 13.5 -6t5.5 -13v-427q0 -115 -74.5 -189.5t-191.5 -74.5t-190.5 74.5t-73.5 189.5z" glyph-name="U" horiz-adv-x="708" unicode="U"/><glyph d="M305 1l-302 673q-2 6 -2 9q0 8 5 12.5t14 4.5h40q12 0 17 -11l249 -560h4l249 560q4 11 17 11h40q9 0 14 -5t5 -12q0 -3 -2 -9l-304 -673q-6 -11 -17 -11h-10q-11 0 -17 11z" glyph-name="V" horiz-adv-x="663" unicode="V"/><glyph d="M215 4l-189 672q-1 2 -1 7q0 8 5 12.5t14 4.5h42q6 0 11.5 -4t6.5 -10l139 -518h4l167 531q4 11 17 11h18q14 0 17 -11l170 -531h4l136 518q2 6 7 10t11 4h42q9 0 14 -5t5 -12q0 -5 -1 -7l-189 -672q-2 -6 -7 -10t-11 -4h-16q-12 0 -17 11l-173 541h-5l-170 -541 q-1 -3 -6 -7t-11 -4h-16q-6 0 -11 4t-7 10z" glyph-name="W" horiz-adv-x="886" unicode="W"/><glyph d="M30 28l203 331l-195 313q-3 4 -3 10q0 7 6 12.5t14 5.5h54q12 0 17 -9l154 -265h1l156 265q6 9 17 9h54q8 0 14 -5.5t6 -12.5q0 -6 -3 -10l-195 -313l202 -331q3 -6 3 -11q0 -8 -5.5 -12.5t-14.5 -4.5h-46q-12 0 -17 9l-171 283h-1l-169 -283q-6 -9 -17 -9h-46 q-10 0 -15.5 5.5t-5.5 12.5q0 6 3 10z" glyph-name="X" horiz-adv-x="572" unicode="X"/><glyph d="M243 19v318l-241 334q-3 4 -3 10q0 8 5 13.5t14 5.5h47q9 0 16 -9l202 -279l202 279q7 9 16 9h47q9 0 14 -5t5 -13q0 -6 -3 -11l-244 -333v-319q0 -8 -5.5 -13.5t-13.5 -5.5h-39q-8 0 -13.5 5.5t-5.5 13.5z" glyph-name="Y" horiz-adv-x="574" unicode="Y"/><glyph d="M27 19v8q0 9 5 19l358 581v3h-315q-8 0 -13.5 6t-5.5 13v32q0 8 6 13.5t13 5.5h405q8 0 13.5 -6t5.5 -13v-3q0 -9 -5 -19l-364 -588v-1h330q8 0 13.5 -6t5.5 -13v-32q0 -8 -5.5 -13.5t-13.5 -5.5h-414q-8 0 -13.5 5.5t-5.5 13.5z" glyph-name="Z" horiz-adv-x="528" unicode="Z"/><glyph d="M148 -175h137q8 0 13.5 -5.5t5.5 -12.5v-26q0 -8 -6 -13.5t-13 -5.5h-186q-8 0 -13.5 6t-5.5 13v900q0 8 6 13.5t13 5.5h186q8 0 13.5 -6t5.5 -13v-25q0 -8 -6 -13.5t-13 -5.5h-137v-812z" glyph-name="bracketleft" horiz-adv-x="331" unicode="["/><glyph d="M253 13l-195 662q-1 2 -1 7q0 8 5 13t14 5h32q6 0 11.5 -4t6.5 -9l196 -662q1 -2 1 -7q0 -8 -5 -13t-14 -5h-33q-6 0 -11 4t-7 9z" glyph-name="backslash" horiz-adv-x="386" unicode="\"/><glyph d="M46 -175h137v812h-137q-8 0 -13.5 5.5t-5.5 13.5v25q0 8 5.5 13.5t13.5 5.5h186q8 0 13.5 -6t5.5 -13v-900q0 -8 -5.5 -13.5t-13.5 -5.5h-186q-8 0 -13.5 6t-5.5 13v26q0 8 5.5 13t13.5 5z" glyph-name="bracketright" horiz-adv-x="331" unicode="]"/><glyph d="M55 398q-8 0 -13.5 5t-5.5 12q0 6 3 11l201 278q6 10 17 10h5q11 0 17 -10l196 -278q3 -4 3 -11t-5.5 -12t-13.5 -5h-33q-12 0 -19 11l-149 211l-151 -211q-8 -11 -19 -11h-33z" glyph-name="asciicircum" horiz-adv-x="524" unicode="^"/><glyph d="M58 -29q0 8 5.5 13.5t13.5 5.5h299q8 0 13.5 -5.5t5.5 -13.5v-16q0 -8 -5.5 -13t-13.5 -5h-299q-8 0 -13.5 5.5t-5.5 12.5v16z" glyph-name="underscore" horiz-adv-x="453" unicode="_"/><glyph d="M269 567q-5 -8 -11.5 -12.5t-12.5 -1.5l-170 77q-10 5 -10.5 16.5t5.5 25.5q7 14 19 19t22 -1l156 -95q5 -3 5.5 -11.5t-3.5 -16.5z" glyph-name="grave" horiz-adv-x="302" unicode="`"/><glyph d="M42 140q0 33 12 61t35.5 48.5t58 32t79.5 11.5q18 0 36 -2.5t32 -5.5q17 -4 31 -7q1 64 -27.5 95.5t-78.5 31.5q-38 0 -64.5 -11t-42.5 -16q-9 -4 -14 0t-8 12l-10 27q-3 11 1.5 16t12.5 9q17 8 49 19t80 11q89 0 131 -50t42 -144v-264q0 -18 -18 -18q-23 0 -35 15.5 t-14 38.5q-9 -9 -22.5 -20t-32 -20t-41 -15t-49.5 -6q-30 0 -56.5 10.5t-45.5 30t-30 47.5t-11 63zM115 140q0 -35 22.5 -59.5t60.5 -24.5q43 0 77.5 19.5t49.5 42.5v94q-11 6 -37 12t-61 6q-48 0 -80 -22.5t-32 -67.5z" glyph-name="a" horiz-adv-x="471" unicode="a"/><glyph d="M78 678q0 8 6 15t15 7h30q8 0 15 -7t7 -15v-235q16 8 35 14q17 5 40.5 10t52.5 5q52 0 92.5 -18.5t68.5 -51t42.5 -76t14.5 -94.5q0 -50 -16 -94t-43.5 -77t-65.5 -52.5t-82 -19.5q-54 0 -89 19t-57 40q-2 -23 -14 -37.5t-34 -14.5q-18 0 -18 18v664zM151 132 q15 -21 34 -38q17 -14 41 -26t56 -12q31 0 57 14.5t44.5 39t28.5 56t10 65.5t-10 65.5t-29.5 55.5t-48 38.5t-66.5 14.5q-24 0 -45.5 -5t-37.5 -10q-18 -6 -34 -14v-244z" glyph-name="b" horiz-adv-x="546" unicode="b"/><glyph d="M48 230q0 102 67 172t167 70q102 0 168 -76q6 -8 6 -14q0 -10 -10 -19l-16 -15q-8 -6 -13 -6q-9 0 -20 13q-44 50 -116 50q-66 0 -112 -51t-46 -123q0 -74 45.5 -124.5t109.5 -50.5q25 0 44.5 5t35.5 17t24 20t22 24q8 10 18 10q8 0 21 -12l6 -6q10 -10 10 -19 q0 -8 -4 -13q-28 -41 -73.5 -67t-100.5 -26q-102 0 -167.5 68.5t-65.5 172.5z" glyph-name="c" horiz-adv-x="500" unicode="c"/><glyph d="M49 232q0 51 14.5 94.5t42.5 76t69 51t93 18.5q29 0 52 -5t40 -10q19 -6 36 -14v235q0 8 6.5 15t15.5 7h28q9 0 16 -7t7 -15v-664q0 -18 -18 -18q-22 0 -34 14.5t-15 37.5q-24 -21 -62 -40t-84 -19q-44 0 -82 19.5t-65.5 52.5t-43.5 77t-16 94zM124 231q0 -34 10 -65.5 t29 -56t44.5 -39t57.5 -14.5q31 0 55.5 11.5t41.5 25.5q19 16 34 37v249q-17 7 -35 13q-17 5 -38 9t-45 4q-37 0 -66 -14.5t-48.5 -38.5t-29.5 -55.5t-10 -65.5z" glyph-name="d" horiz-adv-x="547" unicode="d"/><glyph d="M49 231q0 101 61.5 171t162.5 70q90 0 149.5 -59.5t59.5 -150.5q0 -12 -2 -28q0 -8 -6.5 -14t-14.5 -6h-336q2 -60 46 -109t105 -49q67 0 125 38q13 10 20 10q6 0 15 -13l12 -17q8 -12 8 -17q0 -6 -12 -15q-26 -20 -70.5 -36.5t-98.5 -16.5q-68 0 -119.5 33.5t-78 88 t-26.5 120.5zM124 273h284q-2 53 -40 92.5t-95 39.5t-99.5 -38.5t-49.5 -93.5z" glyph-name="e" horiz-adv-x="525" unicode="e"/><glyph d="M120 22v376h-74q-9 0 -15.5 6.5t-6.5 15.5v20q0 10 6.5 16t15.5 6h74v73q0 86 39.5 130.5t114.5 44.5q76 0 127 -48q7 -7 7 -16q0 -6 -3 -10l-19 -24q-6 -8 -13 -8q-6 0 -16 7q-16 11 -25.5 17t-25.5 10.5t-34 4.5q-78 0 -78 -108v-73h137q9 0 15.5 -6t6.5 -16v-20 q0 -9 -6.5 -15.5t-15.5 -6.5h-137v-376q0 -9 -6.5 -15.5t-15.5 -6.5h-30q-9 0 -15.5 6.5t-6.5 15.5z" glyph-name="f" horiz-adv-x="374" unicode="f"/><glyph d="M469 -3q0 -59 -17 -100.5t-45 -67t-64.5 -37t-75.5 -11.5q-27 0 -52.5 6.5t-46.5 15.5t-37 19.5t-25 18.5q-6 5 -7.5 13.5t2.5 13.5l20 29q5 8 13.5 8.5t16.5 -7.5q19 -16 48.5 -32.5t67.5 -16.5q27 0 51 8t41 25.5t27 45.5t10 69v33q-17 -12 -36 -21q-17 -8 -40 -14 t-52 -6q-48 0 -88 19t-69 51.5t-45.5 76.5t-16.5 95q0 49 16 93t44.5 77t68.5 52t87 19q45 0 81.5 -15.5t57.5 -32.5q5 19 16 30.5t31 11.5q18 0 18 -18v-451zM124 232q0 -38 11.5 -70t32.5 -55t49 -36.5t61 -13.5q24 0 45 5.5t37 13.5q18 8 35 19v253q-15 16 -33 28 q-16 11 -38.5 19.5t-50.5 8.5q-35 0 -62.5 -14t-46.5 -38t-29.5 -55t-10.5 -65z" glyph-name="g" horiz-adv-x="547" unicode="g"/><glyph d="M78 22v656q0 8 6.5 15t15.5 7h30q8 0 15 -7t7 -15v-265q21 24 62 41.5t85 17.5q85 0 126 -52t41 -154v-244q0 -9 -7 -15.5t-15 -6.5h-31q-9 0 -15.5 6.5t-6.5 15.5v244q0 68 -22.5 103.5t-74.5 35.5q-41 0 -80 -19t-62 -47v-317q0 -9 -7 -15.5t-15 -6.5h-30 q-9 0 -15.5 6.5t-6.5 15.5z" glyph-name="h" horiz-adv-x="539" unicode="h"/><glyph d="M78 22v418q0 8 6.5 15t15.5 7h30q8 0 15 -7t7 -15v-418q0 -9 -7 -15.5t-15 -6.5h-30q-9 0 -15.5 6.5t-6.5 15.5zM113 581q-23 0 -38.5 16t-15.5 38q0 24 15.5 40t38.5 16t39 -16t16 -40q0 -22 -16 -38t-39 -16z" glyph-name="i" horiz-adv-x="230" unicode="i"/><glyph d="M146 440v-490q0 -89 -35 -137t-96 -61h-5q-13 0 -16 12l-10 30q-2 6 -2 8q0 14 16 19q38 14 56 39.5t18 82.5v497q0 10 6.5 16t15.5 6h30q8 0 15 -6t7 -16zM110 581q-23 0 -38.5 16t-15.5 38q0 24 15.5 40t38.5 16t39 -16t16 -40q0 -22 -16 -38t-39 -16z" glyph-name="j" horiz-adv-x="230" unicode="j"/><glyph d="M78 22v656q0 8 6.5 15t15.5 7h30q8 0 15 -7t7 -15v-391l192 161q16 14 28 14h56q16 0 16 -15q0 -10 -5 -13l-213 -177l229 -228q5 -5 5 -13q0 -6 -4 -11t-13 -5h-57q-14 0 -23 9l-211 223v-210q0 -9 -7 -15.5t-15 -6.5h-30q-9 0 -15.5 6.5t-6.5 15.5z" glyph-name="k" horiz-adv-x="484" unicode="k"/><glyph d="M83 22v656q0 8 6.5 15t15.5 7h30q8 0 15 -7t7 -15v-656q0 -9 -6.5 -15.5t-15.5 -6.5h-30q-9 0 -15.5 6.5t-6.5 15.5z" glyph-name="l" horiz-adv-x="240" unicode="l"/><glyph d="M78 448q0 18 18 18q22 0 34 -14.5t14 -37.5q21 21 56.5 39.5t86.5 18.5q52 0 82.5 -18.5t53.5 -54.5q2 1 15 13t35 25t51 24t64 11q50 0 82.5 -15.5t51 -43t25.5 -65t7 -82.5v-244q0 -9 -6.5 -15.5t-15.5 -6.5h-30q-9 0 -15.5 6.5t-6.5 15.5v244q0 65 -22.5 102t-75.5 37 q-28 0 -50 -8t-38.5 -18.5t-28 -21t-17.5 -15.5q3 -15 4.5 -36.5t1.5 -39.5v-244q0 -9 -6.5 -15.5t-15.5 -6.5h-30q-8 0 -15 6.5t-7 15.5v244q0 66 -23.5 102.5t-80.5 36.5q-31 0 -54 -10t-39 -22q-18 -14 -31 -32v-319q0 -9 -7 -15.5t-15 -6.5h-30q-9 0 -15.5 6.5 t-6.5 15.5v426z" glyph-name="m" horiz-adv-x="827" unicode="m"/><glyph d="M78 448q0 18 18 18q22 0 34 -14.5t14 -37.5q22 19 61.5 38.5t93.5 19.5q50 0 82.5 -15.5t51 -43t26 -65t7.5 -82.5v-244q0 -9 -7 -15.5t-15 -6.5h-30q-9 0 -15.5 6.5t-6.5 15.5v254q0 66 -23.5 97.5t-74.5 31.5q-33 0 -59 -10t-45 -22q-22 -14 -38 -32v-319 q0 -9 -7 -15.5t-15 -6.5h-30q-9 0 -15.5 6.5t-6.5 15.5v426z" glyph-name="n" horiz-adv-x="539" unicode="n"/><glyph d="M48 232q0 64 31 119t84.5 88t116.5 33t116.5 -33t84.5 -88t31 -119q0 -65 -31 -121t-84.5 -89t-116.5 -33t-116.5 33t-84.5 89t-31 121zM122 232q-1 -73 44.5 -124.5t113.5 -51.5t113 51.5t45 124.5q0 72 -45 122.5t-113 50.5t-113.5 -50.5t-44.5 -122.5z" glyph-name="o" horiz-adv-x="560" unicode="o"/><glyph d="M151 -216q0 -9 -7 -15.5t-15 -6.5h-29q-9 0 -15.5 6.5t-6.5 15.5v664q0 18 18 18q19 0 30.5 -11.5t15.5 -30.5q22 17 57.5 32.5t82.5 15.5t86.5 -19t68 -52t44.5 -77t16 -93q0 -51 -16 -95t-45 -76.5t-69 -51.5t-88 -19q-29 0 -52.5 5.5t-40.5 13.5q-19 8 -35 19v-243z M151 96q16 -11 34 -20q16 -8 37.5 -14t45.5 -6q33 0 61.5 13.5t49 37t32 55.5t11.5 70q0 34 -10 65t-29.5 55t-47 38.5t-62.5 14.5q-28 0 -50.5 -8.5t-38.5 -19.5q-18 -12 -33 -28v-253z" glyph-name="p" horiz-adv-x="546" unicode="p"/><glyph d="M469 -216q0 -9 -7 -15.5t-16 -6.5h-28q-9 0 -15.5 6.5t-6.5 15.5v246q-17 -12 -36 -21q-17 -8 -40 -14t-52 -6q-48 0 -88 19t-69 51.5t-45.5 76.5t-16.5 95q0 49 16 93t44.5 77t68.5 52t87 19q49 0 84 -16.5t55 -31.5q5 19 16 30.5t31 11.5q18 0 18 -18v-664zM124 232 q0 -38 11.5 -70t32.5 -55t49 -36.5t61 -13.5q24 0 45 5.5t38 13.5q18 8 35 19v253q-15 16 -33 28q-16 11 -39 19.5t-51 8.5q-35 0 -62.5 -14t-46.5 -38t-29.5 -55t-10.5 -65z" glyph-name="q" horiz-adv-x="547" unicode="q"/><glyph d="M78 448q0 18 18 18q22 0 34 -14.5t14 -37.5q19 20 53.5 39t88.5 19q13 0 29 -1.5t29 -5t20 -11t3 -19.5l-13 -36q-4 -11 -11.5 -13t-15.5 2t-20.5 8.5t-29.5 4.5q-34 0 -57.5 -9.5t-38.5 -20.5q-18 -13 -29 -29v-320q0 -9 -7 -15.5t-15 -6.5h-30q-9 0 -15.5 6.5 t-6.5 15.5v426z" glyph-name="r" horiz-adv-x="386" unicode="r"/><glyph d="M209 -11q-29 0 -53 5.5t-43.5 14t-33.5 18.5t-23 18q-9 9 -3 20l14 26q5 8 11 10.5t16 -4.5q6 -5 16.5 -11.5t25 -13.5t33 -11.5t40.5 -4.5q35 0 57 15.5t22 42.5q0 16 -6.5 28.5t-19.5 23t-32.5 21t-44.5 22.5q-23 11 -46.5 23.5t-42 29t-30.5 38t-12 51.5q0 18 7.5 39 t24 39.5t44 30.5t67.5 12q45 0 80 -12t52 -24q15 -12 5 -31l-10 -19q-5 -10 -14.5 -11.5t-17.5 3.5q-15 9 -39 18t-56 9q-38 0 -53 -17t-15 -34q0 -15 6 -26t17 -20t27.5 -17.5t37.5 -18.5q30 -14 57 -27.5t47.5 -30.5t32.5 -39.5t12 -53.5q0 -27 -11.5 -51t-32 -42 t-49.5 -28.5t-64 -10.5z" glyph-name="s" horiz-adv-x="406" unicode="s"/><glyph d="M47 398q-11 0 -17 6.5t-6 15.5v20q0 22 23 22h61v128q0 9 7 15t15 7l31 2q9 1 15 -6t6 -16v-130h136q10 0 16.5 -6t6.5 -16v-20q0 -9 -6.5 -15.5t-16.5 -6.5h-136v-273q0 -36 19 -52.5t43 -16.5q21 0 39 6t32 14t20 3.5t9 -12.5l8 -20q8 -21 -8 -30q-17 -9 -45.5 -18.5 t-63.5 -9.5q-30 0 -54 11t-40 30t-24.5 43.5t-8.5 51.5v273h-61z" glyph-name="t" horiz-adv-x="379" unicode="t"/><glyph d="M73 440q0 8 6 15t16 7h30q9 0 15.5 -7t6.5 -15v-250q0 -69 23 -101.5t74 -32.5q26 0 46.5 7t37 17.5t28 22t19.5 20.5v317q0 8 6 15t15 7h31q8 0 14.5 -7t6.5 -15v-426q0 -18 -18 -18q-23 0 -35 15t-14 38q-20 -21 -54 -40.5t-89 -19.5q-50 0 -82 14.5t-50.5 41 t-25.5 63.5t-7 83v249z" glyph-name="u" horiz-adv-x="526" unicode="u"/><glyph d="M217 1l-195 435q-3 6 -3 10q0 7 5.5 11.5t14.5 4.5h35q16 0 21 -13l143 -340h2l152 340q5 13 18 13h32q20 0 20 -16q0 -6 -2 -10l-199 -435q-4 -12 -19 -12h-6q-15 0 -19 12z" glyph-name="v" horiz-adv-x="490" unicode="v"/><glyph d="M348 348h-2l-136 -347q-4 -12 -19 -12h-6q-15 0 -20 12l-128 435q-1 3 -1 10q0 16 19 16h34q18 0 21 -13l85 -314h2l130 326q4 11 20 11h6q6 0 12 -3t7 -8l129 -327h2l85 315q3 13 19 13h35q18 0 18 -16q0 -2 -2 -10l-126 -435q-4 -12 -19 -12h-6q-14 0 -20 12z" glyph-name="w" horiz-adv-x="702" unicode="w"/><glyph d="M49 0q-10 0 -15 4.5t-5 11.5q0 8 5 14l154 205l-150 197q-5 6 -5 14q0 7 5.5 11.5t14.5 4.5h43q12 0 18 -9l116 -160h2l120 160q7 9 18 9h43q10 0 15 -4.5t5 -11.5q0 -8 -5 -14l-150 -195l151 -207q5 -8 5 -14q0 -7 -5.5 -11.5t-14.5 -4.5h-38q-10 0 -18 10l-126 174h-2 l-125 -175q-7 -9 -18 -9h-38z" glyph-name="x" horiz-adv-x="476" unicode="x"/><glyph d="M136 -238q-14 0 -19 8t0 20l87 206l-171 441q-10 25 18 25h42q15 0 20 -13l131 -367h2l156 367q5 13 20 13h37q14 0 18.5 -7.5t-0.5 -18.5l-289 -660q-2 -5 -8 -9.5t-12 -4.5h-32v0z" glyph-name="y" horiz-adv-x="500" unicode="y"/><glyph d="M38 22v2q0 9 6 18l234 354v3h-209q-8 0 -13.5 6.5t-5.5 15.5v19q0 10 5 16t14 6h293q21 0 21 -20q0 -6 -4 -12l-236 -364v-3h193q22 0 22 -22v-19q0 -10 -6 -16t-16 -6h-276q-9 0 -15.5 6.5t-6.5 15.5z" glyph-name="z" horiz-adv-x="414" unicode="z"/><glyph d="M115 -26v146q0 30 -23.5 52t-45.5 26q-6 0 -10.5 5.5t-4.5 11.5v31q0 6 4.5 10t10.5 5q22 4 45.5 25.5t23.5 52.5v146q0 44 10.5 79.5t30 59.5t43 41.5t52.5 27t55 13.5t54 4q8 0 14 -4t6 -13v-19q0 -7 -3.5 -12.5t-9.5 -5.5q-38 -6 -69.5 -18t-57.5 -32t-41 -51t-15 -70 v-118q0 -28 -6 -51t-13 -36t-20 -23.5t-20.5 -14.5t-19.5 -9v-7q12 -5 19.5 -9t20.5 -14.5t20 -23.5t13 -36t6 -51v-118q0 -39 15 -69.5t41 -50.5t58 -32t69 -18q13 -2 13 -17v-20q0 -7 -6 -12t-14 -5q-34 0 -65.5 5.5t-65 21t-58.5 39.5t-40.5 65t-15.5 93z" glyph-name="braceleft" horiz-adv-x="403" unicode="{"/><glyph d="M79 -220v961q0 8 5.5 13.5t13.5 5.5h7q8 0 13 -5.5t5 -13.5v-961q0 -8 -5.5 -13t-13.5 -5h-6q-8 0 -13.5 5t-5.5 13z" glyph-name="bar" horiz-adv-x="202" unicode="|"/><glyph d="M219 92q0 28 5.5 51t13.5 36t20 23.5t20 14.5t20 9v7q-12 5 -20 9t-20 14.5t-20 23.5t-13.5 35.5t-5.5 51.5v118q0 39 -15 70t-41.5 51t-57.5 32t-69 18q-6 0 -9.5 5.5t-3.5 12.5v19q0 8 5.5 12.5t14.5 4.5q28 0 54.5 -4t54.5 -13.5t52 -27t43 -41.5t30 -59.5t11 -79.5 v-146q0 -30 23 -52.5t46 -25.5q6 -1 10.5 -5t4.5 -10v-31q0 -6 -4.5 -11.5t-10.5 -5.5q-22 -4 -45.5 -26t-23.5 -52v-146q0 -52 -16 -93t-40.5 -65t-58 -39.5t-65.5 -21t-65 -5.5q-8 0 -14 5t-6 12v20q0 16 13 17q38 6 69 18t57.5 32t41.5 50.5t15 69.5v118z" glyph-name="braceright" horiz-adv-x="403" unicode="}"/><glyph d="M80 228q-4 3 -11 8.5t-10 8.5q-6 4 -6 13q0 7 4 11q21 37 58 64.5t75 27.5q22 0 44 -8.5t33 -15.5t31 -21q48 -34 73 -34q10 0 18.5 2t16.5 8t13.5 10t12 12.5t9.5 12t9 12.5l6 9q6 9 15 9q6 0 12 -5l21 -17q6 -4 6 -13q0 -7 -4 -11q-22 -38 -59.5 -65t-75.5 -27 q-20 0 -42 8.5t-32 14.5t-30 20q-2 2 -11.5 9t-15 10t-14.5 8t-17.5 7t-17.5 2q-10 0 -18.5 -2t-16 -8t-13 -10t-12.5 -12t-9.5 -12t-8 -13t-6.5 -9q-6 -9 -15 -9q-6 0 -12 5z" glyph-name="asciitilde" horiz-adv-x="564" unicode="~"/><glyph glyph-name="uni00A0" horiz-adv-x="240"/><glyph d="M202.006 415.003q0 -23.999 -16.999 -40.498t-39.998 -16.499q-23.998 0 -40.4971 16.499t-16.499 40.498q0 22.999 16.499 39.9971q16.499 16.999 40.4971 16.999q22.999 0 39.998 -16.999q16.999 -16.998 16.999 -39.9971zM145.009 242.014q12.999 0 19.999 -6 q6.99902 -6 6.99902 -13.999l18.999 -434.974q1 -13.999 -11.999 -24.498q-12.999 -10.5 -33.998 -10.5t-33.998 10.5q-12.999 10.499 -11.999 24.498l17.999 434.974q0 7.99902 7.49902 13.999q7.5 6 20.499 6z" glyph-name="exclamdown" horiz-adv-x="290" unicode="¡"/><glyph d="M67 230q0 51 17.5 95t49 77t74.5 51.5t93 18.5q8 0 16.5 -0.5t16.5 -1.5l20 101q2 9 13 13t25 0q13 -4 20 -13.5t4 -17.5l-36 -95q53 -18 89 -62q13 -16 -4 -33l-16 -15q-11 -11 -18.5 -6t-14.5 13q-24 27 -52.5 38.5t-63.5 11.5q-33 0 -62 -13.5t-50 -37.5t-33.5 -55.5 t-12.5 -67.5q0 -37 12 -69t33 -55.5t49.5 -37t60.5 -13.5q26 0 45.5 6t34 15.5t25.5 21.5t21 23t19.5 9.5t19.5 -11.5l6 -6q8 -8 10 -15.5t-4 -16.5q-26 -38 -71 -65.5t-103 -27.5h-13.5t-12.5 1l-21 -104q-2 -9 -13 -13t-25 0q-13 4 -20 13.5t-4 17.5l36 96 q-73 22 -116.5 83.5t-43.5 146.5z" glyph-name="cent" horiz-adv-x="537" unicode="¢"/><glyph d="M129 37q26 48 36 93.5t10 87.5q0 20 -2 35t-5 31h-44q-8 0 -13 5.5t-5 13.5v17q0 8 5 13.5t13 5.5h32q-2 9 -7 25.5t-10.5 38.5t-10 47.5t-4.5 54.5q0 47 16 85t44.5 64.5t66.5 41t82 14.5q32 0 58.5 -8t47.5 -19.5t36.5 -23.5t24.5 -20q6 -5 6.5 -12.5t-4.5 -13.5 l-21 -26q-8 -11 -15.5 -10t-13.5 9q-17 16 -36 29q-17 11 -39.5 20t-47.5 9q-29 0 -53.5 -10t-42.5 -28.5t-28.5 -44.5t-10.5 -57q0 -29 4.5 -55.5t10.5 -48.5t11 -38t7 -23h164q8 0 13.5 -5.5t5.5 -13.5v-18q0 -8 -5.5 -13t-13.5 -5h-153q2 -11 4 -26t2 -35 q0 -39 -6.5 -82.5t-21.5 -76.5h250q8 0 13 -5.5t5 -13.5v-26q0 -8 -5 -13.5t-13 -5.5h-318q-8 0 -13.5 5.5t-5.5 13.5v18z" glyph-name="sterling" unicode="£"/><glyph d="M104 176l-20 19q-5 5 -5 13q0 9 5 14l41 41q-19 35 -19 69t19 69l-41 41q-5 5 -5 14q0 8 5 13l20 19q5 5 14 5q8 0 13 -5l41 -41q32 20 70 20t68 -19l42 42q5 5 12 5q8 0 14 -6l20 -20q5 -5 5 -13t-5 -13l-41 -41q19 -30 19 -70q0 -38 -19 -70l41 -41q5 -5 5 -13t-5 -13 l-20 -20q-6 -6 -14 -6q-7 0 -12 5l-42 42q-33 -19 -69 -19t-69 20l-41 -41q-5 -5 -13 -5q-9 0 -14 5zM190 281q21 -21 51 -21t51 21t21 51t-21 51t-51 21t-51 -21t-21 -51t21 -51z" glyph-name="currency" horiz-adv-x="486" unicode="¤"/><glyph d="M127 143q-8 0 -13 5.5t-5 13.5v17q0 8 5 13.5t13 5.5h134v65h-134q-8 0 -13 5.5t-5 13.5v17q0 8 5 13.5t13 5.5h134v22l-241 331q-6 10 -1 19.5t17 9.5h40q5 0 9.5 -3t6.5 -6l206 -284l206 284q2 3 6.5 6t9.5 3h40q12 0 17 -9.5t-1 -19.5l-244 -333v-20h132 q8 0 13.5 -5.5t5.5 -13.5v-18q0 -8 -5.5 -13t-13.5 -5h-132v-65h132q8 0 13.5 -5.5t5.5 -13.5v-18q0 -8 -5.5 -13t-13.5 -5h-132v-124q0 -8 -5.5 -13.5t-13.5 -5.5h-33q-8 0 -13.5 5.5t-5.5 13.5v124h-134z" glyph-name="yen" unicode="¥"/><glyph d="M102 393q-8 0 -13.5 5.5t-5.5 12.5v330q0 8 5.5 13.5t13.5 5.5h7q8 0 13 -5.5t5 -13.5v-330q0 -8 -5.5 -13t-13.5 -5h-6zM83 111q0 8 5.5 13.5t13.5 5.5h7q8 0 13 -5.5t5 -13.5v-331q0 -8 -5.5 -13t-13.5 -5h-6q-8 0 -13.5 5t-5.5 13v331z" glyph-name="brokenbar" horiz-adv-x="210" unicode="¦"/><glyph d="M84 -110q8 10 16 10q7 0 14 -7q6 -6 18 -15t35 -24.5t54 -25.5t62 -10q58 0 96 25t38 74q0 46 -42.5 83t-132.5 75q-86 36 -131 83t-45 112q0 40 24 76t56 52q-34 22 -57 61.5t-23 82.5q0 22 7 44t23 44.5t39 40t61 28.5t83 11t92.5 -15t78.5 -36q11 -6 11 -19 q0 -8 -4 -14l-15 -23q-8 -11 -17 -11q-6 0 -16 5l-5 3l-10 6t-13.5 7.5t-16.5 8.5t-19 8t-21.5 7t-22.5 4.5t-23 1.5q-38 0 -66.5 -9.5t-43 -25t-21.5 -32t-7 -33.5q0 -42 35 -73t100 -58q44 -18 73.5 -32t60.5 -33t48.5 -38t28.5 -44t11 -55q0 -40 -25.5 -78t-59.5 -60 q34 -22 59.5 -64t25.5 -88q0 -76 -61 -122.5t-155 -46.5q-33 0 -66 7.5t-55.5 17t-43.5 22t-30.5 20t-15.5 13.5l-2 2l-3 3t-3 2.5t-2.5 3.5l-1 4t-0.5 4q0 8 6 15zM140 273q0 -18 5 -32t16 -26.5t23 -21.5t32.5 -20t38 -19.5t46.5 -22t51 -25.5q26 12 45.5 39t19.5 59 q0 42 -40 72t-135 69q-24 10 -42 19q-25 -10 -42.5 -35.5t-17.5 -55.5z" glyph-name="section" horiz-adv-x="568" unicode="§"/><glyph d="M320 581q-21 0 -36 15t-15 36q0 22 15 37t36 15q22 0 37 -15t15 -37q0 -21 -15 -36t-37 -15zM127 581q-21 0 -36 15t-15 36q0 22 15 37t36 15q22 0 37 -15t15 -37q0 -21 -15 -36t-37 -15z" glyph-name="dieresis" horiz-adv-x="414" unicode="¨"/><glyph d="M91 210q-28 67 -28 140t28.5 139.5t76.5 115t114.5 77t139.5 28.5t139.5 -29t114.5 -77t77 -114.5t29 -139.5t-28.5 -139.5t-77 -114.5t-115 -76.5t-139.5 -28.5t-139.5 28.5t-114.5 76.5t-77 114zM146 466q-23 -55 -23 -116t23.5 -116.5t63.5 -95.5t95.5 -63.5 t116.5 -23.5t116.5 23.5t95.5 63.5t63.5 95.5t23.5 116.5t-23.5 116.5t-63.5 95.5t-95.5 63.5t-116.5 23.5t-116.5 -23.5t-95.5 -63.5t-64 -96zM244 348q0 78 55 133t132 55q67 0 115 -38q7 -6 7 -15t-5 -14l-14 -18q-9 -12 -27 -1q-34 23 -74 23q-51 0 -85 -35.5t-34 -86.5 q0 -52 34 -87t85 -35q38 0 71 22q9 6 16 6q8 0 13 -7l16 -19q5 -5 5 -13q0 -9 -6 -15q-47 -42 -117 -42q-77 0 -132 55t-55 132z" glyph-name="copyright" horiz-adv-x="845" unicode="©"/><glyph d="M138 404q-38 0 -63.5 26t-25.5 71q0 42 29.5 69t86.5 27q11 0 22.5 -1.5t19.5 -3.5q10 -3 18 -5q0 36 -15 56.5t-49 20.5q-24 0 -41.5 -7t-25.5 -11q-5 -2 -9 2t-6 9l-5 18q-3 10 7 15q2 2 23 11t57 9q32 0 54 -10.5t35 -28t18.5 -39.5t5.5 -45v-164q0 -13 -13 -13 q-15 0 -24 9.5t-11 24.5q-12 -11 -32.5 -25.5t-55.5 -14.5zM144 451q26 0 47.5 13t31.5 25v56q-8 4 -23 8.5t-38 4.5q-29 0 -48.5 -15.5t-19.5 -40.5q0 -22 14 -36.5t36 -14.5z" glyph-name="ordfeminine" horiz-adv-x="340" unicode="ª"/><glyph d="M213 224q-8 12 0 24l109 148q7 12 18 12h14q9 0 14 -5t5 -12q0 -4 -4 -14l-74 -139l71 -147q4 -10 4 -13q0 -8 -5 -12.5t-14 -4.5h-19q-9 0 -15 8zM154 69l-104 155q-4 6 -4 12t4 12l109 148q7 12 18 12h14q9 0 14 -5t5 -12q0 -4 -4 -14l-74 -139l71 -147q4 -10 4 -13 q0 -8 -5 -12.5t-14 -4.5h-19q-9 0 -15 8z" glyph-name="guillemotleft" horiz-adv-x="433" unicode="«"/><glyph d="M101 314q-8 0 -13.5 6t-5.5 13v28q0 8 6 13.5t13 5.5h380q8 0 13.5 -6t5.5 -13v-204q0 -8 -6 -13t-13 -5h-28q-8 0 -13.5 5.5t-5.5 12.5v157h-333z" glyph-name="logicalnot" horiz-adv-x="590" unicode="¬"/><glyph d="M87 220q-8 0 -13.5 5t-5.5 13v19q0 8 5.5 13.5t13.5 5.5h209q8 0 13.5 -5.5t5.5 -13.5v-19q0 -8 -5.5 -13t-13.5 -5h-209z" glyph-name="uni00AD" horiz-adv-x="383" unicode="­"/><glyph d="M25 613q0 27 10 51t28 42t42 28.5t51 10.5t51.5 -10.5t42.5 -28.5t28.5 -42t10.5 -51t-10.5 -51.5t-28.5 -43t-42.5 -29t-51.5 -10.5t-51 10.5t-42 29t-28 43t-10 51.5zM58 613q0 -21 8 -39t21.5 -31.5t31 -21t37.5 -7.5q42 0 70.5 28.5t28.5 70.5q0 21 -8 38.5t-21.5 31 t-31.5 21t-38 7.5t-37.5 -7.5t-31 -21t-21.5 -31.5t-8 -38zM110 669q0 2 2 4t4 2h51q17 0 31.5 -11.5t14.5 -32.5q0 -15 -6.5 -23t-15.5 -12l17 -35q2 -4 -0.5 -6.5t-5.5 -2.5h-23q-4 0 -6 4l-13 34h-16v-32q0 -6 -6 -6h-22q-6 0 -6 6v111zM165 617q6 0 9.5 4.5t3.5 9.5 q0 14 -13 14h-22v-28h22z" glyph-name="registered" horiz-adv-x="314" unicode="®"/><glyph d="M79 583q-8 0 -13.5 5t-5.5 13v21q0 19 19 19h256q19 0 19 -19v-21q0 -8 -5.5 -13t-13.5 -5h-256v0z" glyph-name="macron" horiz-adv-x="414" unicode="¯"/><glyph d="M277 479q-39 -39 -95 -39t-95.5 39.5t-39.5 95.5t39.5 95.5t95.5 39.5t95.5 -39.5t39.5 -95.5t-40 -96zM182 493q31 0 55.5 25t24.5 57q0 31 -24.5 55.5t-55.5 24.5q-32 0 -57 -24.5t-25 -55.5q0 -32 25 -57t57 -25z" glyph-name="degree" horiz-adv-x="364" unicode="°"/><glyph d="M267 267v117h-157q-8 0 -13.5 6t-5.5 13v28q0 8 5.5 13.5t13.5 5.5h157v148q0 8 5.5 13t13.5 5h28q8 0 13.5 -5t5.5 -13v-148h158q8 0 13 -6t5 -13v-28q0 -8 -5.5 -13.5t-12.5 -5.5h-158v-117q0 -8 -5.5 -13t-13.5 -5h-28q-8 0 -13.5 5t-5.5 13zM109 61q-8 0 -13.5 6 t-5.5 13v28q0 8 5.5 13.5t13.5 5.5h381q8 0 13 -6t5 -13v-28q0 -8 -5.5 -13.5t-12.5 -5.5h-381z" glyph-name="plusminus" unicode="±"/><glyph d="M43 504q-10 0 -10 9v14l127 133q32 34 32 56q0 18 -14.5 32.5t-42.5 14.5q-32 0 -62 -30q-6 -6 -12 0l-20 21q-6 6 0 11q16 19 43.5 32t53.5 13q52 0 80 -25t28 -64q0 -40 -49 -90l-81 -83h121q9 0 9 -10v-25q0 -9 -9 -9h-194z" glyph-name="uni00B2" horiz-adv-x="286" unicode="²"/><glyph d="M136 494q-66 0 -103 41q-2 2 -2 5t3 6l21 20q8 4 13 -1q2 -2 10.5 -7.5t24.5 -12t31 -6.5q24 0 42 12.5t18 32.5t-18.5 34t-54.5 14h-31q-10 0 -10 9v25q0 9 10 9h31q32 0 48.5 12.5t16.5 31.5q0 20 -16 32.5t-38 12.5q-32 0 -56 -24q-6 -6 -13 0l-20 18q-3 2 -3 6t3 6 q14 16 40 28t53 12q44 0 74.5 -23t30.5 -60q0 -24 -16 -43.5t-36 -26.5v-2q22 -8 41.5 -28.5t19.5 -46.5q0 -38 -31.5 -62t-82.5 -24z" glyph-name="uni00B3" horiz-adv-x="289" unicode="³"/><glyph d="M69 567q-4 8 -3.5 16.5t5.5 11.5l156 95q10 6 22 1t19 -19q6 -14 5.5 -25.5t-10.5 -16.5l-170 -77q-6 -3 -12.5 1.5t-11.5 12.5z" glyph-name="acute" horiz-adv-x="302" unicode="´"/><glyph d="M90 -216v656q0 8 6 15t16 7h30q9 0 15.5 -7t6.5 -15v-244q0 -140 97 -140q42 0 78 20t53 47v317q0 8 6 15t15 7h31q8 0 14.5 -7t6.5 -15v-418q0 -9 -6.5 -15.5t-14.5 -6.5h-16q-16 0 -21 20l-9 29q-18 -23 -57 -41.5t-86 -18.5q-56 0 -91 20v-225q0 -9 -7 -15.5t-15 -6.5 h-30q-9 0 -15.5 6.5t-6.5 15.5z" glyph-name="mu" horiz-adv-x="531" unicode="µ"/><glyph d="M251 282q-56 0 -103.5 27.5t-76 76t-28.5 106.5q0 86 56.5 147.5t137.5 61.5l442 -1q8 0 13.5 -6t5.5 -13v-20q0 -8 -6 -13.5t-13 -5.5h-111v-861q0 -8 -5.5 -13.5t-13.5 -5.5h-21q-8 0 -13.5 6t-5.5 13v861h-156v-861q0 -8 -5.5 -13.5t-13.5 -5.5h-20q-8 0 -13.5 6 t-5.5 13v501h-44z" glyph-name="paragraph" horiz-adv-x="739" unicode="¶"/><glyph d="M120 204q-23 0 -40 17t-17 40q0 24 17 40.5t40 16.5q24 0 40.5 -16.5t16.5 -40.5q0 -23 -16.5 -40t-40.5 -17z" glyph-name="periodcentered" horiz-adv-x="240" unicode="·"/><glyph d="M112 3h52l-45 -70q12 4 25 4q35 0 59.5 -20.5t24.5 -62.5t-32 -68t-77 -26q-52 0 -82 28q-4 4 -4 9q0 4 4 12l8 15q4 8 10 9t11 -4q22 -20 50 -20q26 0 41 12.5t15 32.5q0 22 -14 33.5t-39 11.5q-24 0 -44 -10q-5 -2 -10 2.5t-2 10.5z" glyph-name="cedilla" horiz-adv-x="247" unicode="¸"/><glyph d="M91 504q-10 0 -10 9v210l-41 -11q-8 -2 -10 4l-5 17l-1 1v3q0 3 4 7l70 56h28q9 0 9 -9v-278q0 -4 -2.5 -6.5t-6.5 -2.5h-35z" glyph-name="uni00B9" horiz-adv-x="184" unicode="¹"/><glyph d="M300 551q0 -74 -32.5 -115.5t-91.5 -41.5t-91.5 41.5t-32.5 115.5t32.5 116t91.5 42t91.5 -41.5t32.5 -116.5zM125 470q18 -28 51 -28t51 28t18 81t-18 81.5t-51 28.5t-51 -28.5t-18 -81.5t18 -81z" glyph-name="ordmasculine" horiz-adv-x="352" unicode="º"/><glyph d="M223 91l71 147l-74 139q-4 10 -4 14q0 8 5 12.5t14 4.5h14q11 0 18 -12l109 -148q4 -6 4 -12t-4 -12l-104 -155q-6 -8 -15 -8h-19q-9 0 -14 4.5t-5 12.5q0 3 4 13zM75 61q-9 0 -14 4.5t-5 12.5q0 3 4 13l71 147l-74 139q-4 10 -4 14q0 8 5 12.5t14 4.5h14q11 0 18 -12 l109 -148q4 -6 4 -12t-4 -12l-104 -155q-6 -8 -15 -8h-19z" glyph-name="guillemotright" horiz-adv-x="433" unicode="»"/><glyph d="M495 0q-4 0 -7 3t-3 6v50h-150q-4 0 -6.5 2.5t-2.5 6.5v29l172 196q3 3 8 3h21q4 0 7 -3t3 -6v-185h41q4 0 6.5 -2.5t2.5 -5.5v-26q0 -3 -3 -5.5t-6 -2.5h-41v-51q0 -4 -3 -6.5t-7 -2.5h-32zM381 103h106v118zM147 10q-5 -10 -17 -10h-14q-8 0 -13.5 5t-5.5 13q0 6 2 9 l343 663q6 10 17 10h16q8 0 13.5 -5t5.5 -13q0 -6 -2 -9zM113 404q-10 0 -10 9v210l-41 -11q-8 -2 -10 4l-5 17l-1 1v3q0 3 4 7l70 56h28q9 0 9 -9v-278q0 -4 -2.5 -6.5t-6.5 -2.5h-35z" glyph-name="onequarter" horiz-adv-x="634" unicode="¼"/><glyph d="M147 10q-5 -10 -17 -10h-14q-8 0 -13.5 5t-5.5 13q0 6 2 9l343 663q6 10 17 10h16q8 0 13.5 -5t5.5 -13q0 -6 -2 -9zM113 404q-10 0 -10 9v210l-41 -11q-8 -2 -10 4l-5 17l-1 1v3q0 3 4 7l70 56h28q9 0 9 -9v-278q0 -4 -2.5 -6.5t-6.5 -2.5h-35zM366 0q-10 0 -10 9v14 l127 133q32 34 32 56q0 18 -14.5 32.5t-42.5 14.5q-32 0 -62 -30q-6 -6 -12 0l-20 21q-6 6 0 11q16 19 43.5 32t53.5 13q52 0 80 -25t28 -64q0 -40 -49 -90l-81 -83h121q9 0 9 -10v-25q0 -9 -9 -9h-194z" glyph-name="onehalf" horiz-adv-x="624" unicode="½"/><glyph d="M538 0q-4 0 -7 3t-3 6v50h-150q-4 0 -6.5 2.5t-2.5 6.5v29l172 196q3 3 8 3h21q4 0 7 -3t3 -6v-185h41q4 0 6.5 -2.5t2.5 -5.5v-26q0 -3 -3 -5.5t-6 -2.5h-41v-51q0 -4 -3 -6.5t-7 -2.5h-32zM424 103h106v118zM190 10q-5 -10 -17 -10h-14q-8 0 -13.5 5t-5.5 13q0 6 2 9 l343 663q6 10 17 10h16q8 0 13.5 -5t5.5 -13q0 -6 -2 -9zM155 394q-66 0 -103 41q-2 2 -2 5t3 6l21 20q8 4 13 -1q2 -2 10.5 -7.5t24.5 -12t31 -6.5q24 0 42 12.5t18 32.5t-18.5 34t-54.5 14h-31q-10 0 -10 9v25q0 9 10 9h31q32 0 48.5 12.5t16.5 31.5q0 20 -16 32.5 t-38 12.5q-32 0 -56 -24q-6 -6 -13 0l-20 18q-3 2 -3 6t3 6q14 16 40 28t53 12q44 0 74.5 -23t30.5 -60q0 -24 -16 -43.5t-36 -26.5v-2q22 -8 41.5 -28.5t19.5 -46.5q0 -38 -31.5 -62t-82.5 -24z" glyph-name="threequarters" horiz-adv-x="678" unicode="¾"/><glyph d="M262.013 232.014q7.99902 0 13.499 -5.49902q5.5 -5.5 5.5 -13.499v-83.9951q0 -30.998 -11 -51.9971q-10.999 -20.999 -27.998 -36.998t-35.998 -28.998t-35.998 -27.498q-16.998 -14.499 -27.998 -33.998q-10.999 -19.499 -10.999 -47.4971q0 -34.998 24.998 -61.4961 q24.999 -26.499 73.9961 -26.499q29.998 0 52.4961 7.5q22.499 7.5 38.998 18.499t27.998 22.498q11.499 11.5 18.499 19.499q12.999 12.999 25.998 1l18.999 -16.999q6 -4.99902 5.5 -12.499t-5.5 -13.499q-17.999 -24.999 -43.9971 -43.9971 q-22.999 -16.999 -56.9961 -30.498q-33.998 -13.5 -81.9951 -13.5q-38.998 0 -70.9961 11q-31.998 10.999 -54.9961 30.998q-22.999 19.998 -35.498 48.4971q-12.499 28.498 -12.499 62.4961q0 32.998 11.499 56.4961q11.499 23.499 29.498 41.498t37.998 32.498 q19.998 14.499 37.9971 28.498t29.498 29.498q11.5 15.499 11.5 35.498v82.9951q0 10.999 6.49902 15.499q6.5 4.49902 14.499 4.49902h26.999zM307.01 415.003q0 -23.999 -16.999 -40.498t-39.998 -16.499q-23.998 0 -40.4971 16.499t-16.499 40.498 q0 22.999 16.499 39.9971q16.499 16.999 40.4971 16.999q22.999 0 39.998 -16.999q16.999 -16.998 16.999 -39.9971z" glyph-name="questiondown" horiz-adv-x="467" unicode="¿"/><glyph d="M20 0q-9 0 -14 5t-5 12q0 3 2 9l304 673q6 11 17 11h10q12 0 17 -11l302 -673q2 -6 2 -9q0 -8 -5 -12.5t-14 -4.5h-40q-12 0 -17 11l-74 165h-355l-73 -165q-4 -11 -17 -11h-40zM178 238h300q-24 54 -73 164t-73 164h-8zM430 789q-5 -8 -11.5 -12.5t-12.5 -1.5l-170 77 q-10 5 -10.5 16.5t5.5 25.5t18.5 19t22.5 -1l156 -95q5 -3 5.5 -11.5t-3.5 -16.5z" glyph-name="Agrave" horiz-adv-x="665" unicode="À"/><glyph d="M20 0q-9 0 -14 5t-5 12q0 3 2 9l304 673q6 11 17 11h10q12 0 17 -11l302 -673q2 -6 2 -9q0 -8 -5 -12.5t-14 -4.5h-40q-12 0 -17 11l-74 165h-355l-73 -165q-4 -11 -17 -11h-40zM178 238h300q-24 54 -73 164t-73 164h-8zM229 789q-4 8 -3.5 16.5t5.5 11.5l156 95 q10 6 22.5 1t18.5 -19t5.5 -25.5t-10.5 -16.5l-170 -77q-6 -3 -12.5 1.5t-11.5 12.5z" glyph-name="Aacute" horiz-adv-x="665" unicode="Á"/><glyph d="M20 0q-9 0 -14 5t-5 12q0 3 2 9l304 673q6 11 17 11h10q12 0 17 -11l302 -673q2 -6 2 -9q0 -8 -5 -12.5t-14 -4.5h-40q-12 0 -17 11l-74 165h-355l-73 -165q-4 -11 -17 -11h-40zM178 238h300q-24 54 -73 164t-73 164h-8zM339 909q6 0 12 -5l122 -97q13 -10 0 -27 q-5 -7 -10.5 -10.5t-13.5 1.5l-110 68l-110 -68q-8 -5 -13.5 -1.5t-10.5 10.5q-14 17 0 27l122 97q6 5 12 5z" glyph-name="Acircumflex" horiz-adv-x="665" unicode="Â"/><glyph d="M20 0q-9 0 -14 5t-5 12q0 3 2 9l304 673q6 11 17 11h10q12 0 17 -11l302 -673q2 -6 2 -9q0 -8 -5 -12.5t-14 -4.5h-40q-12 0 -17 11l-74 165h-355l-73 -165q-4 -11 -17 -11h-40zM178 238h300q-24 54 -73 164t-73 164h-8zM206 795l-18 9q-6 2 -6 12q0 4 2 10l6 15t11.5 23 t16 21t25.5 19t33 6q16 0 31 -7.5t25 -18.5t19 -22t18 -18.5t17 -7.5q30 0 45 51q5 16 23 8l16 -8q7 -4 7 -12q0 -2 -3 -14q-28 -81 -89 -81q-18 0 -36 12t-29.5 26t-23.5 25.5t-21 11.5q-10 0 -17.5 -4.5t-12.5 -13.5t-8 -15t-6 -17q-4 -13 -15 -13q-4 0 -10 3z" glyph-name="Atilde" horiz-adv-x="665" unicode="Ã"/><glyph d="M20 0q-9 0 -14 5t-5 12q0 3 2 9l304 673q6 11 17 11h10q12 0 17 -11l302 -673q2 -6 2 -9q0 -8 -5 -12.5t-14 -4.5h-40q-12 0 -17 11l-74 165h-355l-73 -165q-4 -11 -17 -11h-40zM178 238h300q-24 54 -73 164t-73 164h-8zM437 788q-21 0 -36 15t-15 36q0 22 15 37t36 15 q22 0 37 -15t15 -37q0 -21 -15 -36t-37 -15zM226 788q-21 0 -36 15t-15 36q0 22 15 37t36 15q22 0 37 -15t15 -37q0 -21 -15 -36t-37 -15z" glyph-name="Adieresis" horiz-adv-x="665" unicode="Ä"/><glyph d="M20 0q-9 0 -14 5t-5 12q0 3 2 9l304 673q6 11 17 11h10q12 0 17 -11l302 -673q2 -6 2 -9q0 -8 -5 -12.5t-14 -4.5h-40q-12 0 -17 11l-74 165h-355l-73 -165q-4 -11 -17 -11h-40zM178 238h300q-24 54 -73 164t-73 164h-8zM332 758q-46 0 -77.5 31.5t-31.5 77.5t31.5 77.5 t77.5 31.5q45 0 77 -32t32 -77t-32 -77t-77 -32zM289 824q19 -18 43 -18t41.5 18.5t17.5 42.5t-17.5 41.5t-41.5 17.5t-42.5 -17.5t-18.5 -41.5t18 -43z" glyph-name="Aring" horiz-adv-x="665" unicode="Å"/><glyph d="M4 0q-8 0 -12 4t-4 10t4 12l401 643q13 20 19 25q9 6 25 6h381q8 0 13.5 -6t5.5 -13v-29q0 -8 -5.5 -13.5t-13.5 -5.5h-342v-244h293q8 0 13.5 -5.5t5.5 -13.5v-29q0 -8 -6 -13.5t-13 -5.5h-293v-255h342q8 0 13.5 -5.5t5.5 -13.5v-29q0 -8 -5.5 -13.5t-13.5 -5.5h-394 q-8 0 -13.5 6t-5.5 13v157h-237l-104 -165q-2 -3 -8 -7t-11 -4h-41zM204 238h201v328z" glyph-name="AE" horiz-adv-x="889" unicode="Æ"/><glyph d="M52 349q0 98 48 181.5t131 131.5t182 48q72 0 130 -23.5t112 -69.5q7 -7 7 -15q0 -7 -6 -13l-27 -27q-11 -14 -26 1q-40 34 -90.5 54.5t-100.5 20.5q-77 0 -141.5 -39.5t-101 -105.5t-36.5 -143q0 -76 36.5 -142t101 -105.5t141.5 -39.5q59 0 100.5 18.5t90.5 56.5 q14 10 24 3l30 -27q5 -4 5 -12q0 -9 -6 -15q-96 -94 -234 -97l-36 -57q12 4 25 4q35 0 59.5 -20.5t24.5 -62.5t-31.5 -68t-77.5 -26q-52 0 -82 28q-7 7 0 21l8 15q7 14 21 5q20 -20 50 -20q26 0 41 12.5t15 32.5q0 22 -14.5 33.5t-38.5 11.5t-44 -10q-5 -2 -9.5 2.5 t-2.5 10.5l43 90q-67 7 -126 37.5t-102 77.5t-68 110t-25 132z" glyph-name="Ccedilla" horiz-adv-x="706" unicode="Ç"/><glyph d="M96 19v662q0 8 5.5 13.5t13.5 5.5h394q8 0 13.5 -6t5.5 -13v-29q0 -8 -5.5 -13.5t-13.5 -5.5h-336v-244h287q8 0 13.5 -5.5t5.5 -13.5v-29q0 -8 -5.5 -13.5t-13.5 -5.5h-287v-255h336q8 0 13.5 -5.5t5.5 -13.5v-29q0 -8 -5.5 -13.5t-13.5 -5.5h-394q-8 0 -13.5 5.5 t-5.5 13.5zM418 789q-5 -8 -11.5 -12.5t-12.5 -1.5l-170 77q-10 5 -10.5 16.5t5.5 25.5t18.5 19t22.5 -1l156 -95q5 -3 5.5 -11.5t-3.5 -16.5z" glyph-name="Egrave" horiz-adv-x="576" unicode="È"/><glyph d="M96 19v662q0 8 5.5 13.5t13.5 5.5h394q8 0 13.5 -6t5.5 -13v-29q0 -8 -5.5 -13.5t-13.5 -5.5h-336v-244h287q8 0 13.5 -5.5t5.5 -13.5v-29q0 -8 -5.5 -13.5t-13.5 -5.5h-287v-255h336q8 0 13.5 -5.5t5.5 -13.5v-29q0 -8 -5.5 -13.5t-13.5 -5.5h-394q-8 0 -13.5 5.5 t-5.5 13.5zM218 789q-4 8 -3.5 16.5t5.5 11.5l156 95q10 6 22.5 1t18.5 -19t5.5 -25.5t-10.5 -16.5l-170 -77q-6 -3 -12.5 1.5t-11.5 12.5z" glyph-name="Eacute" horiz-adv-x="576" unicode="É"/><glyph d="M96 19v662q0 8 5.5 13.5t13.5 5.5h394q8 0 13.5 -6t5.5 -13v-29q0 -8 -5.5 -13.5t-13.5 -5.5h-336v-244h287q8 0 13.5 -5.5t5.5 -13.5v-29q0 -8 -5.5 -13.5t-13.5 -5.5h-287v-255h336q8 0 13.5 -5.5t5.5 -13.5v-29q0 -8 -5.5 -13.5t-13.5 -5.5h-394q-8 0 -13.5 5.5 t-5.5 13.5zM317 909q6 0 12 -5l122 -97q13 -10 0 -27q-5 -7 -10.5 -10.5t-13.5 1.5l-110 68l-110 -68q-8 -5 -13.5 -1.5t-10.5 10.5q-14 17 0 27l122 97q6 5 12 5z" glyph-name="Ecircumflex" horiz-adv-x="576" unicode="Ê"/><glyph d="M96 19v662q0 8 5.5 13.5t13.5 5.5h394q8 0 13.5 -6t5.5 -13v-29q0 -8 -5.5 -13.5t-13.5 -5.5h-336v-244h287q8 0 13.5 -5.5t5.5 -13.5v-29q0 -8 -5.5 -13.5t-13.5 -5.5h-287v-255h336q8 0 13.5 -5.5t5.5 -13.5v-29q0 -8 -5.5 -13.5t-13.5 -5.5h-394q-8 0 -13.5 5.5 t-5.5 13.5zM417 788q-21 0 -36 15t-15 36q0 22 15 37t36 15q22 0 37 -15t15 -37q0 -21 -15 -36t-37 -15zM206 788q-21 0 -36 15t-15 36q0 22 15 37t36 15q22 0 37 -15t15 -37q0 -21 -15 -36t-37 -15z" glyph-name="Edieresis" horiz-adv-x="576" unicode="Ë"/><glyph d="M95 19v662q0 8 6 13.5t13 5.5h40q8 0 13.5 -6t5.5 -13v-662q0 -8 -6 -13.5t-13 -5.5h-40q-8 0 -13.5 5.5t-5.5 13.5zM231 789q-5 -8 -11.5 -12.5t-12.5 -1.5l-170 77q-10 5 -10.5 16.5t5.5 25.5t18.5 19t22.5 -1l156 -95q5 -3 5.5 -11.5t-3.5 -16.5z" glyph-name="Igrave" horiz-adv-x="270" unicode="Ì"/><glyph d="M96 19v662q0 8 6 13.5t13 5.5h40q8 0 13.5 -6t5.5 -13v-662q0 -8 -6 -13.5t-13 -5.5h-40q-8 0 -13.5 5.5t-5.5 13.5zM32 789q-4 8 -3.5 16.5t5.5 11.5l156 95q10 6 22.5 1t18.5 -19t5.5 -25.5t-10.5 -16.5l-170 -77q-6 -3 -12.5 1.5t-11.5 12.5z" glyph-name="Iacute" horiz-adv-x="270" unicode="Í"/><glyph d="M102 19v662q0 8 6 13.5t13 5.5h40q8 0 13.5 -6t5.5 -13v-662q0 -8 -6 -13.5t-13 -5.5h-40q-8 0 -13.5 5.5t-5.5 13.5zM148 909q6 0 12 -5l122 -97q13 -10 0 -27q-5 -7 -10.5 -10.5t-13.5 1.5l-110 68l-110 -68q-8 -5 -13.5 -1.5t-10.5 10.5q-14 17 0 27l122 97q6 5 12 5z" glyph-name="Icircumflex" horiz-adv-x="270" unicode="Î"/><glyph d="M96 19v662q0 8 6 13.5t13 5.5h40q8 0 13.5 -6t5.5 -13v-662q0 -8 -6 -13.5t-13 -5.5h-40q-8 0 -13.5 5.5t-5.5 13.5zM242 788q-21 0 -36 15t-15 36q0 22 15 37t36 15q22 0 37 -15t15 -37q0 -21 -15 -36t-37 -15zM31 788q-21 0 -36 15t-15 36q0 22 15 37t36 15 q22 0 37 -15t15 -37q0 -21 -15 -36t-37 -15z" glyph-name="Idieresis" horiz-adv-x="270" unicode="Ï"/><glyph d="M96 19v305h-29q-8 0 -13 6t-5 13v7q0 8 5.5 13.5t12.5 5.5h29v312q0 8 5 13.5t13 5.5h224q71 0 136 -28t112 -74.5t75 -111t28 -135.5q0 -96 -47.5 -176.5t-128 -127.5t-175.5 -47h-224q-8 0 -13 5.5t-5 13.5zM172 69h150q124 0 203.5 79.5t79.5 202.5t-80 202t-203 79 h-150v-263h211q8 0 13.5 -5.5t5.5 -13.5v-8q0 -8 -5.5 -13t-13.5 -5h-211v-255z" glyph-name="Eth" horiz-adv-x="742" unicode="Ð"/><glyph d="M96 19v673q0 8 6 13t13 5h15q10 0 16 -8l445 -554h2v533q0 8 5.5 13.5t13.5 5.5h35q8 0 13.5 -6t5.5 -13v-673q0 -8 -6 -13t-13 -5h-8q-10 0 -16 8l-453 565h-1v-544q0 -8 -5.5 -13.5t-13.5 -5.5h-35q-8 0 -13.5 5.5t-5.5 13.5zM266 795l-18 9q-6 2 -6 12q0 4 2 10l6 15 t11.5 23t16 21t25.5 19t33 6q16 0 31 -7.5t25 -18.5t19 -22t18 -18.5t17 -7.5q30 0 45 51q5 16 23 8l16 -8q7 -4 7 -12q0 -2 -3 -14q-28 -81 -89 -81q-18 0 -36 12t-29.5 26t-23.5 25.5t-21 11.5q-10 0 -17.5 -4.5t-12.5 -13.5t-8 -15t-6 -17q-4 -13 -15 -13q-4 0 -10 3z" glyph-name="Ntilde" horiz-adv-x="762" unicode="Ñ"/><glyph d="M100 168q-48 82 -48 181t48 182t130 131t181 48t181.5 -48t130.5 -131t48 -182t-48 -181t-130.5 -130t-181.5 -48t-181 48t-130 130zM145 461q-23 -53 -23 -112t23 -112t62 -92t92 -62t112 -23t112.5 23t92 62t62 92t23.5 112t-23.5 112.5t-62 93t-92 62.5t-112.5 23 t-112 -23t-92 -62.5t-62 -93.5zM518 789q-5 -8 -11.5 -12.5t-12.5 -1.5l-170 77q-10 5 -10.5 16.5t5.5 25.5t18.5 19t22.5 -1l156 -95q5 -3 5.5 -11.5t-3.5 -16.5z" glyph-name="Ograve" horiz-adv-x="823" unicode="Ò"/><glyph d="M100 168q-48 82 -48 181t48 182t130 131t181 48t181.5 -48t130.5 -131t48 -182t-48 -181t-130.5 -130t-181.5 -48t-181 48t-130 130zM145 461q-23 -53 -23 -112t23 -112t62 -92t92 -62t112 -23t112.5 23t92 62t62 92t23.5 112t-23.5 112.5t-62 93t-92 62.5t-112.5 23 t-112 -23t-92 -62.5t-62 -93.5zM318 789q-4 8 -3.5 16.5t5.5 11.5l156 95q10 6 22.5 1t18.5 -19t5.5 -25.5t-10.5 -16.5l-170 -77q-6 -3 -12.5 1.5t-11.5 12.5z" glyph-name="Oacute" horiz-adv-x="823" unicode="Ó"/><glyph d="M100 168q-48 82 -48 181t48 182t130 131t181 48t181.5 -48t130.5 -131t48 -182t-48 -181t-130.5 -130t-181.5 -48t-181 48t-130 130zM145 461q-23 -53 -23 -112t23 -112t62 -92t92 -62t112 -23t112.5 23t92 62t62 92t23.5 112t-23.5 112.5t-62 93t-92 62.5t-112.5 23 t-112 -23t-92 -62.5t-62 -93.5zM417 909q6 0 12 -5l122 -97q13 -10 0 -27q-5 -7 -10.5 -10.5t-13.5 1.5l-110 68l-110 -68q-8 -5 -13.5 -1.5t-10.5 10.5q-14 17 0 27l122 97q6 5 12 5z" glyph-name="Ocircumflex" horiz-adv-x="823" unicode="Ô"/><glyph d="M100 168q-48 82 -48 181t48 182t130 131t181 48t181.5 -48t130.5 -131t48 -182t-48 -181t-130.5 -130t-181.5 -48t-181 48t-130 130zM145 461q-23 -53 -23 -112t23 -112t62 -92t92 -62t112 -23t112.5 23t92 62t62 92t23.5 112t-23.5 112.5t-62 93t-92 62.5t-112.5 23 t-112 -23t-92 -62.5t-62 -93.5zM284 795l-18 9q-6 2 -6 12q0 4 2 10l6 15t11.5 23t16 21t25.5 19t33 6q16 0 31 -7.5t25 -18.5t19 -22t18 -18.5t17 -7.5q30 0 45 51q5 16 23 8l16 -8q7 -4 7 -12q0 -2 -3 -14q-28 -81 -89 -81q-18 0 -36 12t-29.5 26t-23.5 25.5t-21 11.5 q-10 0 -17.5 -4.5t-12.5 -13.5t-8 -15t-6 -17q-4 -13 -15 -13q-4 0 -10 3z" glyph-name="Otilde" horiz-adv-x="823" unicode="Õ"/><glyph d="M100 168q-48 82 -48 181t48 182t130 131t181 48t181.5 -48t130.5 -131t48 -182t-48 -181t-130.5 -130t-181.5 -48t-181 48t-130 130zM145 461q-23 -53 -23 -112t23 -112t62 -92t92 -62t112 -23t112.5 23t92 62t62 92t23.5 112t-23.5 112.5t-62 93t-92 62.5t-112.5 23 t-112 -23t-92 -62.5t-62 -93.5zM517 788q-21 0 -36 15t-15 36q0 22 15 37t36 15q22 0 37 -15t15 -37q0 -21 -15 -36t-37 -15zM306 788q-21 0 -36 15t-15 36q0 22 15 37t36 15q22 0 37 -15t15 -37q0 -21 -15 -36t-37 -15z" glyph-name="Odieresis" horiz-adv-x="823" unicode="Ö"/><glyph d="M160 190l-20 20q-5 5 -5 13t5 13l111 111l-111 111q-5 5 -5 14q0 8 5 13l19 20q5 5 13 5q9 0 14 -5l111 -111l112 112q5 5 12 5q8 0 14 -6l20 -20q6 -6 6 -14q0 -7 -5 -12l-112 -112l112 -111q5 -6 5 -13q0 -8 -6 -14l-20 -19q-6 -6 -14 -6q-7 0 -12 5l-112 112 l-111 -111q-5 -5 -13 -5t-13 5z" glyph-name="multiply" unicode="×"/><glyph d="M82 22q-6 6 -6 13t5 13l61 61q-90 103 -90 240q0 98 48 181.5t130 131.5t181 48q68 0 129.5 -24t110.5 -67l63 63q5 5 13 5t13 -5l5 -5q5 -5 5 -13t-5 -13l-63 -63q42 -49 65.5 -110.5t23.5 -128.5q0 -98 -48 -180.5t-130.5 -130.5t-181.5 -48q-137 0 -238 88l-61 -61 q-6 -5 -13 -5t-13 6zM193 160l408 409q-82 71 -190 71q-58 0 -111.5 -23t-92.5 -62.5t-62 -93t-23 -112.5q0 -107 71 -189zM224 129q80 -69 187 -69q58 0 112 23t92.5 62t62 92t23.5 112q0 52 -18.5 101t-51.5 87z" glyph-name="Oslash" horiz-adv-x="823" unicode="Ø"/><glyph d="M89 254v427q0 8 5.5 13.5t13.5 5.5h38q8 0 13.5 -6t5.5 -13v-421q0 -88 51 -143.5t137 -55.5q87 0 138.5 55t51.5 142v423q0 8 5.5 13.5t13.5 5.5h38q8 0 13.5 -6t5.5 -13v-427q0 -115 -74.5 -189.5t-191.5 -74.5t-190.5 74.5t-73.5 189.5zM449 789q-5 -8 -11.5 -12.5 t-12.5 -1.5l-170 77q-10 5 -10.5 16.5t5.5 25.5t18.5 19t22.5 -1l156 -95q5 -3 5.5 -11.5t-3.5 -16.5z" glyph-name="Ugrave" horiz-adv-x="708" unicode="Ù"/><glyph d="M89 254v427q0 8 5.5 13.5t13.5 5.5h38q8 0 13.5 -6t5.5 -13v-421q0 -88 51 -143.5t137 -55.5q87 0 138.5 55t51.5 142v423q0 8 5.5 13.5t13.5 5.5h38q8 0 13.5 -6t5.5 -13v-427q0 -115 -74.5 -189.5t-191.5 -74.5t-190.5 74.5t-73.5 189.5zM249 789q-4 8 -3.5 16.5 t5.5 11.5l156 95q10 6 22.5 1t18.5 -19t5.5 -25.5t-10.5 -16.5l-170 -77q-6 -3 -12.5 1.5t-11.5 12.5z" glyph-name="Uacute" horiz-adv-x="708" unicode="Ú"/><glyph d="M89 254v427q0 8 5.5 13.5t13.5 5.5h38q8 0 13.5 -6t5.5 -13v-421q0 -88 51 -143.5t137 -55.5q87 0 138.5 55t51.5 142v423q0 8 5.5 13.5t13.5 5.5h38q8 0 13.5 -6t5.5 -13v-427q0 -115 -74.5 -189.5t-191.5 -74.5t-190.5 74.5t-73.5 189.5zM355 909q6 0 12 -5l122 -97 q13 -10 0 -27q-5 -7 -10.5 -10.5t-13.5 1.5l-110 68l-110 -68q-8 -5 -13.5 -1.5t-10.5 10.5q-14 17 0 27l122 97q6 5 12 5z" glyph-name="Ucircumflex" horiz-adv-x="708" unicode="Û"/><glyph d="M89 254v427q0 8 5.5 13.5t13.5 5.5h38q8 0 13.5 -6t5.5 -13v-421q0 -88 51 -143.5t137 -55.5q87 0 138.5 55t51.5 142v423q0 8 5.5 13.5t13.5 5.5h38q8 0 13.5 -6t5.5 -13v-427q0 -115 -74.5 -189.5t-191.5 -74.5t-190.5 74.5t-73.5 189.5zM458 788q-21 0 -36 15t-15 36 q0 22 15 37t36 15q22 0 37 -15t15 -37q0 -21 -15 -36t-37 -15zM247 788q-21 0 -36 15t-15 36q0 22 15 37t36 15q22 0 37 -15t15 -37q0 -21 -15 -36t-37 -15z" glyph-name="Udieresis" horiz-adv-x="708" unicode="Ü"/><glyph d="M243 19v318l-241 334q-3 4 -3 10q0 8 5 13.5t14 5.5h47q9 0 16 -9l202 -279l202 279q7 9 16 9h47q9 0 14 -5t5 -13q0 -6 -3 -11l-244 -333v-319q0 -8 -5.5 -13.5t-13.5 -5.5h-39q-8 0 -13.5 5.5t-5.5 13.5zM185 789q-4 8 -3.5 16.5t5.5 11.5l156 95q10 6 22.5 1t18.5 -19 t5.5 -25.5t-10.5 -16.5l-170 -77q-6 -3 -12.5 1.5t-11.5 12.5z" glyph-name="Yacute" horiz-adv-x="574" unicode="Ý"/><glyph d="M96 19v661q0 8 5.5 14t13.5 6h38q8 0 13.5 -6t5.5 -13v-107h164h2q91 0 156.5 -65.5t65.5 -155.5q0 -93 -66 -159t-157 -66h-165v-109q0 -8 -6 -13.5t-13 -5.5h-38q-8 0 -13.5 5.5t-5.5 13.5zM172 202h159q62 0 107 44.5t45 108.5q0 60 -45 101.5t-107 41.5h-159v-296z" glyph-name="Thorn" horiz-adv-x="593" unicode="Þ"/><glyph d="M78 21v401q0 288 214 288q79 0 129.5 -45t50.5 -121q0 -34 -11 -66.5t-24 -51.5t-24 -38.5t-11 -30.5q0 -9 13.5 -22t33 -29t38.5 -37t32.5 -53t13.5 -70q0 -74 -46.5 -115.5t-118.5 -41.5q-67 0 -99 15q-6 2 -9 4t-6 6t-3 9q0 4 1 6l9 33q4 15 14 15q6 0 10 -2 q40 -19 83 -19q41 0 65.5 25.5t24.5 65.5q0 26 -14.5 49.5t-35 41.5t-41 34.5t-35 37.5t-14.5 44q0 18 12.5 41.5t27.5 43.5t27.5 47.5t12.5 53.5q0 45 -30.5 74t-76.5 29q-74 0 -106.5 -55.5t-32.5 -166.5v-400q0 -8 -6.5 -14.5t-14.5 -6.5h-32q-8 0 -14.5 6.5t-6.5 14.5z" glyph-name="germandbls" horiz-adv-x="579" unicode="ß"/><glyph d="M42 140q0 33 12 61t35.5 48.5t58 32t79.5 11.5q18 0 36 -2.5t32 -5.5q17 -4 31 -7q1 64 -27.5 95.5t-78.5 31.5q-38 0 -64.5 -11t-42.5 -16q-9 -4 -14 0t-8 12l-10 27q-3 11 1.5 16t12.5 9q17 8 49 19t80 11q89 0 131 -50t42 -144v-264q0 -18 -18 -18q-23 0 -35 15.5 t-14 38.5q-9 -9 -22.5 -20t-32 -20t-41 -15t-49.5 -6q-30 0 -56.5 10.5t-45.5 30t-30 47.5t-11 63zM115 140q0 -35 22.5 -59.5t60.5 -24.5q43 0 77.5 19.5t49.5 42.5v94q-11 6 -37 12t-61 6q-48 0 -80 -22.5t-32 -67.5zM336 567q-5 -8 -11.5 -12.5t-12.5 -1.5l-170 77 q-10 5 -10.5 16.5t5.5 25.5q7 14 19 19t22 -1l156 -95q5 -3 5.5 -11.5t-3.5 -16.5z" glyph-name="agrave" horiz-adv-x="471" unicode="à"/><glyph d="M42 140q0 33 12 61t35.5 48.5t58 32t79.5 11.5q18 0 36 -2.5t32 -5.5q17 -4 31 -7q1 64 -27.5 95.5t-78.5 31.5q-38 0 -64.5 -11t-42.5 -16q-9 -4 -14 0t-8 12l-10 27q-3 11 1.5 16t12.5 9q17 8 49 19t80 11q89 0 131 -50t42 -144v-264q0 -18 -18 -18q-23 0 -35 15.5 t-14 38.5q-9 -9 -22.5 -20t-32 -20t-41 -15t-49.5 -6q-30 0 -56.5 10.5t-45.5 30t-30 47.5t-11 63zM115 140q0 -35 22.5 -59.5t60.5 -24.5q43 0 77.5 19.5t49.5 42.5v94q-11 6 -37 12t-61 6q-48 0 -80 -22.5t-32 -67.5zM134 567q-4 8 -3.5 16.5t5.5 11.5l156 95q10 6 22 1 t19 -19q6 -14 5.5 -25.5t-10.5 -16.5l-170 -77q-6 -3 -12.5 1.5t-11.5 12.5z" glyph-name="aacute" horiz-adv-x="471" unicode="á"/><glyph d="M42 140q0 33 12 61t35.5 48.5t58 32t79.5 11.5q18 0 36 -2.5t32 -5.5q17 -4 31 -7q1 64 -27.5 95.5t-78.5 31.5q-38 0 -64.5 -11t-42.5 -16q-9 -4 -14 0t-8 12l-10 27q-3 11 1.5 16t12.5 9q17 8 49 19t80 11q89 0 131 -50t42 -144v-264q0 -18 -18 -18q-23 0 -35 15.5 t-14 38.5q-9 -9 -22.5 -20t-32 -20t-41 -15t-49.5 -6q-30 0 -56.5 10.5t-45.5 30t-30 47.5t-11 63zM115 140q0 -35 22.5 -59.5t60.5 -24.5q43 0 77.5 19.5t49.5 42.5v94q-11 6 -37 12t-61 6q-48 0 -80 -22.5t-32 -67.5zM236 690q6 0 12 -5l122 -97q13 -10 0 -27 q-5 -7 -10.5 -10.5t-13.5 1.5l-110 68l-110 -68q-8 -5 -13.5 -1.5t-10.5 10.5q-14 17 0 27l122 97q6 5 12 5z" glyph-name="acircumflex" horiz-adv-x="471" unicode="â"/><glyph d="M42 140q0 33 12 61t35.5 48.5t58 32t79.5 11.5q18 0 36 -2.5t32 -5.5q17 -4 31 -7q1 64 -27.5 95.5t-78.5 31.5q-38 0 -64.5 -11t-42.5 -16q-9 -4 -14 0t-8 12l-10 27q-3 11 1.5 16t12.5 9q17 8 49 19t80 11q89 0 131 -50t42 -144v-264q0 -18 -18 -18q-23 0 -35 15.5 t-14 38.5q-9 -9 -22.5 -20t-32 -20t-41 -15t-49.5 -6q-30 0 -56.5 10.5t-45.5 30t-30 47.5t-11 63zM115 140q0 -35 22.5 -59.5t60.5 -24.5q43 0 77.5 19.5t49.5 42.5v94q-11 6 -37 12t-61 6q-48 0 -80 -22.5t-32 -67.5zM102 575l-18 9q-6 2 -6 12q0 4 2 10l6 15t11.5 23 t16 21t25.5 19t33 6q16 0 31 -7.5t25 -18.5t19 -22t18 -18.5t17 -7.5q30 0 45 51q5 16 23 8l16 -8q7 -4 7 -12q0 -2 -3 -14q-28 -81 -89 -81q-18 0 -36 12t-29.5 26t-23.5 25.5t-21 11.5q-10 0 -17.5 -4.5t-12.5 -13.5t-8 -15t-6 -17q-4 -13 -15 -13q-4 0 -10 3z" glyph-name="atilde" horiz-adv-x="471" unicode="ã"/><glyph d="M42 140q0 33 12 61t35.5 48.5t58 32t79.5 11.5q18 0 36 -2.5t32 -5.5q17 -4 31 -7q1 64 -27.5 95.5t-78.5 31.5q-38 0 -64.5 -11t-42.5 -16q-9 -4 -14 0t-8 12l-10 27q-3 11 1.5 16t12.5 9q17 8 49 19t80 11q89 0 131 -50t42 -144v-264q0 -18 -18 -18q-23 0 -35 15.5 t-14 38.5q-9 -9 -22.5 -20t-32 -20t-41 -15t-49.5 -6q-30 0 -56.5 10.5t-45.5 30t-30 47.5t-11 63zM115 140q0 -35 22.5 -59.5t60.5 -24.5q43 0 77.5 19.5t49.5 42.5v94q-11 6 -37 12t-61 6q-48 0 -80 -22.5t-32 -67.5zM337 581q-21 0 -36 15t-15 36q0 22 15 37t36 15 q22 0 37 -15t15 -37q0 -21 -15 -36t-37 -15zM144 581q-21 0 -36 15t-15 36q0 22 15 37t36 15q22 0 37 -15t15 -37q0 -21 -15 -36t-37 -15z" glyph-name="adieresis" horiz-adv-x="471" unicode="ä"/><glyph d="M42 140q0 33 12 61t35.5 48.5t58 32t79.5 11.5q18 0 36 -2.5t32 -5.5q17 -4 31 -7q1 64 -27.5 95.5t-78.5 31.5q-38 0 -64.5 -11t-42.5 -16q-9 -4 -14 0t-8 12l-10 27q-3 11 1.5 16t12.5 9q17 8 49 19t80 11q89 0 131 -50t42 -144v-264q0 -18 -18 -18q-23 0 -35 15.5 t-14 38.5q-9 -9 -22.5 -20t-32 -20t-41 -15t-49.5 -6q-30 0 -56.5 10.5t-45.5 30t-30 47.5t-11 63zM115 140q0 -35 22.5 -59.5t60.5 -24.5q43 0 77.5 19.5t49.5 42.5v94q-11 6 -37 12t-61 6q-48 0 -80 -22.5t-32 -67.5zM229 513q-46 0 -77.5 31.5t-31.5 77.5t31.5 77.5 t77.5 31.5q45 0 77 -32t32 -77t-32 -77t-77 -32zM186 579q19 -18 43 -18t41.5 18.5t17.5 42.5t-17.5 41.5t-41.5 17.5t-42.5 -17.5t-18.5 -41.5t18 -43z" glyph-name="aring" horiz-adv-x="471" unicode="å"/><glyph d="M43 142q0 66 46 108t125 42q55 0 111 -6v15q0 58 -14.5 81t-55.5 23q-11 0 -21.5 -0.5t-21 -1.5t-18.5 -2.5t-18 -4t-16 -3.5t-16 -4t-13.5 -4t-12 -4t-10.5 -3q-2 -1 -6 -1q-14 0 -18 17l-6 28q-2 7 3 13.5t16 9.5q30 11 75.5 19t86.5 8q56 0 84.5 -16t41.5 -47 q30 30 69.5 46.5t84.5 16.5q88 0 148 -58t60 -152q0 -14 -1 -23t-6.5 -17t-15.5 -8h-327v-75q22 -38 62.5 -60.5t86.5 -22.5q61 0 118 38q14 9 19 9q8 0 14 -9l16 -23q7 -9 7 -13q0 -6 -12 -16q-28 -20 -72 -36.5t-98 -16.5q-112 0 -174 82q-27 -34 -72.5 -58t-96.5 -24 q-68 0 -110 41.5t-42 111.5zM399 274h269q0 56 -38 93.5t-92 37.5q-42 0 -80.5 -22.5t-58.5 -55.5v-53zM117 141q0 -42 27.5 -63.5t65.5 -21.5q34 0 67 18t48 42v106q-38 9 -99 9q-46 0 -77.5 -24.5t-31.5 -65.5z" glyph-name="ae" horiz-adv-x="790" unicode="æ"/><glyph d="M48 230q0 66 32 122t85.5 88t116.5 32q102 0 168 -76q6 -8 6 -14q0 -10 -10 -19l-16 -15q-8 -6 -13 -6q-9 0 -20 13q-44 50 -116 50q-65 0 -111.5 -52t-46.5 -122t45.5 -122.5t109.5 -52.5q25 0 44.5 5t35.5 17t24 20t22 24q8 10 17 10l22 -12l6 -6q10 -10 10 -19 q0 -8 -4 -13q-28 -40 -70.5 -65t-93.5 -28l-36 -56q12 4 25 4q35 0 59.5 -20.5t24.5 -62.5t-32 -68t-77 -26q-52 0 -82 28q-7 7 0 21l8 15q7 14 21 5q20 -20 50 -20q26 0 41 12.5t15 32.5q0 22 -14 33.5t-39 11.5q-24 0 -44 -10q-5 -2 -10 2.5t-2 10.5l43 90q-84 14 -139 80 t-55 158z" glyph-name="ccedilla" horiz-adv-x="500" unicode="ç"/><glyph d="M49 231q0 101 61.5 171t162.5 70q90 0 149.5 -59.5t59.5 -150.5q0 -12 -2 -28q0 -8 -6.5 -14t-14.5 -6h-336q2 -60 46 -109t105 -49q67 0 125 38q13 10 20 10q6 0 15 -13l12 -17q8 -12 8 -17q0 -6 -12 -15q-26 -20 -70.5 -36.5t-98.5 -16.5q-68 0 -119.5 33.5t-78 88 t-26.5 120.5zM124 273h284q-2 53 -40 92.5t-95 39.5t-99.5 -38.5t-49.5 -93.5zM357 567q-5 -8 -11.5 -12.5t-12.5 -1.5l-170 77q-10 5 -10.5 16.5t5.5 25.5q7 14 19 19t22 -1l156 -95q5 -3 5.5 -11.5t-3.5 -16.5z" glyph-name="egrave" horiz-adv-x="525" unicode="è"/><glyph d="M49 231q0 101 61.5 171t162.5 70q90 0 149.5 -59.5t59.5 -150.5q0 -12 -2 -28q0 -8 -6.5 -14t-14.5 -6h-336q2 -60 46 -109t105 -49q67 0 125 38q13 10 20 10q6 0 15 -13l12 -17q8 -12 8 -17q0 -6 -12 -15q-26 -20 -70.5 -36.5t-98.5 -16.5q-68 0 -119.5 33.5t-78 88 t-26.5 120.5zM124 273h284q-2 53 -40 92.5t-95 39.5t-99.5 -38.5t-49.5 -93.5zM173 567q-4 8 -3.5 16.5t5.5 11.5l156 95q10 6 22 1t19 -19q6 -14 5.5 -25.5t-10.5 -16.5l-170 -77q-6 -3 -12.5 1.5t-11.5 12.5z" glyph-name="eacute" horiz-adv-x="525" unicode="é"/><glyph d="M49 231q0 101 61.5 171t162.5 70q90 0 149.5 -59.5t59.5 -150.5q0 -12 -2 -28q0 -8 -6.5 -14t-14.5 -6h-336q2 -60 46 -109t105 -49q67 0 125 38q13 10 20 10q6 0 15 -13l12 -17q8 -12 8 -17q0 -6 -12 -15q-26 -20 -70.5 -36.5t-98.5 -16.5q-68 0 -119.5 33.5t-78 88 t-26.5 120.5zM124 273h284q-2 53 -40 92.5t-95 39.5t-99.5 -38.5t-49.5 -93.5zM284 690q6 0 12 -5l122 -97q13 -10 0 -27q-5 -7 -10.5 -10.5t-13.5 1.5l-110 68l-110 -68q-8 -5 -13.5 -1.5t-10.5 10.5q-14 17 0 27l122 97q6 5 12 5z" glyph-name="ecircumflex" horiz-adv-x="525" unicode="ê"/><glyph d="M49 231q0 101 61.5 171t162.5 70q90 0 149.5 -59.5t59.5 -150.5q0 -12 -2 -28q0 -8 -6.5 -14t-14.5 -6h-336q2 -60 46 -109t105 -49q67 0 125 38q13 10 20 10q6 0 15 -13l12 -17q8 -12 8 -17q0 -6 -12 -15q-26 -20 -70.5 -36.5t-98.5 -16.5q-68 0 -119.5 33.5t-78 88 t-26.5 120.5zM124 273h284q-2 53 -40 92.5t-95 39.5t-99.5 -38.5t-49.5 -93.5zM370 581q-21 0 -36 15t-15 36q0 22 15 37t36 15q22 0 37 -15t15 -37q0 -21 -15 -36t-37 -15zM177 581q-21 0 -36 15t-15 36q0 22 15 37t36 15q22 0 37 -15t15 -37q0 -21 -15 -36t-37 -15z" glyph-name="edieresis" horiz-adv-x="525" unicode="ë"/><glyph d="M78 22v418q0 8 6.5 15t15.5 7h30q8 0 15 -7t7 -15v-418q0 -9 -7 -15.5t-15 -6.5h-30q-9 0 -15.5 6.5t-6.5 15.5zM218 567q-5 -8 -11.5 -12.5t-12.5 -1.5l-170 77q-10 5 -10.5 16.5t5.5 25.5q7 14 19 19t22 -1l156 -95q5 -3 5.5 -11.5t-3.5 -16.5z" glyph-name="igrave" horiz-adv-x="230" unicode="ì"/><glyph d="M78 22v418q0 8 6.5 15t15.5 7h30q8 0 15 -7t7 -15v-418q0 -9 -7 -15.5t-15 -6.5h-30q-9 0 -15.5 6.5t-6.5 15.5zM15 567q-4 8 -3.5 16.5t5.5 11.5l156 95q10 6 22 1t19 -19q6 -14 5.5 -25.5t-10.5 -16.5l-170 -77q-6 -3 -12.5 1.5t-11.5 12.5z" glyph-name="iacute" horiz-adv-x="230" unicode="í"/><glyph d="M84 22v418q0 8 6.5 15t15.5 7h30q8 0 15 -7t7 -15v-418q0 -9 -7 -15.5t-15 -6.5h-30q-9 0 -15.5 6.5t-6.5 15.5zM131 690q6 0 12 -5l122 -97q13 -10 0 -27q-5 -7 -10.5 -10.5t-13.5 1.5l-110 68l-110 -68q-8 -5 -13.5 -1.5t-10.5 10.5q-14 17 0 27l122 97q6 5 12 5z" glyph-name="icircumflex" horiz-adv-x="230" unicode="î"/><glyph d="M78 22v418q0 8 6.5 15t15.5 7h30q8 0 15 -7t7 -15v-418q0 -9 -7 -15.5t-15 -6.5h-30q-9 0 -15.5 6.5t-6.5 15.5zM213 581q-21 0 -36 15t-15 36q0 22 15 37t36 15q22 0 37 -15t15 -37q0 -21 -15 -36t-37 -15zM20 581q-21 0 -36 15t-15 36q0 22 15 37t36 15q22 0 37 -15 t15 -37q0 -21 -15 -36t-37 -15z" glyph-name="idieresis" horiz-adv-x="230" unicode="ï"/><glyph d="M50 226q0 66 31 118t81.5 78.5t109.5 26.5q43 0 86.5 -14t69.5 -32q-24 93 -132 177l-100 -58q-7 -4 -14.5 -1.5t-10.5 8.5l-4 8q-8 16 6 25l82 48q-60 38 -102 54q-17 7 -8 25l13 28q3 8 14 8q5 0 7 -1q70 -25 142 -76l72 41q8 4 15.5 2t11.5 -9l4 -7q4 -7 2 -14t-9 -12 l-56 -32q157 -136 157 -334q0 -63 -14 -115t-43 -92.5t-75.5 -63t-107.5 -22.5q-99 0 -163.5 68.5t-64.5 167.5zM123 221q0 -66 45.5 -114.5t109.5 -48.5q35 0 63.5 13t47.5 33.5t32 48t19 57t6 59.5q0 16 -4 46q-28 28 -73 47.5t-90 19.5q-66 0 -111 -46.5t-45 -114.5z" glyph-name="eth" horiz-adv-x="577" unicode="ð"/><glyph d="M78 448q0 18 18 18q22 0 34 -14.5t14 -37.5q22 19 61.5 38.5t93.5 19.5q50 0 82.5 -15.5t51 -43t26 -65t7.5 -82.5v-244q0 -9 -7 -15.5t-15 -6.5h-30q-9 0 -15.5 6.5t-6.5 15.5v254q0 66 -23.5 97.5t-74.5 31.5q-33 0 -59 -10t-45 -22q-22 -14 -38 -32v-319 q0 -9 -7 -15.5t-15 -6.5h-30q-9 0 -15.5 6.5t-6.5 15.5v426zM147 575l-18 9q-6 2 -6 12q0 4 2 10l6 15t11.5 23t16 21t25.5 19t33 6q16 0 31 -7.5t25 -18.5t19 -22t18 -18.5t17 -7.5q30 0 45 51q5 16 23 8l16 -8q7 -4 7 -12q0 -2 -3 -14q-28 -81 -89 -81q-18 0 -36 12 t-29.5 26t-23.5 25.5t-21 11.5q-10 0 -17.5 -4.5t-12.5 -13.5t-8 -15t-6 -17q-4 -13 -15 -13q-4 0 -10 3z" glyph-name="ntilde" horiz-adv-x="539" unicode="ñ"/><glyph d="M48 232q0 64 31 119t84.5 88t116.5 33t116.5 -33t84.5 -88t31 -119q0 -65 -31 -121t-84.5 -89t-116.5 -33t-116.5 33t-84.5 89t-31 121zM122 232q-1 -73 44.5 -124.5t113.5 -51.5t113 51.5t45 124.5q0 72 -45 122.5t-113 50.5t-113.5 -50.5t-44.5 -122.5zM377 567 q-5 -8 -11.5 -12.5t-12.5 -1.5l-170 77q-10 5 -10.5 16.5t5.5 25.5q7 14 19 19t22 -1l156 -95q5 -3 5.5 -11.5t-3.5 -16.5z" glyph-name="ograve" horiz-adv-x="560" unicode="ò"/><glyph d="M48 232q0 64 31 119t84.5 88t116.5 33t116.5 -33t84.5 -88t31 -119q0 -65 -31 -121t-84.5 -89t-116.5 -33t-116.5 33t-84.5 89t-31 121zM122 232q-1 -73 44.5 -124.5t113.5 -51.5t113 51.5t45 124.5q0 72 -45 122.5t-113 50.5t-113.5 -50.5t-44.5 -122.5zM175 567 q-4 8 -3.5 16.5t5.5 11.5l156 95q10 6 22 1t19 -19q6 -14 5.5 -25.5t-10.5 -16.5l-170 -77q-6 -3 -12.5 1.5t-11.5 12.5z" glyph-name="oacute" horiz-adv-x="560" unicode="ó"/><glyph d="M48 232q0 64 31 119t84.5 88t116.5 33t116.5 -33t84.5 -88t31 -119q0 -65 -31 -121t-84.5 -89t-116.5 -33t-116.5 33t-84.5 89t-31 121zM122 232q-1 -73 44.5 -124.5t113.5 -51.5t113 51.5t45 124.5q0 72 -45 122.5t-113 50.5t-113.5 -50.5t-44.5 -122.5zM283 690 q6 0 12 -5l122 -97q13 -10 0 -27q-5 -7 -10.5 -10.5t-13.5 1.5l-110 68l-110 -68q-8 -5 -13.5 -1.5t-10.5 10.5q-14 17 0 27l122 97q6 5 12 5z" glyph-name="ocircumflex" horiz-adv-x="560" unicode="ô"/><glyph d="M48 232q0 64 31 119t84.5 88t116.5 33t116.5 -33t84.5 -88t31 -119q0 -65 -31 -121t-84.5 -89t-116.5 -33t-116.5 33t-84.5 89t-31 121zM122 232q-1 -73 44.5 -124.5t113.5 -51.5t113 51.5t45 124.5q0 72 -45 122.5t-113 50.5t-113.5 -50.5t-44.5 -122.5zM152 575l-18 9 q-6 2 -6 12q0 4 2 10l6 15t11.5 23t16 21t25.5 19t33 6q16 0 31 -7.5t25 -18.5t19 -22t18 -18.5t17 -7.5q30 0 45 51q5 16 23 8l16 -8q7 -4 7 -12q0 -2 -3 -14q-28 -81 -89 -81q-18 0 -36 12t-29.5 26t-23.5 25.5t-21 11.5q-10 0 -17.5 -4.5t-12.5 -13.5t-8 -15t-6 -17 q-4 -13 -15 -13q-4 0 -10 3z" glyph-name="otilde" horiz-adv-x="560" unicode="õ"/><glyph d="M48 232q0 64 31 119t84.5 88t116.5 33t116.5 -33t84.5 -88t31 -119q0 -65 -31 -121t-84.5 -89t-116.5 -33t-116.5 33t-84.5 89t-31 121zM122 232q-1 -73 44.5 -124.5t113.5 -51.5t113 51.5t45 124.5q0 72 -45 122.5t-113 50.5t-113.5 -50.5t-44.5 -122.5zM374 581 q-21 0 -36 15t-15 36q0 22 15 37t36 15q22 0 37 -15t15 -37q0 -21 -15 -36t-37 -15zM181 581q-21 0 -36 15t-15 36q0 22 15 37t36 15q22 0 37 -15t15 -37q0 -21 -15 -36t-37 -15z" glyph-name="odieresis" horiz-adv-x="560" unicode="ö"/><glyph d="M110 314q-8 0 -13.5 6t-5.5 13v28q0 8 5.5 13.5t13.5 5.5h381q8 0 13 -6t5 -13v-28q0 -8 -5.5 -13.5t-12.5 -5.5h-381zM297 114q-23 0 -40 17t-17 40q0 24 16.5 40.5t40.5 16.5t40.5 -16.5t16.5 -40.5t-16.5 -40.5t-40.5 -16.5zM297 472q-23 0 -40 17t-17 40 q0 24 16.5 40.5t40.5 16.5t40.5 -16.5t16.5 -40.5t-16.5 -40.5t-40.5 -16.5z" glyph-name="divide" unicode="÷"/><glyph d="M48 232q0 64 31 119t84.5 88t116.5 33q84 0 148 -56l24 24q7 7 16 7t16 -7l5 -5q8 -8 8 -15q0 -8 -8 -16l-26 -26q49 -65 49 -146q0 -65 -31 -121t-84.5 -89t-116.5 -33q-82 0 -147 55l-17 -17q-6 -6 -15 -6q-8 0 -16 6l-4 7q-8 6 -8 15q0 8 7 15l18 18q-50 64 -50 150z M120 232q0 -56 27 -100l233 235q-44 38 -100 38q-68 0 -114 -50.5t-46 -122.5zM439 232q0 50 -26 95l-232 -234q44 -37 99 -37q68 0 113.5 51.5t45.5 124.5z" glyph-name="oslash" horiz-adv-x="559" unicode="ø"/><glyph d="M73 440q0 8 6 15t16 7h30q9 0 15.5 -7t6.5 -15v-250q0 -69 23 -101.5t74 -32.5q26 0 46.5 7t37 17.5t28 22t19.5 20.5v317q0 8 6 15t15 7h31q8 0 14.5 -7t6.5 -15v-426q0 -18 -18 -18q-23 0 -35 15t-14 38q-20 -21 -54 -40.5t-89 -19.5q-50 0 -82 14.5t-50.5 41 t-25.5 63.5t-7 83v249zM363 567q-5 -8 -11.5 -12.5t-12.5 -1.5l-170 77q-10 5 -10.5 16.5t5.5 25.5q7 14 19 19t22 -1l156 -95q5 -3 5.5 -11.5t-3.5 -16.5z" glyph-name="ugrave" horiz-adv-x="526" unicode="ù"/><glyph d="M73 440q0 8 6 15t16 7h30q9 0 15.5 -7t6.5 -15v-250q0 -69 23 -101.5t74 -32.5q26 0 46.5 7t37 17.5t28 22t19.5 20.5v317q0 8 6 15t15 7h31q8 0 14.5 -7t6.5 -15v-426q0 -18 -18 -18q-23 0 -35 15t-14 38q-20 -21 -54 -40.5t-89 -19.5q-50 0 -82 14.5t-50.5 41 t-25.5 63.5t-7 83v249zM168 567q-4 8 -3.5 16.5t5.5 11.5l156 95q10 6 22 1t19 -19q6 -14 5.5 -25.5t-10.5 -16.5l-170 -77q-6 -3 -12.5 1.5t-11.5 12.5z" glyph-name="uacute" horiz-adv-x="526" unicode="ú"/><glyph d="M73 440q0 8 6 15t16 7h30q9 0 15.5 -7t6.5 -15v-250q0 -69 23 -101.5t74 -32.5q26 0 46.5 7t37 17.5t28 22t19.5 20.5v317q0 8 6 15t15 7h31q8 0 14.5 -7t6.5 -15v-426q0 -18 -18 -18q-23 0 -35 15t-14 38q-20 -21 -54 -40.5t-89 -19.5q-50 0 -82 14.5t-50.5 41 t-25.5 63.5t-7 83v249zM272 690q6 0 12 -5l122 -97q13 -10 0 -27q-5 -7 -10.5 -10.5t-13.5 1.5l-110 68l-110 -68q-8 -5 -13.5 -1.5t-10.5 10.5q-14 17 0 27l122 97q6 5 12 5z" glyph-name="ucircumflex" horiz-adv-x="526" unicode="û"/><glyph d="M73 440q0 8 6 15t16 7h30q9 0 15.5 -7t6.5 -15v-250q0 -69 23 -101.5t74 -32.5q26 0 46.5 7t37 17.5t28 22t19.5 20.5v317q0 8 6 15t15 7h31q8 0 14.5 -7t6.5 -15v-426q0 -18 -18 -18q-23 0 -35 15t-14 38q-20 -21 -54 -40.5t-89 -19.5q-50 0 -82 14.5t-50.5 41 t-25.5 63.5t-7 83v249zM361 581q-21 0 -36 15t-15 36q0 22 15 37t36 15q22 0 37 -15t15 -37q0 -21 -15 -36t-37 -15zM168 581q-21 0 -36 15t-15 36q0 22 15 37t36 15q22 0 37 -15t15 -37q0 -21 -15 -36t-37 -15z" glyph-name="udieresis" horiz-adv-x="526" unicode="ü"/><glyph d="M136 -238q-14 0 -19 8t0 20l87 206l-171 441q-10 25 18 25h42q15 0 20 -13l131 -367h2l156 367q5 13 20 13h37q14 0 18.5 -7.5t-0.5 -18.5l-289 -660q-2 -5 -8 -9.5t-12 -4.5h-32v0zM139 567q-4 8 -3.5 16.5t5.5 11.5l156 95q10 6 22 1t19 -19q6 -14 5.5 -25.5 t-10.5 -16.5l-170 -77q-6 -3 -12.5 1.5t-11.5 12.5z" glyph-name="yacute" horiz-adv-x="500" unicode="ý"/><glyph d="M151 27v-243q0 -9 -6.5 -15.5t-15.5 -6.5h-29q-9 0 -15.5 6.5t-6.5 15.5v894q0 8 6.5 15t15.5 7h29q8 0 15 -7t7 -15v-250q19 18 55 31t76 13q48 0 89 -19t68.5 -52t42.5 -77t15 -94q0 -103 -61.5 -172t-156.5 -69q-37 0 -72.5 11.5t-55.5 26.5zM152 348v-250 q21 -17 53.5 -29.5t62.5 -12.5q68 0 111 48t43 127q0 72 -39 123t-110 51q-34 0 -67.5 -16.5t-53.5 -40.5z" glyph-name="thorn" horiz-adv-x="546" unicode="þ"/><glyph d="M136 -238q-14 0 -19 8t0 20l87 206l-171 441q-10 25 18 25h42q15 0 20 -13l131 -367h2l156 367q5 13 20 13h37q14 0 18.5 -7.5t-0.5 -18.5l-289 -660q-2 -5 -8 -9.5t-12 -4.5h-32v0zM347 581q-21 0 -36 15t-15 36q0 22 15 37t36 15q22 0 37 -15t15 -37q0 -21 -15 -36 t-37 -15zM154 581q-21 0 -36 15t-15 36q0 22 15 37t36 15q22 0 37 -15t15 -37q0 -21 -15 -36t-37 -15z" glyph-name="ydieresis" horiz-adv-x="500" unicode="ÿ"/><glyph d="M20 0q-9 0 -14 5t-5 12q0 3 2 9l304 673q6 11 17 11h10q12 0 17 -11l302 -673q2 -6 2 -9q0 -8 -5 -12.5t-14 -4.5h-40q-12 0 -17 11l-74 165h-355l-73 -165q-4 -11 -17 -11h-40zM178 238h300q-24 54 -73 164t-73 164h-8zM204 821q-8 0 -13.5 5.5t-5.5 12.5v21 q0 8 5.5 13.5t13.5 5.5h256q8 0 13.5 -5.5t5.5 -13.5v-21q0 -8 -5.5 -13t-13.5 -5h-256z" glyph-name="Amacron" horiz-adv-x="665" unicode="Ā"/><glyph d="M42 140q0 33 12 61t35.5 48.5t58 32t79.5 11.5q18 0 36 -2.5t32 -5.5q17 -4 31 -7q1 64 -27.5 95.5t-78.5 31.5q-38 0 -64.5 -11t-42.5 -16q-9 -4 -14 0t-8 12l-10 27q-3 11 1.5 16t12.5 9q17 8 49 19t80 11q89 0 131 -50t42 -144v-264q0 -18 -18 -18q-23 0 -35 15.5 t-14 38.5q-9 -9 -22.5 -20t-32 -20t-41 -15t-49.5 -6q-30 0 -56.5 10.5t-45.5 30t-30 47.5t-11 63zM115 140q0 -35 22.5 -59.5t60.5 -24.5q43 0 77.5 19.5t49.5 42.5v94q-11 6 -37 12t-61 6q-48 0 -80 -22.5t-32 -67.5zM99 583q-8 0 -13.5 5t-5.5 13v21q0 19 19 19h256 q19 0 19 -19v-21q0 -8 -5.5 -13t-13.5 -5h-256v0z" glyph-name="amacron" horiz-adv-x="471" unicode="ā"/><glyph d="M20 0q-9 0 -14 5t-5 12q0 3 2 9l304 673q6 11 17 11h10q12 0 17 -11l302 -673q2 -6 2 -9q0 -8 -5 -12.5t-14 -4.5h-40q-12 0 -17 11l-74 165h-355l-73 -165q-4 -11 -17 -11h-40zM178 238h300q-24 54 -73 164t-73 164h-8zM330 771q-52 0 -90 32.5t-45 81.5v5q0 15 14 15 h21q14 0 19 -17q8 -29 30 -46.5t51 -17.5q27 0 49 18.5t30 45.5q6 17 19 17h23q14 0 14 -15q0 -49 -42.5 -84t-92.5 -35z" glyph-name="Abreve" horiz-adv-x="665" unicode="Ă"/><glyph d="M42 140q0 33 12 61t35.5 48.5t58 32t79.5 11.5q18 0 36 -2.5t32 -5.5q17 -4 31 -7q1 64 -27.5 95.5t-78.5 31.5q-38 0 -64.5 -11t-42.5 -16q-9 -4 -14 0t-8 12l-10 27q-3 11 1.5 16t12.5 9q17 8 49 19t80 11q89 0 131 -50t42 -144v-264q0 -18 -18 -18q-23 0 -35 15.5 t-14 38.5q-9 -9 -22.5 -20t-32 -20t-41 -15t-49.5 -6q-30 0 -56.5 10.5t-45.5 30t-30 47.5t-11 63zM115 140q0 -35 22.5 -59.5t60.5 -24.5q43 0 77.5 19.5t49.5 42.5v94q-11 6 -37 12t-61 6q-48 0 -80 -22.5t-32 -67.5zM236 531q-52 0 -90 32.5t-45 81.5v5q0 15 14 15h21 q14 0 19 -17q8 -29 30 -46.5t51 -17.5q27 0 49 18.5t30 45.5q6 17 19 17h23q14 0 14 -15q0 -49 -42.5 -84t-92.5 -35z" glyph-name="abreve" horiz-adv-x="471" unicode="ă"/><glyph d="M20 0q-9 0 -14 5t-5 12q0 3 2 9l304 673q6 11 17 11h10q12 0 17 -11l300 -668q3 -8 3 -13q0 -12 -19 -20q-37 -15 -70 -51.5t-33 -77.5q0 -25 13.5 -39t37.5 -14q28 0 63 26q5 4 10.5 3t5.5 -8l1 -34q2 -15 -12 -24q-13 -8 -36 -15.5t-47 -7.5q-47 0 -73 28t-26 72 q0 87 110 154l-10 21q-27 62 -64 145h-355l-73 -165q-4 -11 -17 -11h-40zM178 238h300l-146 328h-8z" glyph-name="Aogonek" horiz-adv-x="665" unicode="Ą"/><glyph d="M42 140q0 33 12 61t35.5 48.5t58 32t79.5 11.5q18 0 36 -2.5t32 -5.5q17 -4 31 -7q1 64 -27.5 95.5t-78.5 31.5q-38 0 -64.5 -11t-42.5 -16q-9 -4 -14 0t-8 12l-10 27q-3 11 1.5 16t12.5 9q17 8 49 19t80 11q89 0 131 -50t42 -144v-256q0 -8 -5 -13t-12 -9 q-15 -8 -33 -21t-33.5 -30t-26.5 -37t-11 -43q0 -25 13.5 -39t37.5 -14q22 0 39.5 10.5t23.5 15.5q5 5 10 3.5t6 -8.5l1 -34q2 -14 -12 -24q-11 -6 -33.5 -14.5t-49.5 -8.5q-49 0 -74 29t-25 71q0 29 13.5 54t33 45t40.5 35t37 25l-9 33q-9 -9 -22.5 -19.5t-31.5 -19 t-40 -14.5t-49 -6q-30 0 -56.5 10.5t-45.5 30t-30 47.5t-11 63zM115 140q0 -35 22.5 -59.5t60.5 -24.5q43 0 77.5 19.5t49.5 42.5v94q-11 6 -37 12t-61 6q-48 0 -80 -22.5t-32 -67.5z" glyph-name="aogonek" horiz-adv-x="471" unicode="ą"/><glyph d="M413 710q135 0 242 -93q7 -7 7 -15q0 -7 -6 -13l-27 -27q-6 -8 -11.5 -7.5t-14.5 8.5q-40 35 -89.5 55t-101.5 20q-77 0 -141.5 -39.5t-101 -105.5t-36.5 -143q0 -76 36.5 -142t101 -105.5t141.5 -39.5q60 0 103 18.5t88 56.5q13 12 26 -1l23 -23q5 -4 5 -12q0 -9 -6 -15 q-50 -46 -111.5 -71.5t-126.5 -25.5q-98 0 -181.5 48t-131.5 130t-48 181t48 182t131 131t182 48zM319 789q-4 8 -3.5 16.5t5.5 11.5l156 95q10 6 22.5 1t18.5 -19t5.5 -25.5t-10.5 -16.5l-170 -77q-6 -3 -12.5 1.5t-11.5 12.5z" glyph-name="Cacute" horiz-adv-x="706" unicode="Ć"/><glyph d="M48 230q0 102 67 172t167 70q102 0 168 -76q6 -8 6 -14q0 -10 -10 -19l-16 -15q-8 -6 -13 -6q-9 0 -20 13q-44 50 -116 50q-66 0 -112 -51t-46 -123q0 -74 45.5 -124.5t109.5 -50.5q25 0 44.5 5t35.5 17t24 20t22 24q8 10 18 10q8 0 21 -12l6 -6q10 -10 10 -19 q0 -8 -4 -13q-28 -41 -73.5 -67t-100.5 -26q-102 0 -167.5 68.5t-65.5 172.5zM183 567q-4 8 -3.5 16.5t5.5 11.5l156 95q10 6 22 1t19 -19q6 -14 5.5 -25.5t-10.5 -16.5l-170 -77q-6 -3 -12.5 1.5t-11.5 12.5z" glyph-name="cacute" horiz-adv-x="500" unicode="ć"/><glyph d="M413 710q135 0 242 -93q7 -7 7 -15q0 -7 -6 -13l-27 -27q-6 -8 -11.5 -7.5t-14.5 8.5q-40 35 -89.5 55t-101.5 20q-77 0 -141.5 -39.5t-101 -105.5t-36.5 -143q0 -76 36.5 -142t101 -105.5t141.5 -39.5q60 0 103 18.5t88 56.5q13 12 26 -1l23 -23q5 -4 5 -12q0 -9 -6 -15 q-50 -46 -111.5 -71.5t-126.5 -25.5q-98 0 -181.5 48t-131.5 130t-48 181t48 182t131 131t182 48zM418 909q6 0 12 -5l122 -97q13 -10 0 -27q-5 -7 -10.5 -10.5t-13.5 1.5l-110 68l-110 -68q-8 -5 -13.5 -1.5t-10.5 10.5q-14 17 0 27l122 97q6 5 12 5z" glyph-name="Ccircumflex" horiz-adv-x="706" unicode="Ĉ"/><glyph d="M48 230q0 102 67 172t167 70q102 0 168 -76q6 -8 6 -14q0 -10 -10 -19l-16 -15q-8 -6 -13 -6q-9 0 -20 13q-44 50 -116 50q-66 0 -112 -51t-46 -123q0 -74 45.5 -124.5t109.5 -50.5q25 0 44.5 5t35.5 17t24 20t22 24q8 10 18 10q8 0 21 -12l6 -6q10 -10 10 -19 q0 -8 -4 -13q-28 -41 -73.5 -67t-100.5 -26q-102 0 -167.5 68.5t-65.5 172.5zM288 690q6 0 12 -5l122 -97q13 -10 0 -27q-5 -7 -10.5 -10.5t-13.5 1.5l-110 68l-110 -68q-8 -5 -13.5 -1.5t-10.5 10.5q-14 17 0 27l122 97q6 5 12 5z" glyph-name="ccircumflex" horiz-adv-x="500" unicode="ĉ"/><glyph d="M413 710q135 0 242 -93q7 -7 7 -15q0 -7 -6 -13l-27 -27q-6 -8 -11.5 -7.5t-14.5 8.5q-40 35 -89.5 55t-101.5 20q-77 0 -141.5 -39.5t-101 -105.5t-36.5 -143q0 -76 36.5 -142t101 -105.5t141.5 -39.5q60 0 103 18.5t88 56.5q13 12 26 -1l23 -23q5 -4 5 -12q0 -9 -6 -15 q-50 -46 -111.5 -71.5t-126.5 -25.5q-98 0 -181.5 48t-131.5 130t-48 181t48 182t131 131t182 48zM412 798q-23 0 -38.5 16t-15.5 38q0 24 15.5 40t38.5 16t39 -16t16 -40q0 -22 -16 -38t-39 -16z" glyph-name="Cdotaccent" horiz-adv-x="706" unicode="Ċ"/><glyph d="M48 230q0 102 67 172t167 70q102 0 168 -76q6 -8 6 -14q0 -10 -10 -19l-16 -15q-8 -6 -13 -6q-9 0 -20 13q-44 50 -116 50q-66 0 -112 -51t-46 -123q0 -74 45.5 -124.5t109.5 -50.5q25 0 44.5 5t35.5 17t24 20t22 24q8 10 18 10q8 0 21 -12l6 -6q10 -10 10 -19 q0 -8 -4 -13q-28 -41 -73.5 -67t-100.5 -26q-102 0 -167.5 68.5t-65.5 172.5zM285 568q-23 0 -38.5 16t-15.5 38q0 24 15.5 40t38.5 16t39 -16t16 -40q0 -22 -16 -38t-39 -16z" glyph-name="cdotaccent" horiz-adv-x="500" unicode="ċ"/><glyph d="M413 710q135 0 242 -93q7 -7 7 -15q0 -7 -6 -13l-27 -27q-6 -8 -11.5 -7.5t-14.5 8.5q-40 35 -89.5 55t-101.5 20q-77 0 -141.5 -39.5t-101 -105.5t-36.5 -143q0 -76 36.5 -142t101 -105.5t141.5 -39.5q60 0 103 18.5t88 56.5q13 12 26 -1l23 -23q5 -4 5 -12q0 -9 -6 -15 q-50 -46 -111.5 -71.5t-126.5 -25.5q-98 0 -181.5 48t-131.5 130t-48 181t48 182t131 131t182 48zM410 769q-6 0 -12 5l-122 97q-6 5 -6 12t6 15q5 7 10.5 10.5t13.5 -1.5l110 -68l110 68q8 5 13.5 1.5t10.5 -10.5q13 -17 0 -27l-122 -97q-6 -5 -12 -5z" glyph-name="Ccaron" horiz-adv-x="706" unicode="Č"/><glyph d="M48 230q0 102 67 172t167 70q102 0 168 -76q6 -8 6 -14q0 -10 -10 -19l-16 -15q-8 -6 -13 -6q-9 0 -20 13q-44 50 -116 50q-66 0 -112 -51t-46 -123q0 -74 45.5 -124.5t109.5 -50.5q25 0 44.5 5t35.5 17t24 20t22 24q8 10 18 10q8 0 21 -12l6 -6q10 -10 10 -19 q0 -8 -4 -13q-28 -41 -73.5 -67t-100.5 -26q-102 0 -167.5 68.5t-65.5 172.5zM279 543q-6 0 -12 5l-122 97q-6 5 -6 12t6 15q5 7 10.5 10.5t13.5 -1.5l110 -68l110 68q8 5 13.5 1.5t10.5 -10.5q13 -17 0 -27l-122 -97q-6 -5 -12 -5z" glyph-name="ccaron" horiz-adv-x="500" unicode="č"/><glyph d="M96 19v662q0 8 5 13.5t13 5.5h224q71 0 136 -28t112 -74.5t75 -111t28 -135.5q0 -96 -47.5 -176.5t-128 -127.5t-175.5 -47h-224q-8 0 -13 5.5t-5 13.5zM172 69h157q123 0 201 79t78 203q0 123 -78 202t-201 79h-157v-563zM333 769q-6 0 -12 5l-122 97q-6 5 -6 12t6 15 q5 7 10.5 10.5t13.5 -1.5l110 -68l110 68q8 5 13.5 1.5t10.5 -10.5q13 -17 0 -27l-122 -97q-6 -5 -12 -5z" glyph-name="Dcaron" horiz-adv-x="742" unicode="Ď"/><glyph d="M49 232q0 51 14.5 94.5t42.5 76t69 51t93 18.5q29 0 52 -5t40 -10q19 -6 36 -14v235q0 8 6.5 15t15.5 7h28q9 0 16 -7t7 -15v-664q0 -18 -18 -18q-22 0 -34 14.5t-15 37.5q-24 -21 -62 -40t-84 -19q-44 0 -82 19.5t-65.5 52.5t-43.5 77t-16 94zM124 231q0 -34 10 -65.5 t29 -56t44.5 -39t57.5 -14.5q31 0 55.5 11.5t41.5 25.5q19 16 34 37v249q-17 7 -35 13q-17 5 -38 9t-45 4q-37 0 -66 -14.5t-48.5 -38.5t-29.5 -55.5t-10 -65.5zM522 663q0 22 15 35t39 13q32 0 50.5 -22.5t18.5 -62.5q0 -66 -46 -112q-3 -3 -7 -3t-8 3l-16 12q-8 8 0 17 q12 10 20.5 28t8.5 37q0 14 -5 22q-7 -7 -25 -7q-20 0 -32.5 11t-12.5 29z" glyph-name="dcaron" horiz-adv-x="552" unicode="ď"/><glyph d="M96 19v305h-29q-8 0 -13 6t-5 13v7q0 8 5.5 13.5t12.5 5.5h29v312q0 8 5 13.5t13 5.5h224q71 0 136 -28t112 -74.5t75 -111t28 -135.5q0 -96 -47.5 -176.5t-128 -127.5t-175.5 -47h-224q-8 0 -13 5.5t-5 13.5zM172 69h150q124 0 203.5 79.5t79.5 202.5t-80 202t-203 79 h-150v-263h211q8 0 13.5 -5.5t5.5 -13.5v-8q0 -8 -5.5 -13t-13.5 -5h-211v-255z" glyph-name="Dcroat" horiz-adv-x="742" unicode="Đ"/><glyph d="M498 581q8 0 13 -5.5t5 -13.5v-7q0 -8 -5 -13.5t-13 -5.5h-29v-522q0 -18 -18 -18q-22 0 -34 14.5t-15 37.5q-24 -21 -62 -40t-84 -19q-44 0 -82 19.5t-65.5 52.5t-43.5 77t-16 94q0 51 14.5 94.5t42.5 76t69 51t93 18.5q29 0 52 -5t40 -10q19 -6 36 -14v93h-155 q-8 0 -13.5 5t-5.5 13v8q0 8 5.5 13.5t13.5 5.5h155v97q0 8 6.5 15t15.5 7h28q9 0 16 -7t7 -15v-97h29zM396 379q-17 7 -35 13q-17 5 -38 9t-45 4q-37 0 -66 -14.5t-48.5 -38.5t-29.5 -55.5t-10 -65.5t10 -65.5t29 -56t44.5 -39t57.5 -14.5q31 0 55.5 11.5t41.5 25.5 q19 16 34 37v249z" glyph-name="dcroat" horiz-adv-x="547" unicode="đ"/><glyph d="M96 19v662q0 8 5.5 13.5t13.5 5.5h394q8 0 13.5 -6t5.5 -13v-29q0 -8 -5.5 -13.5t-13.5 -5.5h-336v-244h287q8 0 13.5 -5.5t5.5 -13.5v-29q0 -8 -5.5 -13.5t-13.5 -5.5h-287v-255h336q8 0 13.5 -5.5t5.5 -13.5v-29q0 -8 -5.5 -13.5t-13.5 -5.5h-394q-8 0 -13.5 5.5 t-5.5 13.5zM184 821q-8 0 -13.5 5.5t-5.5 12.5v21q0 8 5.5 13.5t13.5 5.5h256q8 0 13.5 -5.5t5.5 -13.5v-21q0 -8 -5.5 -13t-13.5 -5h-256z" glyph-name="Emacron" horiz-adv-x="576" unicode="Ē"/><glyph d="M49 231q0 101 61.5 171t162.5 70q90 0 149.5 -59.5t59.5 -150.5q0 -12 -2 -28q0 -8 -6.5 -14t-14.5 -6h-336q2 -60 46 -109t105 -49q67 0 125 38q13 10 20 10q6 0 15 -13l12 -17q8 -12 8 -17q0 -6 -12 -15q-26 -20 -70.5 -36.5t-98.5 -16.5q-68 0 -119.5 33.5t-78 88 t-26.5 120.5zM124 273h284q-2 53 -40 92.5t-95 39.5t-99.5 -38.5t-49.5 -93.5zM146 583q-8 0 -13.5 5t-5.5 13v21q0 19 19 19h256q19 0 19 -19v-21q0 -8 -5.5 -13t-13.5 -5h-256v0z" glyph-name="emacron" horiz-adv-x="525" unicode="ē"/><glyph d="M96 19v662q0 8 5.5 13.5t13.5 5.5h394q8 0 13.5 -6t5.5 -13v-29q0 -8 -5.5 -13.5t-13.5 -5.5h-336v-244h287q8 0 13.5 -5.5t5.5 -13.5v-29q0 -8 -5.5 -13.5t-13.5 -5.5h-287v-255h336q8 0 13.5 -5.5t5.5 -13.5v-29q0 -8 -5.5 -13.5t-13.5 -5.5h-394q-8 0 -13.5 5.5 t-5.5 13.5zM310 771q-52 0 -90 32.5t-45 81.5v5q0 15 14 15h21q14 0 19 -17q8 -29 30 -46.5t51 -17.5q27 0 49 18.5t30 45.5q6 17 19 17h23q14 0 14 -15q0 -49 -42.5 -84t-92.5 -35z" glyph-name="Ebreve" horiz-adv-x="576" unicode="Ĕ"/><glyph d="M49 231q0 101 61.5 171t162.5 70q90 0 149.5 -59.5t59.5 -150.5q0 -12 -2 -28q0 -8 -6.5 -14t-14.5 -6h-336q2 -60 46 -109t105 -49q67 0 125 38q13 10 20 10q6 0 15 -13l12 -17q8 -12 8 -17q0 -6 -12 -15q-26 -20 -70.5 -36.5t-98.5 -16.5q-68 0 -119.5 33.5t-78 88 t-26.5 120.5zM124 273h284q-2 53 -40 92.5t-95 39.5t-99.5 -38.5t-49.5 -93.5zM274 531q-52 0 -90 32.5t-45 81.5v5q0 15 14 15h21q14 0 19 -17q8 -29 30 -46.5t51 -17.5q27 0 49 18.5t30 45.5q6 17 19 17h23q14 0 14 -15q0 -49 -42.5 -84t-92.5 -35z" glyph-name="ebreve" horiz-adv-x="525" unicode="ĕ"/><glyph d="M96 19v662q0 8 5.5 13.5t13.5 5.5h394q8 0 13.5 -6t5.5 -13v-29q0 -8 -5.5 -13.5t-13.5 -5.5h-336v-244h287q8 0 13.5 -5.5t5.5 -13.5v-29q0 -8 -5.5 -13.5t-13.5 -5.5h-287v-255h336q8 0 13.5 -5.5t5.5 -13.5v-29q0 -8 -5.5 -13.5t-13.5 -5.5h-394q-8 0 -13.5 5.5 t-5.5 13.5zM314 798q-23 0 -38.5 16t-15.5 38q0 24 15.5 40t38.5 16t39 -16t16 -40q0 -22 -16 -38t-39 -16z" glyph-name="Edotaccent" horiz-adv-x="576" unicode="Ė"/><glyph d="M49 231q0 101 61.5 171t162.5 70q90 0 149.5 -59.5t59.5 -150.5q0 -12 -2 -28q0 -8 -6.5 -14t-14.5 -6h-336q2 -60 46 -109t105 -49q67 0 125 38q13 10 20 10q6 0 15 -13l12 -17q8 -12 8 -17q0 -6 -12 -15q-26 -20 -70.5 -36.5t-98.5 -16.5q-68 0 -119.5 33.5t-78 88 t-26.5 120.5zM124 273h284q-2 53 -40 92.5t-95 39.5t-99.5 -38.5t-49.5 -93.5zM277 568q-23 0 -38.5 16t-15.5 38q0 24 15.5 40t38.5 16t39 -16t16 -40q0 -22 -16 -38t-39 -16z" glyph-name="edotaccent" horiz-adv-x="525" unicode="ė"/><glyph d="M96 19v662q0 8 5.5 13.5t13.5 5.5h394q8 0 13.5 -6t5.5 -13v-29q0 -8 -5.5 -13.5t-13.5 -5.5h-336v-244h287q8 0 13.5 -5.5t5.5 -13.5v-29q0 -8 -5.5 -13.5t-13.5 -5.5h-287v-255h336q8 0 13.5 -5.5t5.5 -13.5v-25q0 -14 -13 -22q-18 -10 -33.5 -22t-33 -29.5t-28 -38.5 t-10.5 -42q0 -25 13.5 -39t37.5 -14q28 0 63 26q5 4 10.5 3t5.5 -8l1 -34q2 -15 -12 -24q-13 -8 -36 -15.5t-47 -7.5q-47 0 -73 28t-26 72q0 81 98 144h-330q-8 0 -13.5 5.5t-5.5 13.5z" glyph-name="Eogonek" horiz-adv-x="576" unicode="Ę"/><glyph d="M49 231q0 101 61.5 171t162.5 70q90 0 149.5 -59.5t59.5 -150.5q0 -12 -2 -28q0 -8 -6.5 -14t-14.5 -6h-336q2 -60 46 -109t105 -49q67 0 125 38q13 10 20 10q6 0 15 -13l12 -17q8 -11 8 -17q0 -2 -0.5 -3l-1 -2t-2 -2.5t-2 -2.5t-3 -2.5t-3.5 -2.5q-36 -28 -88 -42 q-17 -10 -33 -22t-32.5 -29t-27 -38t-10.5 -42q0 -25 13.5 -39t37.5 -14q28 0 63 26q5 4 10 3t6 -8l1 -34q2 -15 -12 -24q-13 -8 -36.5 -15.5t-46.5 -7.5q-47 0 -73 28t-26 72q0 74 82 133q-100 2 -160.5 71t-60.5 171zM124 273h284q-2 53 -40 92.5t-95 39.5t-99.5 -38.5 t-49.5 -93.5z" glyph-name="eogonek" horiz-adv-x="525" unicode="ę"/><glyph d="M96 19v662q0 8 5.5 13.5t13.5 5.5h394q8 0 13.5 -6t5.5 -13v-29q0 -8 -5.5 -13.5t-13.5 -5.5h-336v-244h287q8 0 13.5 -5.5t5.5 -13.5v-29q0 -8 -5.5 -13.5t-13.5 -5.5h-287v-255h336q8 0 13.5 -5.5t5.5 -13.5v-29q0 -8 -5.5 -13.5t-13.5 -5.5h-394q-8 0 -13.5 5.5 t-5.5 13.5zM309 769q-6 0 -12 5l-122 97q-6 5 -6 12t6 15q5 7 10.5 10.5t13.5 -1.5l110 -68l110 68q8 5 13.5 1.5t10.5 -10.5q13 -17 0 -27l-122 -97q-6 -5 -12 -5z" glyph-name="Ecaron" horiz-adv-x="576" unicode="Ě"/><glyph d="M49 231q0 101 61.5 171t162.5 70q90 0 149.5 -59.5t59.5 -150.5q0 -12 -2 -28q0 -8 -6.5 -14t-14.5 -6h-336q2 -60 46 -109t105 -49q67 0 125 38q13 10 20 10q6 0 15 -13l12 -17q8 -12 8 -17q0 -6 -12 -15q-26 -20 -70.5 -36.5t-98.5 -16.5q-68 0 -119.5 33.5t-78 88 t-26.5 120.5zM124 273h284q-2 53 -40 92.5t-95 39.5t-99.5 -38.5t-49.5 -93.5zM270 543q-6 0 -12 5l-122 97q-6 5 -6 12t6 15q5 7 10.5 10.5t13.5 -1.5l110 -68l110 68q8 5 13.5 1.5t10.5 -10.5q13 -17 0 -27l-122 -97q-6 -5 -12 -5z" glyph-name="ecaron" horiz-adv-x="525" unicode="ě"/><glyph d="M413 710q72 0 130 -23.5t112 -69.5q7 -7 7 -15q0 -7 -6 -13l-28 -28q-7 -8 -12.5 -7.5t-13.5 8.5q-40 35 -90.5 56.5t-99.5 21.5q-77 0 -141.5 -39t-100.5 -105t-36 -143q0 -57 21.5 -110t58 -92.5t88.5 -63t110 -23.5q52 0 102 13t78 29v140h-115q-8 0 -13.5 5t-5.5 13 v37q0 8 5.5 13.5t13.5 5.5h173q8 0 13 -6t5 -13v-229q0 -10 -8 -16q-40 -26 -109 -46t-138 -20q-98 0 -181.5 48t-131.5 130t-48 181t48 182t131 131t182 48zM418 909q6 0 12 -5l122 -97q13 -10 0 -27q-5 -7 -10.5 -10.5t-13.5 1.5l-110 68l-110 -68q-8 -5 -13.5 -1.5 t-10.5 10.5q-14 17 0 27l122 97q6 5 12 5z" glyph-name="Gcircumflex" horiz-adv-x="734" unicode="Ĝ"/><glyph d="M291 690q6 0 12 -5l122 -97q13 -10 0 -27q-5 -7 -10.5 -10.5t-13.5 1.5l-110 68l-110 -68q-8 -5 -13.5 -1.5t-10.5 10.5q-14 17 0 27l122 97q6 5 12 5zM469 -3q0 -59 -17 -100.5t-45 -67t-64.5 -37t-75.5 -11.5q-27 0 -52.5 6.5t-46.5 15.5t-37 19.5t-25 18.5 q-6 5 -7.5 13.5t2.5 13.5l20 29q5 8 13.5 8.5t16.5 -7.5q19 -16 48.5 -32.5t67.5 -16.5q27 0 51 8t41 25.5t27 45.5t10 69v33q-17 -12 -36 -21q-17 -8 -40 -14t-52 -6q-48 0 -88 19t-69 51.5t-45.5 76.5t-16.5 95q0 49 16 93t44.5 77t68.5 52t87 19q45 0 81.5 -15.5 t57.5 -32.5q5 19 16 30.5t31 11.5q18 0 18 -18v-451zM124 232q0 -38 11.5 -70t32.5 -55t49 -36.5t61 -13.5q24 0 45 5.5t37 13.5q18 8 35 19v253q-15 16 -33 28q-16 11 -38.5 19.5t-50.5 8.5q-35 0 -62.5 -14t-46.5 -38t-29.5 -55t-10.5 -65z" glyph-name="gcircumflex" horiz-adv-x="547" unicode="ĝ"/><glyph d="M413 710q72 0 130 -23.5t112 -69.5q7 -7 7 -15q0 -7 -6 -13l-28 -28q-7 -8 -12.5 -7.5t-13.5 8.5q-40 35 -90.5 56.5t-99.5 21.5q-77 0 -141.5 -39t-100.5 -105t-36 -143q0 -57 21.5 -110t58 -92.5t88.5 -63t110 -23.5q52 0 102 13t78 29v140h-115q-8 0 -13.5 5t-5.5 13 v37q0 8 5.5 13.5t13.5 5.5h173q8 0 13 -6t5 -13v-229q0 -10 -8 -16q-40 -26 -109 -46t-138 -20q-98 0 -181.5 48t-131.5 130t-48 181t48 182t131 131t182 48zM411 771q-52 0 -90 32.5t-45 81.5v5q0 15 14 15h21q14 0 19 -17q8 -29 30 -46.5t51 -17.5q27 0 49 18.5t30 45.5 q6 17 19 17h23q14 0 14 -15q0 -49 -42.5 -84t-92.5 -35z" glyph-name="Gbreve" horiz-adv-x="734" unicode="Ğ"/><glyph d="M285 531q-52 0 -90 32.5t-45 81.5v5q0 15 14 15h21q14 0 19 -17q8 -29 30 -46.5t51 -17.5q27 0 49 18.5t30 45.5q6 17 19 17h23q14 0 14 -15q0 -49 -42.5 -84t-92.5 -35zM469 -3q0 -59 -17 -100.5t-45 -67t-64.5 -37t-75.5 -11.5q-27 0 -52.5 6.5t-46.5 15.5t-37 19.5 t-25 18.5q-6 5 -7.5 13.5t2.5 13.5l20 29q5 8 13.5 8.5t16.5 -7.5q19 -16 48.5 -32.5t67.5 -16.5q27 0 51 8t41 25.5t27 45.5t10 69v33q-17 -12 -36 -21q-17 -8 -40 -14t-52 -6q-48 0 -88 19t-69 51.5t-45.5 76.5t-16.5 95q0 49 16 93t44.5 77t68.5 52t87 19 q45 0 81.5 -15.5t57.5 -32.5q5 19 16 30.5t31 11.5q18 0 18 -18v-451zM124 232q0 -38 11.5 -70t32.5 -55t49 -36.5t61 -13.5q24 0 45 5.5t37 13.5q18 8 35 19v253q-15 16 -33 28q-16 11 -38.5 19.5t-50.5 8.5q-35 0 -62.5 -14t-46.5 -38t-29.5 -55t-10.5 -65z" glyph-name="gbreve" horiz-adv-x="547" unicode="ğ"/><glyph d="M413 710q72 0 130 -23.5t112 -69.5q7 -7 7 -15q0 -7 -6 -13l-28 -28q-7 -8 -12.5 -7.5t-13.5 8.5q-40 35 -90.5 56.5t-99.5 21.5q-77 0 -141.5 -39t-100.5 -105t-36 -143q0 -57 21.5 -110t58 -92.5t88.5 -63t110 -23.5q52 0 102 13t78 29v140h-115q-8 0 -13.5 5t-5.5 13 v37q0 8 5.5 13.5t13.5 5.5h173q8 0 13 -6t5 -13v-229q0 -10 -8 -16q-40 -26 -109 -46t-138 -20q-98 0 -181.5 48t-131.5 130t-48 181t48 182t131 131t182 48zM412 798q-23 0 -38.5 16t-15.5 38q0 24 15.5 40t38.5 16t39 -16t16 -40q0 -22 -16 -38t-39 -16z" glyph-name="Gdotaccent" horiz-adv-x="734" unicode="Ġ"/><glyph d="M288 568q-23 0 -38.5 16t-15.5 38q0 24 15.5 40t38.5 16t39 -16t16 -40q0 -22 -16 -38t-39 -16zM469 -3q0 -59 -17 -100.5t-45 -67t-64.5 -37t-75.5 -11.5q-27 0 -52.5 6.5t-46.5 15.5t-37 19.5t-25 18.5q-6 5 -7.5 13.5t2.5 13.5l20 29q5 8 13.5 8.5t16.5 -7.5 q19 -16 48.5 -32.5t67.5 -16.5q27 0 51 8t41 25.5t27 45.5t10 69v33q-17 -12 -36 -21q-17 -8 -40 -14t-52 -6q-48 0 -88 19t-69 51.5t-45.5 76.5t-16.5 95q0 49 16 93t44.5 77t68.5 52t87 19q45 0 81.5 -15.5t57.5 -32.5q5 19 16 30.5t31 11.5q18 0 18 -18v-451zM124 232 q0 -38 11.5 -70t32.5 -55t49 -36.5t61 -13.5q24 0 45 5.5t37 13.5q18 8 35 19v253q-15 16 -33 28q-16 11 -38.5 19.5t-50.5 8.5q-35 0 -62.5 -14t-46.5 -38t-29.5 -55t-10.5 -65z" glyph-name="gdotaccent" horiz-adv-x="547" unicode="ġ"/><glyph d="M413 710q72 0 130 -23.5t112 -69.5q7 -7 7 -15q0 -7 -6 -13l-28 -28q-7 -8 -12.5 -7.5t-13.5 8.5q-40 35 -90.5 56.5t-99.5 21.5q-77 0 -141.5 -39t-100.5 -105t-36 -143q0 -57 21.5 -110t58 -92.5t88.5 -63t110 -23.5q52 0 102 13t78 29v140h-115q-8 0 -13.5 5t-5.5 13 v37q0 8 5.5 13.5t13.5 5.5h173q8 0 13 -6t5 -13v-229q0 -10 -8 -16q-40 -26 -109 -46t-138 -20q-98 0 -181.5 48t-131.5 130t-48 181t48 182t131 131t182 48zM357 -119q0 22 15 35t39 13q32 0 50.5 -22.5t18.5 -62.5q0 -66 -46 -112q-3 -3 -7 -3t-8 3l-16 12q-8 8 0 17 q12 10 20.5 28t8.5 37q0 14 -5 22q-7 -7 -25 -7q-20 0 -32.5 11t-12.5 29z" glyph-name="uni0122" horiz-adv-x="734" unicode="Ģ"/><glyph d="M469 -3q0 -59 -17 -100.5t-45 -67t-64.5 -37t-75.5 -11.5q-27 0 -52.5 6.5t-46.5 15.5t-37 19.5t-25 18.5q-6 5 -7.5 13.5t2.5 13.5l20 29q5 8 13.5 8.5t16.5 -7.5q19 -16 48.5 -32.5t67.5 -16.5q27 0 51 8t41 25.5t27 45.5t10 69v33q-17 -12 -36 -21q-17 -8 -40 -14 t-52 -6q-48 0 -88 19t-69 51.5t-45.5 76.5t-16.5 95q0 49 16 93t44.5 77t68.5 52t87 19q45 0 81.5 -15.5t57.5 -32.5q5 19 16 30.5t31 11.5q18 0 18 -18v-451zM124 232q0 -38 11.5 -70t32.5 -55t49 -36.5t61 -13.5q24 0 45 5.5t37 13.5q18 8 35 19v253q-15 16 -33 28 q-16 11 -38.5 19.5t-50.5 8.5q-35 0 -62.5 -14t-46.5 -38t-29.5 -55t-10.5 -65zM348 600q0 -22 -15 -35t-39 -13q-32 0 -50.5 22t-18.5 63q0 66 46 112q3 3 7 3t8 -3l16 -12q8 -8 0 -17q-12 -10 -20.5 -28t-8.5 -37q0 -14 5 -22q7 7 25 7q20 0 32.5 -11t12.5 -29z" glyph-name="uni0123" horiz-adv-x="547" unicode="ģ"/><glyph d="M96 19v662q0 8 6 13.5t13 5.5h39q8 0 13.5 -6t5.5 -13v-292h406v292q0 8 5.5 13.5t13.5 5.5h39q8 0 13.5 -6t5.5 -13v-662q0 -8 -6 -13.5t-13 -5.5h-39q-8 0 -13.5 6t-5.5 13v303h-406v-303q0 -8 -5.5 -13.5t-13.5 -5.5h-39q-8 0 -13.5 5.5t-5.5 13.5zM384 909q6 0 12 -5 l122 -97q13 -10 0 -27q-5 -7 -10.5 -10.5t-13.5 1.5l-110 68l-110 -68q-8 -5 -13.5 -1.5t-10.5 10.5q-14 17 0 27l122 97q6 5 12 5z" glyph-name="Hcircumflex" horiz-adv-x="752" unicode="Ĥ"/><glyph d="M84 22v656q0 8 6.5 15t15.5 7h30q8 0 15 -7t7 -15v-265q21 24 62 41.5t85 17.5q85 0 126 -52t41 -154v-244q0 -9 -7 -15.5t-15 -6.5h-31q-9 0 -15.5 6.5t-6.5 15.5v244q0 68 -22.5 103.5t-74.5 35.5q-41 0 -80 -19t-62 -47v-317q0 -9 -7 -15.5t-15 -6.5h-30 q-9 0 -15.5 6.5t-6.5 15.5zM123 907q6 0 12 -5l122 -97q13 -10 0 -27q-5 -7 -10.5 -10.5t-13.5 1.5l-110 68l-110 -68q-8 -5 -13.5 -1.5t-10.5 10.5q-14 17 0 27l122 97q6 5 12 5z" glyph-name="hcircumflex" horiz-adv-x="539" unicode="ĥ"/><glyph d="M96 19v517h-22q-8 0 -13 6t-5 13v7q0 8 5 13.5t13 5.5h22v100q0 8 6 13.5t13 5.5h39q8 0 13.5 -6t5.5 -13v-100h406v100q0 8 5.5 13.5t13.5 5.5h39q8 0 13.5 -6t5.5 -13v-100h21q8 0 13.5 -5.5t5.5 -13.5v-8q0 -8 -5.5 -13t-13.5 -5h-21v-517q0 -8 -6 -13.5t-13 -5.5h-39 q-8 0 -13.5 6t-5.5 13v303h-406v-303q0 -8 -5.5 -13.5t-13.5 -5.5h-39q-8 0 -13.5 5.5t-5.5 13.5zM173 389h406v147h-406v-147z" glyph-name="Hbar" horiz-adv-x="752" unicode="Ħ"/><glyph d="M78 22v514h-32q-8 0 -13 6t-5 13v7q0 8 5 13.5t13 5.5h32v97q0 8 6.5 15t15.5 7h30q8 0 15 -7t7 -15v-97h151q8 0 13.5 -5.5t5.5 -13.5v-8q0 -8 -5.5 -13t-13.5 -5h-151v-123q24 23 68 41t89 18q86 0 131.5 -52.5t45.5 -153.5v-244q0 -9 -7 -15.5t-15 -6.5h-31 q-9 0 -15.5 6.5t-6.5 15.5v244q0 67 -27.5 103t-79.5 36q-42 0 -84.5 -20t-67.5 -46v-317q0 -9 -7 -15.5t-15 -6.5h-30q-9 0 -15.5 6.5t-6.5 15.5z" glyph-name="hbar" horiz-adv-x="559" unicode="ħ"/><glyph d="M95 19v662q0 8 6 13.5t13 5.5h40q8 0 13.5 -6t5.5 -13v-662q0 -8 -6 -13.5t-13 -5.5h-40q-8 0 -13.5 5.5t-5.5 13.5zM7 795l-18 9q-6 2 -6 12q0 4 2 10l6 15t11.5 23t16 21t25.5 19t33 6q16 0 31 -7.5t25 -18.5t19 -22t18 -18.5t17 -7.5q30 0 45 51q5 16 23 8l16 -8 q7 -4 7 -12q0 -2 -3 -14q-28 -81 -89 -81q-18 0 -36 12t-29.5 26t-23.5 25.5t-21 11.5q-10 0 -17.5 -4.5t-12.5 -13.5t-8 -15t-6 -17q-4 -13 -15 -13q-4 0 -10 3z" glyph-name="Itilde" horiz-adv-x="270" unicode="Ĩ"/><glyph d="M77 22v418q0 8 6.5 15t15.5 7h30q8 0 15 -7t7 -15v-418q0 -9 -7 -15.5t-15 -6.5h-30q-9 0 -15.5 6.5t-6.5 15.5zM-10 575l-18 9q-6 2 -6 12q0 4 2 10l6 15t11.5 23t16 21t25.5 19t33 6q16 0 31 -7.5t25 -18.5t19 -22t18 -18.5t17 -7.5q30 0 45 51q5 16 23 8l16 -8 q7 -4 7 -12q0 -2 -3 -14q-28 -81 -89 -81q-18 0 -36 12t-29.5 26t-23.5 25.5t-21 11.5q-10 0 -17.5 -4.5t-12.5 -13.5t-8 -15t-6 -17q-4 -13 -15 -13q-4 0 -10 3z" glyph-name="itilde" horiz-adv-x="230" unicode="ĩ"/><glyph d="M96 19v662q0 8 6 13.5t13 5.5h40q8 0 13.5 -6t5.5 -13v-662q0 -8 -6 -13.5t-13 -5.5h-40q-8 0 -13.5 5.5t-5.5 13.5zM9 821q-8 0 -13.5 5.5t-5.5 12.5v21q0 8 5.5 13.5t13.5 5.5h256q8 0 13.5 -5.5t5.5 -13.5v-21q0 -8 -5.5 -13t-13.5 -5h-256z" glyph-name="Imacron" horiz-adv-x="270" unicode="Ī"/><glyph d="M78 22v418q0 8 6.5 15t15.5 7h30q8 0 15 -7t7 -15v-418q0 -9 -7 -15.5t-15 -6.5h-30q-9 0 -15.5 6.5t-6.5 15.5zM-9 583q-8 0 -13.5 5t-5.5 13v21q0 19 19 19h256q19 0 19 -19v-21q0 -8 -5.5 -13t-13.5 -5h-256v0z" glyph-name="imacron" horiz-adv-x="230" unicode="ī"/><glyph d="M95 19v662q0 8 6 13.5t13 5.5h40q8 0 13.5 -6t5.5 -13v-662q0 -8 -6 -13.5t-13 -5.5h-40q-8 0 -13.5 5.5t-5.5 13.5zM133 771q-52 0 -90 32.5t-45 81.5v5q0 15 14 15h21q14 0 19 -17q8 -29 30 -46.5t51 -17.5q27 0 49 18.5t30 45.5q6 17 19 17h23q14 0 14 -15 q0 -49 -42.5 -84t-92.5 -35z" glyph-name="Ibreve" horiz-adv-x="270" unicode="Ĭ"/><glyph d="M77 22v418q0 8 6.5 15t15.5 7h30q8 0 15 -7t7 -15v-418q0 -9 -7 -15.5t-15 -6.5h-30q-9 0 -15.5 6.5t-6.5 15.5zM115 531q-52 0 -90 32.5t-45 81.5v5q0 15 14 15h21q14 0 19 -17q8 -29 30 -46.5t51 -17.5q27 0 49 18.5t30 45.5q6 17 19 17h23q14 0 14 -15 q0 -49 -42.5 -84t-92.5 -35z" glyph-name="ibreve" horiz-adv-x="230" unicode="ĭ"/><glyph d="M96 19v662q0 8 6 13.5t13 5.5h40q8 0 13.5 -6t5.5 -13v-660q0 -6 -5 -12.5t-10 -8.5q-16 -8 -33 -20t-33.5 -29t-27 -39t-10.5 -43q0 -25 13.5 -39t37.5 -14q28 0 63 26q5 4 10 3t6 -8l1 -34q2 -15 -12 -24q-13 -8 -36.5 -15.5t-46.5 -7.5q-47 0 -73 28t-26 72 q0 28 10 52t29 43.5t34 31t35 24.5q-4 4 -4 12z" glyph-name="Iogonek" horiz-adv-x="270" unicode="Į"/><glyph d="M79 440q0 8 6.5 15t15.5 7h30q8 0 15 -7t7 -15v-415q0 -8 -5 -14t-11 -10q-15 -9 -33 -22t-34 -30t-27 -37t-11 -43q0 -25 13.5 -39t37.5 -14q22 0 39.5 10.5t23.5 15.5q5 5 10 3.5t6 -8.5l1 -34q2 -14 -12 -24q-11 -6 -33.5 -14.5t-49.5 -8.5q-49 0 -74 29t-25 71 q0 28 11 52.5t27.5 44.5t36 36t35.5 27v424zM113 581q-23 0 -38.5 16t-15.5 38q0 24 15.5 40t38.5 16t39 -16t16 -40q0 -22 -16 -38t-39 -16z" glyph-name="iogonek" horiz-adv-x="231" unicode="į"/><glyph d="M96 19v662q0 8 6 13.5t13 5.5h40q8 0 13.5 -6t5.5 -13v-662q0 -8 -6 -13.5t-13 -5.5h-40q-8 0 -13.5 5.5t-5.5 13.5zM135 798q-23 0 -38.5 16t-15.5 38q0 24 15.5 40t38.5 16t39 -16t16 -40q0 -22 -16 -38t-39 -16z" glyph-name="Idotaccent" horiz-adv-x="270" unicode="İ"/><glyph d="M78 22v418q0 8 6.5 15t15.5 7h30q8 0 15 -7t7 -15v-418q0 -9 -7 -15.5t-15 -6.5h-30q-9 0 -15.5 6.5t-6.5 15.5z" glyph-name="dotlessi" horiz-adv-x="230" unicode="ı"/><glyph d="M96 19v662q0 8 6 13.5t13 5.5h40q8 0 13.5 -6t5.5 -13v-662q0 -8 -6 -13.5t-13 -5.5h-40q-8 0 -13.5 5.5t-5.5 13.5zM267 64q-4 4 -4 12q0 6 5 13l20 23q8 9 16 9t18 -12q46 -52 106 -52q21 0 40.5 7.5t36.5 22.5t27.5 43.5t10.5 66.5v484q0 8 5.5 13.5t13.5 5.5h39 q8 0 13.5 -6t5.5 -13v-482q0 -100 -54 -154.5t-138 -54.5q-33 0 -62.5 8t-48.5 21.5t-30.5 24t-19.5 20.5z" glyph-name="IJ" horiz-adv-x="711" unicode="Ĳ"/><glyph glyph-name="ij" horiz-adv-x="467" unicode="ĳ"/><glyph d="M20 64q-4 4 -4 12q0 6 5 13l20 23q8 9 16 9t18 -12q46 -52 106 -52q21 0 40.5 7.5t36.5 22.5t27.5 43.5t10.5 66.5v484q0 8 5.5 13.5t13.5 5.5h39q8 0 13.5 -6t5.5 -13v-482q0 -100 -54 -154.5t-138 -54.5q-33 0 -62.5 8t-48.5 21.5t-30.5 24t-19.5 20.5zM341 909 q6 0 12 -5l122 -97q13 -10 0 -27q-5 -7 -10.5 -10.5t-13.5 1.5l-110 68l-110 -68q-8 -5 -13.5 -1.5t-10.5 10.5q-14 17 0 27l122 97q6 5 12 5z" glyph-name="Jcircumflex" horiz-adv-x="464" unicode="Ĵ"/><glyph d="M155 440v-490q0 -89 -35 -137t-96 -61h-5q-13 0 -16 12l-10 30q-2 6 -2 8q0 14 16 19q38 14 56 39.5t18 82.5v497q0 10 6.5 16t15.5 6h30q8 0 15 -6t7 -16zM128 690q6 0 12 -5l122 -97q13 -10 0 -27q-5 -7 -10.5 -10.5t-13.5 1.5l-110 68l-110 -68q-8 -5 -13.5 -1.5 t-10.5 10.5q-14 17 0 27l122 97q6 5 12 5z" glyph-name="jcircumflex" horiz-adv-x="230" unicode="ĵ"/><glyph d="M96 24v652q0 10 7 17t17 7h29q10 0 17 -7t7 -17v-289l312 303q8 10 19 10h49q9 0 14.5 -5t5.5 -13q0 -10 -8 -17l-316 -301l331 -333q4 -4 4 -11q0 -8 -5 -14t-16 -6h-51q-5 0 -10.5 2t-7.5 5l-321 329v-312q0 -10 -7 -17t-17 -7h-29q-10 0 -17 7t-7 17zM253 -119 q0 22 15 35t39 13q32 0 50.5 -22.5t18.5 -62.5q0 -66 -46 -112q-3 -3 -7 -3t-8 3l-16 12q-8 8 0 17q12 10 20.5 28t8.5 37q0 14 -5 22q-7 -7 -25 -7q-20 0 -32.5 11t-12.5 29z" glyph-name="uni0136" horiz-adv-x="601" unicode="Ķ"/><glyph d="M78 22v656q0 8 6.5 15t15.5 7h30q8 0 15 -7t7 -15v-391l192 161q16 14 28 14h56q16 0 16 -15q0 -10 -5 -13l-213 -177l229 -228q5 -5 5 -13q0 -6 -4 -11t-13 -5h-57q-14 0 -23 9l-211 223v-210q0 -9 -7 -15.5t-15 -6.5h-30q-9 0 -15.5 6.5t-6.5 15.5zM200 -119 q0 22 15 35t39 13q32 0 50.5 -22.5t18.5 -62.5q0 -66 -46 -112q-3 -3 -7 -3t-8 3l-16 12q-8 8 0 17q12 10 20.5 28t8.5 37q0 14 -5 22q-7 -7 -25 -7q-20 0 -32.5 11t-12.5 29z" glyph-name="uni0137" horiz-adv-x="484" unicode="ķ"/><glyph d="M78 22v418q0 8 6.5 15t15.5 7h30q8 0 15 -7t7 -15v-191l206 199q14 14 27 14h55q16 0 16 -15q0 -8 -6 -13l-226 -205l256 -200q5 -5 5 -13q0 -6 -4.5 -11t-12.5 -5h-59q-12 0 -23 9l-234 191v-178q0 -9 -7 -15.5t-15 -6.5h-30q-9 0 -15.5 6.5t-6.5 15.5z" glyph-name="kgreenlandic" horiz-adv-x="504" unicode="ĸ"/><glyph d="M96 19v662q0 8 5.5 13.5t13.5 5.5h39q8 0 13.5 -6t5.5 -13v-614h288q8 0 13.5 -5.5t5.5 -13.5v-29q0 -8 -5.5 -13.5t-13.5 -5.5h-346q-8 0 -13.5 5.5t-5.5 13.5zM32 789q-4 8 -3.5 16.5t5.5 11.5l156 95q10 6 22.5 1t18.5 -19t5.5 -25.5t-10.5 -16.5l-170 -77 q-6 -3 -12.5 1.5t-11.5 12.5z" glyph-name="Lacute" horiz-adv-x="494" unicode="Ĺ"/><glyph d="M83 22v656q0 8 6.5 15t15.5 7h30q8 0 15 -7t7 -15v-656q0 -9 -6.5 -15.5t-15.5 -6.5h-30q-9 0 -15.5 6.5t-6.5 15.5zM22 784q-4 8 -3.5 16.5t5.5 11.5l156 95q10 6 22 1t19 -19q6 -14 5.5 -25.5t-10.5 -16.5l-170 -77q-6 -3 -12.5 1.5t-11.5 12.5z" glyph-name="lacute" horiz-adv-x="240" unicode="ĺ"/><glyph d="M96 19v662q0 8 5.5 13.5t13.5 5.5h39q8 0 13.5 -6t5.5 -13v-614h288q8 0 13.5 -5.5t5.5 -13.5v-29q0 -8 -5.5 -13.5t-13.5 -5.5h-346q-8 0 -13.5 5.5t-5.5 13.5zM235 -119q0 22 15 35t39 13q32 0 50.5 -22.5t18.5 -62.5q0 -66 -46 -112q-3 -3 -7 -3t-8 3l-16 12 q-8 8 0 17q12 10 20.5 28t8.5 37q0 14 -5 22q-7 -7 -25 -7q-20 0 -32.5 11t-12.5 29z" glyph-name="uni013B" horiz-adv-x="494" unicode="Ļ"/><glyph d="M83 22v656q0 8 6.5 15t15.5 7h30q8 0 15 -7t7 -15v-656q0 -9 -6.5 -15.5t-15.5 -6.5h-30q-9 0 -15.5 6.5t-6.5 15.5zM65 -119q0 22 15 35t39 13q32 0 50.5 -22.5t18.5 -62.5q0 -66 -46 -112q-3 -3 -7 -3t-8 3l-16 12q-8 8 0 17q12 10 20.5 28t8.5 37q0 14 -5 22 q-7 -7 -25 -7q-20 0 -32.5 11t-12.5 29z" glyph-name="uni013C" horiz-adv-x="240" unicode="ļ"/><glyph d="M96 19v662q0 8 5.5 13.5t13.5 5.5h39q8 0 13.5 -6t5.5 -13v-614h288q8 0 13.5 -5.5t5.5 -13.5v-29q0 -8 -5.5 -13.5t-13.5 -5.5h-346q-8 0 -13.5 5.5t-5.5 13.5zM334 663q0 22 15 35t39 13q32 0 50.5 -22.5t18.5 -62.5q0 -66 -46 -112q-3 -3 -7 -3t-8 3l-16 12q-8 8 0 17 q12 10 20.5 28t8.5 37q0 14 -5 22q-7 -7 -25 -7q-20 0 -32.5 11t-12.5 29z" glyph-name="Lcaron" horiz-adv-x="502" unicode="Ľ"/><glyph d="M83 22v656q0 8 6.5 15t15.5 7h30q8 0 15 -7t7 -15v-656q0 -9 -6.5 -15.5t-15.5 -6.5h-30q-9 0 -15.5 6.5t-6.5 15.5zM210 663q0 22 15 35t39 13q32 0 50.5 -22.5t18.5 -62.5q0 -66 -46 -112q-3 -3 -7 -3t-8 3l-16 12q-8 8 0 17q12 10 20.5 28t8.5 37q0 14 -5 22 q-7 -7 -25 -7q-20 0 -32.5 11t-12.5 29z" glyph-name="lcaron" horiz-adv-x="240" unicode="ľ"/><glyph d="M96 19v662q0 8 5.5 13.5t13.5 5.5h39q8 0 13.5 -6t5.5 -13v-614h288q8 0 13.5 -5.5t5.5 -13.5v-29q0 -8 -5.5 -13.5t-13.5 -5.5h-346q-8 0 -13.5 5.5t-5.5 13.5zM438 292q-23 0 -40 17t-17 40q0 24 17 40.5t40 16.5q24 0 40.5 -16.5t16.5 -40.5q0 -23 -16.5 -40 t-40.5 -17z" glyph-name="Ldot" horiz-adv-x="516" unicode="Ŀ"/><glyph d="M83 22v656q0 8 6.5 15t15.5 7h30q8 0 15 -7t7 -15v-656q0 -9 -6.5 -15.5t-15.5 -6.5h-30q-9 0 -15.5 6.5t-6.5 15.5zM292 288q-23 0 -40 17t-17 40q0 24 17 40.5t40 16.5q24 0 40.5 -16.5t16.5 -40.5q0 -23 -16.5 -40t-40.5 -17z" glyph-name="ldot" horiz-adv-x="345" unicode="ŀ"/><glyph d="M94 19v292l-21 -12q-16 -10 -25 7l-4 8q-2 6 -2 8q0 12 9 16l43 24v319q0 8 5.5 13.5t13.5 5.5h39q8 0 13.5 -6t5.5 -13v-274l111 64q8 4 15.5 1.5t10.5 -8.5l3 -6q4 -10 1.5 -17t-8.5 -9l-133 -76v-289h288q8 0 13.5 -5.5t5.5 -13.5v-29q0 -8 -5.5 -13.5t-13.5 -5.5 h-346q-8 0 -13.5 5.5t-5.5 13.5z" glyph-name="Lslash" horiz-adv-x="494" unicode="Ł"/><glyph d="M91 22v298l-48 -27q-6 -4 -13.5 -1.5t-11.5 8.5l-3 6q-3 6 -3 10q0 12 9 16l70 40v306q0 8 6.5 15t15.5 7h30q8 0 15 -7t7 -15v-263l87 50q10 4 17 1t9 -8l3 -6q2 -3 2 -9q0 -12 -9 -17l-109 -63v-341q0 -9 -6.5 -15.5t-15.5 -6.5h-30q-9 0 -15.5 6.5t-6.5 15.5z" glyph-name="lslash" horiz-adv-x="290" unicode="ł"/><glyph d="M96 19v673q0 8 6 13t13 5h15q10 0 16 -8l445 -554h2v533q0 8 5.5 13.5t13.5 5.5h35q8 0 13.5 -6t5.5 -13v-673q0 -8 -6 -13t-13 -5h-8q-10 0 -16 8l-453 565h-1v-544q0 -8 -5.5 -13.5t-13.5 -5.5h-35q-8 0 -13.5 5.5t-5.5 13.5zM290 789q-4 8 -3.5 16.5t5.5 11.5l156 95 q10 6 22.5 1t18.5 -19t5.5 -25.5t-10.5 -16.5l-170 -77q-6 -3 -12.5 1.5t-11.5 12.5z" glyph-name="Nacute" horiz-adv-x="762" unicode="Ń"/><glyph d="M78 448q0 18 18 18q22 0 34 -14.5t14 -37.5q22 19 61.5 38.5t93.5 19.5q50 0 82.5 -15.5t51 -43t26 -65t7.5 -82.5v-244q0 -9 -7 -15.5t-15 -6.5h-30q-9 0 -15.5 6.5t-6.5 15.5v254q0 66 -23.5 97.5t-74.5 31.5q-33 0 -59 -10t-45 -22q-22 -14 -38 -32v-319 q0 -9 -7 -15.5t-15 -6.5h-30q-9 0 -15.5 6.5t-6.5 15.5v426zM171 567q-4 8 -3.5 16.5t5.5 11.5l156 95q10 6 22 1t19 -19q6 -14 5.5 -25.5t-10.5 -16.5l-170 -77q-6 -3 -12.5 1.5t-11.5 12.5z" glyph-name="nacute" horiz-adv-x="539" unicode="ń"/><glyph d="M96 19v673q0 8 6 13t13 5h15q10 0 16 -8l445 -554h2v533q0 8 5.5 13.5t13.5 5.5h35q8 0 13.5 -6t5.5 -13v-673q0 -8 -6 -13t-13 -5h-8q-10 0 -16 8l-453 565h-1v-544q0 -8 -5.5 -13.5t-13.5 -5.5h-35q-8 0 -13.5 5.5t-5.5 13.5zM329 -119q0 22 15 35t39 13 q32 0 50.5 -22.5t18.5 -62.5q0 -66 -46 -112q-3 -3 -7 -3t-8 3l-16 12q-8 8 0 17q12 10 20.5 28t8.5 37q0 14 -5 22q-7 -7 -25 -7q-20 0 -32.5 11t-12.5 29z" glyph-name="uni0145" horiz-adv-x="762" unicode="Ņ"/><glyph d="M78 448q0 18 18 18q22 0 34 -14.5t14 -37.5q22 19 61.5 38.5t93.5 19.5q50 0 82.5 -15.5t51 -43t26 -65t7.5 -82.5v-244q0 -9 -7 -15.5t-15 -6.5h-30q-9 0 -15.5 6.5t-6.5 15.5v254q0 66 -23.5 97.5t-74.5 31.5q-33 0 -59 -10t-45 -22q-22 -14 -38 -32v-319 q0 -9 -7 -15.5t-15 -6.5h-30q-9 0 -15.5 6.5t-6.5 15.5v426zM217 -119q0 22 15 35t39 13q32 0 50.5 -22.5t18.5 -62.5q0 -66 -46 -112q-3 -3 -7 -3t-8 3l-16 12q-8 8 0 17q12 10 20.5 28t8.5 37q0 14 -5 22q-7 -7 -25 -7q-20 0 -32.5 11t-12.5 29z" glyph-name="uni0146" horiz-adv-x="539" unicode="ņ"/><glyph d="M96 19v673q0 8 6 13t13 5h15q10 0 16 -8l445 -554h2v533q0 8 5.5 13.5t13.5 5.5h35q8 0 13.5 -6t5.5 -13v-673q0 -8 -6 -13t-13 -5h-8q-10 0 -16 8l-453 565h-1v-544q0 -8 -5.5 -13.5t-13.5 -5.5h-35q-8 0 -13.5 5.5t-5.5 13.5zM384 769q-6 0 -12 5l-122 97q-6 5 -6 12 t6 15q5 7 10.5 10.5t13.5 -1.5l110 -68l110 68q8 5 13.5 1.5t10.5 -10.5q13 -17 0 -27l-122 -97q-6 -5 -12 -5z" glyph-name="Ncaron" horiz-adv-x="762" unicode="Ň"/><glyph d="M78 448q0 18 18 18q22 0 34 -14.5t14 -37.5q22 19 61.5 38.5t93.5 19.5q50 0 82.5 -15.5t51 -43t26 -65t7.5 -82.5v-244q0 -9 -7 -15.5t-15 -6.5h-30q-9 0 -15.5 6.5t-6.5 15.5v254q0 66 -23.5 97.5t-74.5 31.5q-33 0 -59 -10t-45 -22q-22 -14 -38 -32v-319 q0 -9 -7 -15.5t-15 -6.5h-30q-9 0 -15.5 6.5t-6.5 15.5v426zM272 543q-6 0 -12 5l-122 97q-6 5 -6 12t6 15q5 7 10.5 10.5t13.5 -1.5l110 -68l110 68q8 5 13.5 1.5t10.5 -10.5q13 -17 0 -27l-122 -97q-6 -5 -12 -5z" glyph-name="ncaron" horiz-adv-x="539" unicode="ň"/><glyph d="M-40 663q0 22 15 35t39 13q32 0 50.5 -22.5t18.5 -62.5q0 -66 -46 -112q-3 -3 -7 -3t-8 3l-16 12q-8 8 0 17q12 10 20.5 28t8.5 37q0 14 -5 22q-7 -7 -25 -7q-20 0 -32.5 11t-12.5 29zM78 448q0 18 18 18q22 0 34 -14.5t14 -37.5q22 19 61.5 38.5t93.5 19.5 q50 0 82.5 -15.5t51 -43t26 -65t7.5 -82.5v-244q0 -9 -7 -15.5t-15 -6.5h-30q-9 0 -15.5 6.5t-6.5 15.5v254q0 66 -23.5 97.5t-74.5 31.5q-33 0 -59 -10t-45 -22q-22 -14 -38 -32v-319q0 -9 -7 -15.5t-15 -6.5h-30q-9 0 -15.5 6.5t-6.5 15.5v426z" glyph-name="napostrophe" horiz-adv-x="539" unicode="ŉ"/><glyph d="M667 440v-490q0 -89 -35 -137t-96 -61h-5q-13 0 -16 12l-10 30q-2 6 -2 8q0 14 16 19q38 14 56 39.5t18 82.5v89l-423 531h-1v-544q0 -8 -5.5 -13.5t-13.5 -5.5h-35q-8 0 -13.5 6t-5.5 13v673q0 8 6 13t13 5h25l451 -562h2v533q0 8 5.5 13.5t13.5 5.5h35q8 0 13.5 -6 t5.5 -13v-234q1 -2 1 -7z" glyph-name="Eng" horiz-adv-x="763" unicode="Ŋ"/><glyph d="M392 276q0 66 -23.5 97.5t-74.5 31.5q-33 0 -59 -10t-45 -22q-22 -14 -38 -32v-319q0 -9 -7 -15.5t-15 -6.5h-30q-9 0 -15.5 6.5t-6.5 15.5v426q0 18 18 18q22 0 34 -15t14 -38q11 9 26 19.5t34.5 19.5t43 14.5t51.5 5.5q50 0 82.5 -15.5t51 -43t26 -65t7.5 -82.5v-316 q0 -47 -10 -81.5t-27 -58.5t-41.5 -38t-52.5 -20q-17 -3 -21 12l-10 30q-4 11 1 17.5t13 9.5q18 6 31.5 15t23 22.5t14.5 34t5 50.5v333z" glyph-name="eng" horiz-adv-x="540" unicode="ŋ"/><glyph d="M100 168q-48 82 -48 181t48 182t130 131t181 48t181.5 -48t130.5 -131t48 -182t-48 -181t-130.5 -130t-181.5 -48t-181 48t-130 130zM145 461q-23 -53 -23 -112t23 -112t62 -92t92 -62t112 -23t112.5 23t92 62t62 92t23.5 112t-23.5 112.5t-62 93t-92 62.5t-112.5 23 t-112 -23t-92 -62.5t-62 -93.5zM284 821q-8 0 -13.5 5.5t-5.5 12.5v21q0 8 5.5 13.5t13.5 5.5h256q8 0 13.5 -5.5t5.5 -13.5v-21q0 -8 -5.5 -13t-13.5 -5h-256z" glyph-name="Omacron" horiz-adv-x="823" unicode="Ō"/><glyph d="M48 232q0 64 31 119t84.5 88t116.5 33t116.5 -33t84.5 -88t31 -119q0 -65 -31 -121t-84.5 -89t-116.5 -33t-116.5 33t-84.5 89t-31 121zM122 232q-1 -73 44.5 -124.5t113.5 -51.5t113 51.5t45 124.5q0 72 -45 122.5t-113 50.5t-113.5 -50.5t-44.5 -122.5zM151 583 q-8 0 -13.5 5t-5.5 13v21q0 19 19 19h256q19 0 19 -19v-21q0 -8 -5.5 -13t-13.5 -5h-256v0z" glyph-name="omacron" horiz-adv-x="560" unicode="ō"/><glyph d="M100 168q-48 82 -48 181t48 182t130 131t181 48t181.5 -48t130.5 -131t48 -182t-48 -181t-130.5 -130t-181.5 -48t-181 48t-130 130zM145 461q-23 -53 -23 -112t23 -112t62 -92t92 -62t112 -23t112.5 23t92 62t62 92t23.5 112t-23.5 112.5t-62 93t-92 62.5t-112.5 23 t-112 -23t-92 -62.5t-62 -93.5zM410 771q-52 0 -90 32.5t-45 81.5v5q0 15 14 15h21q14 0 19 -17q8 -29 30 -46.5t51 -17.5q27 0 49 18.5t30 45.5q6 17 19 17h23q14 0 14 -15q0 -49 -42.5 -84t-92.5 -35z" glyph-name="Obreve" horiz-adv-x="823" unicode="Ŏ"/><glyph d="M48 232q0 64 31 119t84.5 88t116.5 33t116.5 -33t84.5 -88t31 -119q0 -65 -31 -121t-84.5 -89t-116.5 -33t-116.5 33t-84.5 89t-31 121zM122 232q-1 -73 44.5 -124.5t113.5 -51.5t113 51.5t45 124.5q0 72 -45 122.5t-113 50.5t-113.5 -50.5t-44.5 -122.5zM276 531 q-52 0 -90 32.5t-45 81.5v5q0 15 14 15h21q14 0 19 -17q8 -29 30 -46.5t51 -17.5q27 0 49 18.5t30 45.5q6 17 19 17h23q14 0 14 -15q0 -49 -42.5 -84t-92.5 -35z" glyph-name="obreve" horiz-adv-x="560" unicode="ŏ"/><glyph d="M100 168q-48 82 -48 181t48 182t130 131t181 48t181.5 -48t130.5 -131t48 -182t-48 -181t-130.5 -130t-181.5 -48t-181 48t-130 130zM145 461q-23 -53 -23 -112t23 -112t62 -92t92 -62t112 -23t112.5 23t92 62t62 92t23.5 112t-23.5 112.5t-62 93t-92 62.5t-112.5 23 t-112 -23t-92 -62.5t-62 -93.5zM339 763q-7 3 -11.5 8.5t-2.5 13.5l54 168q3 11 15 13t26 -3q13 -5 19.5 -14.5t2.5 -17.5l-75 -163q-3 -7 -11.5 -8t-16.5 3zM505 763q-7 3 -11.5 8.5t-2.5 13.5l54 168q3 11 15 13t26 -3q13 -5 19.5 -14.5t2.5 -17.5l-75 -163 q-3 -7 -11.5 -8t-16.5 3z" glyph-name="Ohungarumlaut" horiz-adv-x="823" unicode="Ő"/><glyph d="M48 232q0 64 31 119t84.5 88t116.5 33t116.5 -33t84.5 -88t31 -119q0 -65 -31 -121t-84.5 -89t-116.5 -33t-116.5 33t-84.5 89t-31 121zM122 232q-1 -73 44.5 -124.5t113.5 -51.5t113 51.5t45 124.5q0 72 -45 122.5t-113 50.5t-113.5 -50.5t-44.5 -122.5zM197 513 q-7 3 -11.5 8.5t-2.5 13.5l54 168q3 11 15 13t26 -3q13 -5 19.5 -14.5t2.5 -17.5l-75 -163q-3 -7 -11.5 -8t-16.5 3zM363 513q-7 3 -11.5 8.5t-2.5 13.5l54 168q3 11 15 13t26 -3q13 -5 19.5 -14.5t2.5 -17.5l-75 -163q-3 -7 -11.5 -8t-16.5 3z" glyph-name="ohungarumlaut" horiz-adv-x="560" unicode="ő"/><glyph d="M411 710q44 0 86 -10h394q8 0 13.5 -6t5.5 -13v-29q0 -8 -5.5 -13.5t-13.5 -5.5h-336v-244h287q8 0 13.5 -5.5t5.5 -13.5v-29q0 -8 -5.5 -13.5t-13.5 -5.5h-287v-255h336q8 0 13.5 -5.5t5.5 -13.5v-29q0 -8 -5.5 -13.5t-13.5 -5.5h-394q-40 -10 -86 -10q-98 0 -180.5 48 t-130.5 130t-48 181t48 182t130 131t181 48zM411 60q36 0 67 7v564q-35 8 -67 8q-58 0 -111.5 -23.5t-92.5 -62t-62 -92t-23 -112.5t23 -112t62 -92t92 -62t112 -23z" glyph-name="OE" horiz-adv-x="958" unicode="Œ"/><glyph d="M48 233q0 64 30 119t83 87.5t116 32.5q56 0 106.5 -26.5t82.5 -72.5q64 99 182 99q88 0 148.5 -58t60.5 -152q0 -12 -2 -28q0 -8 -6.5 -14t-14.5 -6h-332q3 -66 49.5 -112t104.5 -46q39 0 64.5 9t59.5 29q10 5 15 5q8 0 14 -8l13 -20q7 -10 7 -14q0 -7 -11 -15 q-26 -20 -71 -36.5t-99 -16.5q-58 0 -104 28.5t-78 76.5q-32 -47 -83 -76t-106 -29q-62 0 -115.5 33.5t-83.5 89.5t-30 121zM504 272h279q-2 58 -40 95.5t-95 37.5t-97.5 -39.5t-46.5 -93.5zM436 232q0 72 -45 122.5t-112 50.5t-113.5 -50.5t-46.5 -122.5t46.5 -124 t113.5 -52t112 51.5t45 124.5z" glyph-name="oe" horiz-adv-x="900" unicode="œ"/><glyph d="M96 19v662q0 8 5.5 13.5t13.5 5.5h259q90 0 154 -62t64 -151q0 -68 -41 -122.5t-107 -81.5l137 -254q3 -4 3 -10q0 -8 -5 -13.5t-15 -5.5h-48q-14 0 -22 15l-130 259h-191v-255q0 -8 -5.5 -13.5t-13.5 -5.5h-39q-8 0 -13.5 5.5t-5.5 13.5zM175 340h194q58 0 101 42.5 t43 103.5q0 57 -43 99t-101 42h-194v-287zM207 789q-4 8 -3.5 16.5t5.5 11.5l156 95q10 6 22.5 1t18.5 -19t5.5 -25.5t-10.5 -16.5l-170 -77q-6 -3 -12.5 1.5t-11.5 12.5z" glyph-name="Racute" horiz-adv-x="650" unicode="Ŕ"/><glyph d="M78 448q0 18 18 18q22 0 34 -14.5t14 -37.5q19 20 53.5 39t88.5 19q13 0 29 -1.5t29 -5t20 -11t3 -19.5l-13 -36q-4 -11 -11.5 -13t-15.5 2t-20.5 8.5t-29.5 4.5q-34 0 -57.5 -9.5t-38.5 -20.5q-18 -13 -29 -29v-320q0 -9 -7 -15.5t-15 -6.5h-30q-9 0 -15.5 6.5 t-6.5 15.5v426zM109 567q-4 8 -3.5 16.5t5.5 11.5l156 95q10 6 22 1t19 -19q6 -14 5.5 -25.5t-10.5 -16.5l-170 -77q-6 -3 -12.5 1.5t-11.5 12.5z" glyph-name="racute" horiz-adv-x="386" unicode="ŕ"/><glyph d="M96 19v662q0 8 5.5 13.5t13.5 5.5h259q90 0 154 -62t64 -151q0 -68 -41 -122.5t-107 -81.5l137 -254q3 -4 3 -10q0 -8 -5 -13.5t-15 -5.5h-48q-14 0 -22 15l-130 259h-191v-255q0 -8 -5.5 -13.5t-13.5 -5.5h-39q-8 0 -13.5 5.5t-5.5 13.5zM175 340h194q58 0 101 42.5 t43 103.5q0 57 -43 99t-101 42h-194v-287zM256 -119q0 22 15 35t39 13q32 0 50.5 -22.5t18.5 -62.5q0 -66 -46 -112q-3 -3 -7 -3t-8 3l-16 12q-8 8 0 17q12 10 20.5 28t8.5 37q0 14 -5 22q-7 -7 -25 -7q-20 0 -32.5 11t-12.5 29z" glyph-name="uni0156" horiz-adv-x="650" unicode="Ŗ"/><glyph d="M78 448q0 18 18 18q22 0 34 -14.5t14 -37.5q19 20 53.5 39t88.5 19q13 0 29 -1.5t29 -5t20 -11t3 -19.5l-13 -36q-4 -11 -11.5 -13t-15.5 2t-20.5 8.5t-29.5 4.5q-34 0 -57.5 -9.5t-38.5 -20.5q-18 -13 -29 -29v-320q0 -9 -7 -15.5t-15 -6.5h-30q-9 0 -15.5 6.5 t-6.5 15.5v426zM64 -119q0 22 15 35t39 13q32 0 50.5 -22.5t18.5 -62.5q0 -66 -46 -112q-3 -3 -7 -3t-8 3l-16 12q-8 8 0 17q12 10 20.5 28t8.5 37q0 14 -5 22q-7 -7 -25 -7q-20 0 -32.5 11t-12.5 29z" glyph-name="uni0157" horiz-adv-x="386" unicode="ŗ"/><glyph d="M96 19v662q0 8 5.5 13.5t13.5 5.5h259q90 0 154 -62t64 -151q0 -68 -41 -122.5t-107 -81.5l137 -254q3 -4 3 -10q0 -8 -5 -13.5t-15 -5.5h-48q-14 0 -22 15l-130 259h-191v-255q0 -8 -5.5 -13.5t-13.5 -5.5h-39q-8 0 -13.5 5.5t-5.5 13.5zM175 340h194q58 0 101 42.5 t43 103.5q0 57 -43 99t-101 42h-194v-287zM298 769q-6 0 -12 5l-122 97q-6 5 -6 12t6 15q5 7 10.5 10.5t13.5 -1.5l110 -68l110 68q8 5 13.5 1.5t10.5 -10.5q13 -17 0 -27l-122 -97q-6 -5 -12 -5z" glyph-name="Rcaron" horiz-adv-x="650" unicode="Ř"/><glyph d="M77 448q0 18 18 18q22 0 34 -14.5t14 -37.5q19 20 53.5 39t88.5 19q13 0 29 -1.5t29 -5t20 -11t3 -19.5l-13 -36q-4 -11 -11.5 -13t-15.5 2t-20.5 8.5t-29.5 4.5q-34 0 -57.5 -9.5t-38.5 -20.5q-18 -13 -29 -29v-320q0 -9 -7 -15.5t-15 -6.5h-30q-9 0 -15.5 6.5 t-6.5 15.5v426zM193 543q-6 0 -12 5l-122 97q-6 5 -6 12t6 15q5 7 10.5 10.5t13.5 -1.5l110 -68l110 68q8 5 13.5 1.5t10.5 -10.5q13 -17 0 -27l-122 -97q-6 -5 -12 -5z" glyph-name="rcaron" horiz-adv-x="386" unicode="ř"/><glyph d="M56 71q-3 3 -6.5 6t-5 7t-0.5 9t6 12l15 19q8 10 14.5 12.5t17.5 -6.5q3 -2 17.5 -14t37.5 -25t53.5 -23.5t63.5 -10.5q30 0 55 9t42.5 24.5t27 36t9.5 44.5q0 52 -44 87t-131 71q-41 18 -74 36t-55.5 41t-34.5 53t-12 73q0 25 11 56t36 58t65.5 45.5t100.5 18.5 q37 0 68 -8t54 -18q26 -11 49 -25q5 -2 9.5 -11t-3.5 -23l-10 -17q-11 -19 -35 -5q-32 19 -61.5 29.5t-71.5 10.5q-40 0 -66.5 -11.5t-42.5 -28t-22.5 -35.5t-6.5 -35q0 -53 36 -82t99 -55q51 -21 92 -42t70 -46.5t44.5 -58t15.5 -75.5q0 -39 -17.5 -72.5t-47 -58.5 t-68.5 -39t-83 -14t-81 11t-64 25t-44 27t-22 18zM180 789q-4 8 -3.5 16.5t5.5 11.5l156 95q10 6 22.5 1t18.5 -19t5.5 -25.5t-10.5 -16.5l-170 -77q-6 -3 -12.5 1.5t-11.5 12.5z" glyph-name="Sacute" horiz-adv-x="532" unicode="Ś"/><glyph d="M209 -11q-29 0 -53 5.5t-43.5 14t-33.5 18.5t-23 18q-9 9 -3 20l14 26q5 8 11 10.5t16 -4.5q6 -5 16.5 -11.5t25 -13.5t33 -11.5t40.5 -4.5q35 0 57 15.5t22 42.5q0 16 -6.5 28.5t-19.5 23t-32.5 21t-44.5 22.5q-23 11 -46.5 23.5t-42 29t-30.5 38t-12 51.5q0 18 7.5 39 t24 39.5t44 30.5t67.5 12q45 0 80 -12t52 -24q15 -12 5 -31l-10 -19q-5 -10 -14.5 -11.5t-17.5 3.5q-15 9 -39 18t-56 9q-38 0 -53 -17t-15 -34q0 -15 6 -26t17 -20t27.5 -17.5t37.5 -18.5q30 -14 57 -27.5t47.5 -30.5t32.5 -39.5t12 -53.5q0 -27 -11.5 -51t-32 -42 t-49.5 -28.5t-64 -10.5zM113 567q-4 8 -3.5 16.5t5.5 11.5l156 95q10 6 22 1t19 -19q6 -14 5.5 -25.5t-10.5 -16.5l-170 -77q-6 -3 -12.5 1.5t-11.5 12.5z" glyph-name="sacute" horiz-adv-x="406" unicode="ś"/><glyph d="M56 71q-3 3 -6.5 6t-5 7t-0.5 9t6 12l15 19q8 10 14.5 12.5t17.5 -6.5q3 -2 17.5 -14t37.5 -25t53.5 -23.5t63.5 -10.5q30 0 55 9t42.5 24.5t27 36t9.5 44.5q0 52 -44 87t-131 71q-41 18 -74 36t-55.5 41t-34.5 53t-12 73q0 25 11 56t36 58t65.5 45.5t100.5 18.5 q37 0 68 -8t54 -18q26 -11 49 -25q5 -2 9.5 -11t-3.5 -23l-10 -17q-11 -19 -35 -5q-32 19 -61.5 29.5t-71.5 10.5q-40 0 -66.5 -11.5t-42.5 -28t-22.5 -35.5t-6.5 -35q0 -53 36 -82t99 -55q51 -21 92 -42t70 -46.5t44.5 -58t15.5 -75.5q0 -39 -17.5 -72.5t-47 -58.5 t-68.5 -39t-83 -14t-81 11t-64 25t-44 27t-22 18zM279 909q6 0 12 -5l122 -97q13 -10 0 -27q-5 -7 -10.5 -10.5t-13.5 1.5l-110 68l-110 -68q-8 -5 -13.5 -1.5t-10.5 10.5q-14 17 0 27l122 97q6 5 12 5z" glyph-name="Scircumflex" horiz-adv-x="532" unicode="Ŝ"/><glyph d="M209 -11q-29 0 -53 5.5t-43.5 14t-33.5 18.5t-23 18q-9 9 -3 20l14 26q5 8 11 10.5t16 -4.5q6 -5 16.5 -11.5t25 -13.5t33 -11.5t40.5 -4.5q35 0 57 15.5t22 42.5q0 16 -6.5 28.5t-19.5 23t-32.5 21t-44.5 22.5q-23 11 -46.5 23.5t-42 29t-30.5 38t-12 51.5q0 18 7.5 39 t24 39.5t44 30.5t67.5 12q45 0 80 -12t52 -24q15 -12 5 -31l-10 -19q-5 -10 -14.5 -11.5t-17.5 3.5q-15 9 -39 18t-56 9q-38 0 -53 -17t-15 -34q0 -15 6 -26t17 -20t27.5 -17.5t37.5 -18.5q30 -14 57 -27.5t47.5 -30.5t32.5 -39.5t12 -53.5q0 -27 -11.5 -51t-32 -42 t-49.5 -28.5t-64 -10.5zM214 690q6 0 12 -5l122 -97q13 -10 0 -27q-5 -7 -10.5 -10.5t-13.5 1.5l-110 68l-110 -68q-8 -5 -13.5 -1.5t-10.5 10.5q-14 17 0 27l122 97q6 5 12 5z" glyph-name="scircumflex" horiz-adv-x="405" unicode="ŝ"/><glyph d="M57 71l-3 3q-4 2 -5 4l-2.5 5t-1.5 6q0 7 6 16l15 19q12 15 22 15q6 0 13 -6q88 -76 169 -76q59 0 96.5 32.5t37.5 77.5q0 50 -41.5 84.5t-133.5 73.5q-46 20 -74.5 37t-53.5 41.5t-36.5 55.5t-11.5 73q0 22 6.5 45t22.5 47t40 43t61 31t83 12t93 -15t78 -36 q11 -6 11 -18q0 -8 -5 -16l-12 -19q-10 -14 -20 -14q-5 0 -15 5l-5 3l-10 6t-13.5 7.5t-17 8.5t-19.5 8t-21 7t-22 4.5t-23 1.5q-30 0 -54.5 -7.5t-39.5 -19t-25.5 -27t-14.5 -29.5t-4 -27q0 -48 33.5 -80.5t101.5 -60.5q45 -18 75.5 -33t60.5 -35t47 -41t28 -50t11 -63 q0 -74 -59.5 -125t-144.5 -55l-37 -57q12 4 25 4q35 0 59.5 -20.5t24.5 -62.5t-32 -68t-77 -26q-52 0 -82 28q-7 7 0 21l8 15q7 14 21 5q20 -20 50 -20q26 0 41 12.5t15 32.5q0 22 -14 33.5t-39 11.5q-24 0 -44 -10q-5 -2 -10 2.5t-2 10.5l44 91q-111 18 -174 78z" glyph-name="Scedilla" horiz-adv-x="532" unicode="Ş"/><glyph d="M361 121q0 -54 -41.5 -92t-107.5 -40l-36 -56q12 4 25 4q35 0 59.5 -20.5t24.5 -62.5t-32 -68t-77 -26q-52 0 -82 28q-7 7 0 21l8 15q7 14 21 5q20 -20 50 -20q26 0 41 12.5t15 32.5q0 22 -14 33.5t-39 11.5q-24 0 -44 -10q-5 -2 -10 2.5t-2 10.5l43 90q-66 10 -109 48 q-7 5 -7 19q0 4 1 6l14 26q5 10 16 10q7 0 16 -6q10 -8 15.5 -11.5t21.5 -11.5t34 -12t39 -4q36 0 57.5 16t21.5 42q0 13 -5 24t-11.5 18.5t-22 17.5t-27.5 16t-37 19q-19 10 -27 13.5t-25 13.5t-25.5 17t-21 18.5t-18 22t-10 25.5t-4.5 32q0 20 8 39.5t23 38.5t44.5 31 t67.5 12q42 0 76 -10t53 -24q11 -8 11 -21q0 -6 -3 -12l-10 -19q-6 -12 -19 -12q-5 0 -13 4q-45 27 -95 27q-34 0 -51 -15.5t-17 -32.5q0 -13 4.5 -23.5t9.5 -17t20 -15.5t23 -13t31 -16q69 -33 91 -48q53 -37 58 -93v-10z" glyph-name="scedilla" horiz-adv-x="406" unicode="ş"/><glyph d="M56 71q-3 3 -6.5 6t-5 7t-0.5 9t6 12l15 19q8 10 14.5 12.5t17.5 -6.5q3 -2 17.5 -14t37.5 -25t53.5 -23.5t63.5 -10.5q30 0 55 9t42.5 24.5t27 36t9.5 44.5q0 52 -44 87t-131 71q-41 18 -74 36t-55.5 41t-34.5 53t-12 73q0 25 11 56t36 58t65.5 45.5t100.5 18.5 q37 0 68 -8t54 -18q26 -11 49 -25q5 -2 9.5 -11t-3.5 -23l-10 -17q-11 -19 -35 -5q-32 19 -61.5 29.5t-71.5 10.5q-40 0 -66.5 -11.5t-42.5 -28t-22.5 -35.5t-6.5 -35q0 -53 36 -82t99 -55q51 -21 92 -42t70 -46.5t44.5 -58t15.5 -75.5q0 -39 -17.5 -72.5t-47 -58.5 t-68.5 -39t-83 -14t-81 11t-64 25t-44 27t-22 18zM271 769q-6 0 -12 5l-122 97q-6 5 -6 12t6 15q5 7 10.5 10.5t13.5 -1.5l110 -68l110 68q8 5 13.5 1.5t10.5 -10.5q13 -17 0 -27l-122 -97q-6 -5 -12 -5z" glyph-name="Scaron" horiz-adv-x="532" unicode="Š"/><glyph d="M209 -11q-29 0 -53 5.5t-43.5 14t-33.5 18.5t-23 18q-9 9 -3 20l14 26q5 8 11 10.5t16 -4.5q6 -5 16.5 -11.5t25 -13.5t33 -11.5t40.5 -4.5q35 0 57 15.5t22 42.5q0 16 -6.5 28.5t-19.5 23t-32.5 21t-44.5 22.5q-23 11 -46.5 23.5t-42 29t-30.5 38t-12 51.5q0 18 7.5 39 t24 39.5t44 30.5t67.5 12q45 0 80 -12t52 -24q15 -12 5 -31l-10 -19q-5 -10 -14.5 -11.5t-17.5 3.5q-15 9 -39 18t-56 9q-38 0 -53 -17t-15 -34q0 -15 6 -26t17 -20t27.5 -17.5t37.5 -18.5q30 -14 57 -27.5t47.5 -30.5t32.5 -39.5t12 -53.5q0 -27 -11.5 -51t-32 -42 t-49.5 -28.5t-64 -10.5zM207 543q-6 0 -12 5l-122 97q-6 5 -6 12t6 15q5 7 10.5 10.5t13.5 -1.5l110 -68l110 68q8 5 13.5 1.5t10.5 -10.5q13 -17 0 -27l-122 -97q-6 -5 -12 -5z" glyph-name="scaron" horiz-adv-x="406" unicode="š"/><glyph d="M219 19v614h-174q-8 0 -13.5 5.5t-5.5 13.5v29q0 8 5.5 13.5t13.5 5.5h424q8 0 13.5 -6t5.5 -13v-29q0 -8 -5.5 -13.5t-13.5 -5.5h-174v-614q0 -13 -12 -18l-44 -68q12 4 25 4q35 0 59.5 -20.5t24.5 -62.5t-32 -68t-77 -26q-52 0 -82 28q-7 7 0 21l8 15q7 14 21 5 q20 -20 50 -20q26 0 41 12.5t15 32.5q0 22 -14 33.5t-39 11.5q-24 0 -44 -10q-5 -2 -10 2.5t-2 10.5l48 99q-12 5 -12 18z" glyph-name="uni0162" horiz-adv-x="514" unicode="Ţ"/><glyph d="M109 398h-61q-10 0 -16.5 6.5t-6.5 15.5v20q0 10 6.5 16t16.5 6h61v128q0 8 6.5 14.5t15.5 7.5l31 2h2q8 0 13.5 -7t5.5 -15v-130h136q10 0 16.5 -6t6.5 -16v-20q0 -9 -7 -15.5t-16 -6.5h-136v-276q0 -66 41 -66q6 0 12.5 1t11.5 1.5t11 2t9.5 3t9.5 4t8.5 3.5t8 4.5 t7 4.5t6.5 4l6 4q8 5 14 5q9 0 15 -14l10 -23q3 -8 3 -13q0 -10 -11 -17q-40 -27 -100 -35l-37 -58q12 4 25 4q35 0 59.5 -20.5t24.5 -62.5t-31.5 -68t-77.5 -26q-52 0 -82 28q-7 7 0 21l8 15q7 14 21 5q20 -20 50 -20q26 0 41 12.5t15 32.5q0 22 -14.5 33.5t-38.5 11.5 t-44 -10q-5 -2 -9.5 2.5t-2.5 10.5l43 88q-26 3 -43.5 13.5t-26.5 28.5t-12.5 38t-3.5 47v281z" glyph-name="uni0163" horiz-adv-x="380" unicode="ţ"/><glyph d="M219 19v614h-174q-8 0 -13.5 5.5t-5.5 13.5v29q0 8 5.5 13.5t13.5 5.5h424q8 0 13.5 -6t5.5 -13v-29q0 -8 -5.5 -13.5t-13.5 -5.5h-174v-614q0 -8 -5.5 -13.5t-13.5 -5.5h-38q-8 0 -13.5 5.5t-5.5 13.5zM254 769q-6 0 -12 5l-122 97q-6 5 -6 12t6 15q5 7 10.5 10.5 t13.5 -1.5l110 -68l110 68q8 5 13.5 1.5t10.5 -10.5q13 -17 0 -27l-122 -97q-6 -5 -12 -5z" glyph-name="Tcaron" horiz-adv-x="514" unicode="Ť"/><glyph d="M47 398q-11 0 -17 6.5t-6 15.5v20q0 22 23 22h61v128q0 9 7 15t15 7l31 2q9 1 15 -6t6 -16v-130h136q10 0 16.5 -6t6.5 -16v-20q0 -9 -6.5 -15.5t-16.5 -6.5h-136v-273q0 -36 19 -52.5t43 -16.5q21 0 39 6t32 14t20 3.5t9 -12.5l8 -20q8 -21 -8 -30q-17 -9 -45.5 -18.5 t-63.5 -9.5q-30 0 -54 11t-40 30t-24.5 43.5t-8.5 51.5v273h-61zM329 663q0 22 15 35t39 13q32 0 50.5 -22.5t18.5 -62.5q0 -66 -46 -112q-3 -3 -7 -3t-8 3l-16 12q-8 8 0 17q12 10 20.5 28t8.5 37q0 14 -5 22q-7 -7 -25 -7q-20 0 -32.5 11t-12.5 29z" glyph-name="tcaron" horiz-adv-x="379" unicode="ť"/><glyph d="M219 19v276h-104q-8 0 -13 5.5t-5 13.5v7q0 8 5.5 13.5t12.5 5.5h104v293h-174q-8 0 -13.5 5.5t-5.5 13.5v29q0 8 5.5 13.5t13.5 5.5h424q8 0 13.5 -6t5.5 -13v-29q0 -8 -5.5 -13.5t-13.5 -5.5h-174v-293h104q8 0 13.5 -6t5.5 -13v-8q0 -8 -5.5 -13t-13.5 -5h-104v-276 q0 -8 -5.5 -13.5t-13.5 -5.5h-38q-8 0 -13.5 5.5t-5.5 13.5z" glyph-name="Tbar" horiz-adv-x="514" unicode="Ŧ"/><glyph d="M47 398q-11 0 -17 6.5t-6 15.5v20q0 22 23 22h61v128q0 9 7 15t15 7l31 2q9 1 15 -6t6 -16v-130h136q10 0 16.5 -6t6.5 -16v-20q0 -9 -6.5 -15.5t-16.5 -6.5h-136v-142h113q10 0 16 -6.5t6 -15.5v-9q0 -9 -6 -15t-16 -6h-113v-79q0 -36 19 -52.5t43 -16.5q21 0 39 6 t32 14t20 3.5t9 -12.5l8 -20q8 -21 -8 -30q-17 -9 -45.5 -18.5t-63.5 -9.5q-30 0 -54 11t-40 30t-24.5 43.5t-8.5 51.5v79h-48q-8 0 -14.5 6.5t-6.5 15.5v8q0 9 6.5 15.5t14.5 6.5h48v142h-61z" glyph-name="tbar" horiz-adv-x="381" unicode="ŧ"/><glyph d="M89 254v427q0 8 5.5 13.5t13.5 5.5h38q8 0 13.5 -6t5.5 -13v-421q0 -88 51 -143.5t137 -55.5q87 0 138.5 55t51.5 142v423q0 8 5.5 13.5t13.5 5.5h38q8 0 13.5 -6t5.5 -13v-427q0 -115 -74.5 -189.5t-191.5 -74.5t-190.5 74.5t-73.5 189.5zM231 795l-18 9q-6 2 -6 12 q0 4 2 10l6 15t11.5 23t16 21t25.5 19t33 6q16 0 31 -7.5t25 -18.5t19 -22t18 -18.5t17 -7.5q30 0 45 51q5 16 23 8l16 -8q7 -4 7 -12q0 -2 -3 -14q-28 -81 -89 -81q-18 0 -36 12t-29.5 26t-23.5 25.5t-21 11.5q-10 0 -17.5 -4.5t-12.5 -13.5t-8 -15t-6 -17q-4 -13 -15 -13 q-4 0 -10 3z" glyph-name="Utilde" horiz-adv-x="708" unicode="Ũ"/><glyph d="M73 440q0 8 6 15t16 7h30q9 0 15.5 -7t6.5 -15v-250q0 -69 23 -101.5t74 -32.5q26 0 46.5 7t37 17.5t28 22t19.5 20.5v317q0 8 6 15t15 7h31q8 0 14.5 -7t6.5 -15v-426q0 -18 -18 -18q-23 0 -35 15t-14 38q-20 -21 -54 -40.5t-89 -19.5q-50 0 -82 14.5t-50.5 41 t-25.5 63.5t-7 83v249zM137 575l-18 9q-6 2 -6 12q0 4 2 10l6 15t11.5 23t16 21t25.5 19t33 6q16 0 31 -7.5t25 -18.5t19 -22t18 -18.5t17 -7.5q30 0 45 51q5 16 23 8l16 -8q7 -4 7 -12q0 -2 -3 -14q-28 -81 -89 -81q-18 0 -36 12t-29.5 26t-23.5 25.5t-21 11.5 q-10 0 -17.5 -4.5t-12.5 -13.5t-8 -15t-6 -17q-4 -13 -15 -13q-4 0 -10 3z" glyph-name="utilde" horiz-adv-x="526" unicode="ũ"/><glyph d="M89 254v427q0 8 5.5 13.5t13.5 5.5h38q8 0 13.5 -6t5.5 -13v-421q0 -88 51 -143.5t137 -55.5q87 0 138.5 55t51.5 142v423q0 8 5.5 13.5t13.5 5.5h38q8 0 13.5 -6t5.5 -13v-427q0 -115 -74.5 -189.5t-191.5 -74.5t-190.5 74.5t-73.5 189.5zM225 821q-8 0 -13.5 5.5 t-5.5 12.5v21q0 8 5.5 13.5t13.5 5.5h256q8 0 13.5 -5.5t5.5 -13.5v-21q0 -8 -5.5 -13t-13.5 -5h-256z" glyph-name="Umacron" horiz-adv-x="708" unicode="Ū"/><glyph d="M73 440q0 8 6 15t16 7h30q9 0 15.5 -7t6.5 -15v-250q0 -69 23 -101.5t74 -32.5q26 0 46.5 7t37 17.5t28 22t19.5 20.5v317q0 8 6 15t15 7h31q8 0 14.5 -7t6.5 -15v-426q0 -18 -18 -18q-23 0 -35 15t-14 38q-20 -21 -54 -40.5t-89 -19.5q-50 0 -82 14.5t-50.5 41 t-25.5 63.5t-7 83v249zM136 583q-8 0 -13.5 5t-5.5 13v21q0 19 19 19h256q19 0 19 -19v-21q0 -8 -5.5 -13t-13.5 -5h-256v0z" glyph-name="umacron" horiz-adv-x="526" unicode="ū"/><glyph d="M89 254v427q0 8 5.5 13.5t13.5 5.5h38q8 0 13.5 -6t5.5 -13v-421q0 -88 51 -143.5t137 -55.5q87 0 138.5 55t51.5 142v423q0 8 5.5 13.5t13.5 5.5h38q8 0 13.5 -6t5.5 -13v-427q0 -115 -74.5 -189.5t-191.5 -74.5t-190.5 74.5t-73.5 189.5zM350 771q-52 0 -90 32.5 t-45 81.5v5q0 15 14 15h21q14 0 19 -17q8 -29 30 -46.5t51 -17.5q27 0 49 18.5t30 45.5q6 17 19 17h23q14 0 14 -15q0 -49 -42.5 -84t-92.5 -35z" glyph-name="Ubreve" horiz-adv-x="708" unicode="Ŭ"/><glyph d="M73 440q0 8 6 15t16 7h30q9 0 15.5 -7t6.5 -15v-250q0 -69 23 -101.5t74 -32.5q26 0 46.5 7t37 17.5t28 22t19.5 20.5v317q0 8 6 15t15 7h31q8 0 14.5 -7t6.5 -15v-426q0 -18 -18 -18q-23 0 -35 15t-14 38q-20 -21 -54 -40.5t-89 -19.5q-50 0 -82 14.5t-50.5 41 t-25.5 63.5t-7 83v249zM263 531q-52 0 -90 32.5t-45 81.5v5q0 15 14 15h21q14 0 19 -17q8 -29 30 -46.5t51 -17.5q27 0 49 18.5t30 45.5q6 17 19 17h23q14 0 14 -15q0 -49 -42.5 -84t-92.5 -35z" glyph-name="ubreve" horiz-adv-x="526" unicode="ŭ"/><glyph d="M89 254v427q0 8 5.5 13.5t13.5 5.5h38q8 0 13.5 -6t5.5 -13v-421q0 -88 51 -143.5t137 -55.5q87 0 138.5 55t51.5 142v423q0 8 5.5 13.5t13.5 5.5h38q8 0 13.5 -6t5.5 -13v-427q0 -115 -74.5 -189.5t-191.5 -74.5t-190.5 74.5t-73.5 189.5zM352 758q-46 0 -77.5 31.5 t-31.5 77.5t31.5 77.5t77.5 31.5q45 0 77 -32t32 -77t-32 -77t-77 -32zM309 824q19 -18 43 -18t41.5 18.5t17.5 42.5t-17.5 41.5t-41.5 17.5t-42.5 -17.5t-18.5 -41.5t18 -43z" glyph-name="Uring" horiz-adv-x="708" unicode="Ů"/><glyph d="M73 440q0 8 6 15t16 7h30q9 0 15.5 -7t6.5 -15v-250q0 -69 23 -101.5t74 -32.5q26 0 46.5 7t37 17.5t28 22t19.5 20.5v317q0 8 6 15t15 7h31q8 0 14.5 -7t6.5 -15v-426q0 -18 -18 -18q-23 0 -35 15t-14 38q-20 -21 -54 -40.5t-89 -19.5q-50 0 -82 14.5t-50.5 41 t-25.5 63.5t-7 83v249zM266 513q-46 0 -77.5 31.5t-31.5 77.5t31.5 77.5t77.5 31.5q45 0 77 -32t32 -77t-32 -77t-77 -32zM223 579q19 -18 43 -18t41.5 18.5t17.5 42.5t-17.5 41.5t-41.5 17.5t-42.5 -17.5t-18.5 -41.5t18 -43z" glyph-name="uring" horiz-adv-x="526" unicode="ů"/><glyph d="M89 254v427q0 8 5.5 13.5t13.5 5.5h38q8 0 13.5 -6t5.5 -13v-421q0 -88 51 -143.5t137 -55.5q87 0 138.5 55t51.5 142v423q0 8 5.5 13.5t13.5 5.5h38q8 0 13.5 -6t5.5 -13v-427q0 -115 -74.5 -189.5t-191.5 -74.5t-190.5 74.5t-73.5 189.5zM272 763q-7 3 -11.5 8.5 t-2.5 13.5l54 168q3 11 15 13t26 -3q13 -5 19.5 -14.5t2.5 -17.5l-75 -163q-3 -7 -11.5 -8t-16.5 3zM438 763q-7 3 -11.5 8.5t-2.5 13.5l54 168q3 11 15 13t26 -3q13 -5 19.5 -14.5t2.5 -17.5l-75 -163q-3 -7 -11.5 -8t-16.5 3z" glyph-name="Uhungarumlaut" horiz-adv-x="708" unicode="Ű"/><glyph d="M73 440q0 8 6 15t16 7h30q9 0 15.5 -7t6.5 -15v-250q0 -69 23 -101.5t74 -32.5q26 0 46.5 7t37 17.5t28 22t19.5 20.5v317q0 8 6 15t15 7h31q8 0 14.5 -7t6.5 -15v-426q0 -18 -18 -18q-23 0 -35 15t-14 38q-20 -21 -54 -40.5t-89 -19.5q-50 0 -82 14.5t-50.5 41 t-25.5 63.5t-7 83v249zM178 513q-7 3 -11.5 8.5t-2.5 13.5l54 168q3 11 15 13t26 -3q13 -5 19.5 -14.5t2.5 -17.5l-75 -163q-3 -7 -11.5 -8t-16.5 3zM344 513q-7 3 -11.5 8.5t-2.5 13.5l54 168q3 11 15 13t26 -3q13 -5 19.5 -14.5t2.5 -17.5l-75 -163q-3 -7 -11.5 -8 t-16.5 3z" glyph-name="uhungarumlaut" horiz-adv-x="526" unicode="ű"/><glyph d="M89 258v423q0 8 5.5 13.5t13.5 5.5h38q8 0 13.5 -6t5.5 -13v-417q0 -88 51 -145.5t137 -57.5t138 56.5t52 144.5v419q0 8 5.5 13.5t13.5 5.5h38q8 0 13.5 -6t5.5 -13v-423q0 -96 -53.5 -167t-141.5 -92q-101 -62 -101 -130q0 -25 13.5 -39t37.5 -14q28 0 63 26q5 4 10 3 t6 -8l1 -34q2 -15 -12 -24q-13 -8 -36.5 -15.5t-46.5 -7.5q-47 0 -73 28t-26 72q0 74 83 134q-74 2 -132.5 38t-90 96t-31.5 134z" glyph-name="Uogonek" horiz-adv-x="708" unicode="Ų"/><glyph d="M73 197v243q0 8 6.5 15t15.5 7h30q9 0 15.5 -7t6.5 -15v-244q0 -140 97 -140q42 0 78 20t53 47v317q0 8 6 15t15 7h31q8 0 14.5 -7t6.5 -15v-418q0 -8 -5 -14t-12 -8q-17 -10 -33 -22t-33 -28.5t-27.5 -38t-10.5 -42.5q0 -25 13.5 -39t37.5 -14q28 0 63 26q5 4 10 3t6 -8 l1 -34q2 -15 -12 -24q-13 -8 -36.5 -15.5t-46.5 -7.5q-47 0 -73 28t-26 72q0 83 126 163l-9 30q-18 -23 -57 -41.5t-86 -18.5q-39 0 -68.5 10.5t-47.5 27.5t-29 44t-15.5 57.5t-4.5 68.5z" glyph-name="uogonek" horiz-adv-x="526" unicode="ų"/><glyph d="M215 4l-189 672q-1 2 -1 7q0 8 5 12.5t14 4.5h42q6 0 11.5 -4t6.5 -10l139 -518h4l167 531q4 11 17 11h18q14 0 17 -11l170 -531h4l136 518q2 6 7 10t11 4h42q9 0 14 -5t5 -12q0 -5 -1 -7l-189 -672q-2 -6 -7 -10t-11 -4h-16q-12 0 -17 11l-173 541h-5l-170 -541 q-1 -3 -6 -7t-11 -4h-16q-6 0 -11 4t-7 10zM448 909q6 0 12 -5l122 -97q13 -10 0 -27q-5 -7 -10.5 -10.5t-13.5 1.5l-110 68l-110 -68q-8 -5 -13.5 -1.5t-10.5 10.5q-14 17 0 27l122 97q6 5 12 5z" glyph-name="Wcircumflex" horiz-adv-x="886" unicode="Ŵ"/><glyph d="M348 348h-2l-136 -347q-4 -12 -19 -12h-6q-15 0 -20 12l-128 435q-1 3 -1 10q0 16 19 16h34q18 0 21 -13l85 -314h2l130 326q4 11 20 11h6q6 0 12 -3t7 -8l129 -327h2l85 315q3 13 19 13h35q18 0 18 -16q0 -2 -2 -10l-126 -435q-4 -12 -19 -12h-6q-14 0 -20 12zM356 690 q6 0 12 -5l122 -97q13 -10 0 -27q-5 -7 -10.5 -10.5t-13.5 1.5l-110 68l-110 -68q-8 -5 -13.5 -1.5t-10.5 10.5q-14 17 0 27l122 97q6 5 12 5z" glyph-name="wcircumflex" horiz-adv-x="702" unicode="ŵ"/><glyph d="M243 19v318l-241 334q-3 4 -3 10q0 8 5 13.5t14 5.5h47q9 0 16 -9l202 -279l202 279q7 9 16 9h47q9 0 14 -5t5 -13q0 -6 -3 -11l-244 -333v-319q0 -8 -5.5 -13.5t-13.5 -5.5h-39q-8 0 -13.5 5.5t-5.5 13.5zM294 909q6 0 12 -5l122 -97q13 -10 0 -27q-5 -7 -10.5 -10.5 t-13.5 1.5l-110 68l-110 -68q-8 -5 -13.5 -1.5t-10.5 10.5q-14 17 0 27l122 97q6 5 12 5z" glyph-name="Ycircumflex" horiz-adv-x="574" unicode="Ŷ"/><glyph d="M136 -238q-14 0 -19 8t0 20l87 206l-171 441q-10 25 18 25h42q15 0 20 -13l131 -367h2l156 367q5 13 20 13h37q14 0 18.5 -7.5t-0.5 -18.5l-289 -660q-2 -5 -8 -9.5t-12 -4.5h-32v0zM256 690q6 0 12 -5l122 -97q13 -10 0 -27q-5 -7 -10.5 -10.5t-13.5 1.5l-110 68 l-110 -68q-8 -5 -13.5 -1.5t-10.5 10.5q-14 17 0 27l122 97q6 5 12 5z" glyph-name="ycircumflex" horiz-adv-x="500" unicode="ŷ"/><glyph d="M243 19v318l-241 334q-3 4 -3 10q0 8 5 13.5t14 5.5h47q9 0 16 -9l202 -279l202 279q7 9 16 9h47q9 0 14 -5t5 -13q0 -6 -3 -11l-244 -333v-319q0 -8 -5.5 -13.5t-13.5 -5.5h-39q-8 0 -13.5 5.5t-5.5 13.5zM393 788q-21 0 -36 15t-15 36q0 22 15 37t36 15q22 0 37 -15 t15 -37q0 -21 -15 -36t-37 -15zM182 788q-21 0 -36 15t-15 36q0 22 15 37t36 15q22 0 37 -15t15 -37q0 -21 -15 -36t-37 -15z" glyph-name="Ydieresis" horiz-adv-x="574" unicode="Ÿ"/><glyph d="M27 19v8q0 9 5 19l358 581v3h-315q-8 0 -13.5 6t-5.5 13v32q0 8 6 13.5t13 5.5h405q8 0 13.5 -6t5.5 -13v-3q0 -9 -5 -19l-364 -588v-1h330q8 0 13.5 -6t5.5 -13v-32q0 -8 -5.5 -13.5t-13.5 -5.5h-414q-8 0 -13.5 5.5t-5.5 13.5zM189 789q-4 8 -3.5 16.5t5.5 11.5l156 95 q10 6 22.5 1t18.5 -19t5.5 -25.5t-10.5 -16.5l-170 -77q-6 -3 -12.5 1.5t-11.5 12.5z" glyph-name="Zacute" horiz-adv-x="528" unicode="Ź"/><glyph d="M38 22v2q0 9 6 18l234 354v3h-209q-8 0 -13.5 6.5t-5.5 15.5v19q0 10 5 16t14 6h293q21 0 21 -20q0 -6 -4 -12l-236 -364v-3h193q22 0 22 -22v-19q0 -10 -6 -16t-16 -6h-276q-9 0 -15.5 6.5t-6.5 15.5zM105 567q-4 8 -3.5 16.5t5.5 11.5l156 95q10 6 22 1t19 -19 q6 -14 5.5 -25.5t-10.5 -16.5l-170 -77q-6 -3 -12.5 1.5t-11.5 12.5z" glyph-name="zacute" horiz-adv-x="414" unicode="ź"/><glyph d="M27 19v8q0 9 5 19l358 581v3h-315q-8 0 -13.5 6t-5.5 13v32q0 8 6 13.5t13 5.5h405q8 0 13.5 -6t5.5 -13v-3q0 -9 -5 -19l-364 -588v-1h330q8 0 13.5 -6t5.5 -13v-32q0 -8 -5.5 -13.5t-13.5 -5.5h-414q-8 0 -13.5 5.5t-5.5 13.5zM282 798q-23 0 -38.5 16t-15.5 38 q0 24 15.5 40t38.5 16t39 -16t16 -40q0 -22 -16 -38t-39 -16z" glyph-name="Zdotaccent" horiz-adv-x="528" unicode="Ż"/><glyph d="M38 22v2q0 9 6 18l234 354v3h-209q-8 0 -13.5 6.5t-5.5 15.5v19q0 10 5 16t14 6h293q21 0 21 -20q0 -6 -4 -12l-236 -364v-3h193q22 0 22 -22v-19q0 -10 -6 -16t-16 -6h-276q-9 0 -15.5 6.5t-6.5 15.5zM216 568q-23 0 -38.5 16t-15.5 38q0 24 15.5 40t38.5 16t39 -16 t16 -40q0 -22 -16 -38t-39 -16z" glyph-name="zdotaccent" horiz-adv-x="414" unicode="ż"/><glyph d="M27 19v8q0 9 5 19l358 581v3h-315q-8 0 -13.5 6t-5.5 13v32q0 8 6 13.5t13 5.5h405q8 0 13.5 -6t5.5 -13v-3q0 -9 -5 -19l-364 -588v-1h330q8 0 13.5 -6t5.5 -13v-32q0 -8 -5.5 -13.5t-13.5 -5.5h-414q-8 0 -13.5 5.5t-5.5 13.5zM280 769q-6 0 -12 5l-122 97q-6 5 -6 12 t6 15q5 7 10.5 10.5t13.5 -1.5l110 -68l110 68q8 5 13.5 1.5t10.5 -10.5q13 -17 0 -27l-122 -97q-6 -5 -12 -5z" glyph-name="Zcaron" horiz-adv-x="528" unicode="Ž"/><glyph d="M38 22v2q0 9 6 18l234 354v3h-209q-8 0 -13.5 6.5t-5.5 15.5v19q0 10 5 16t14 6h293q21 0 21 -20q0 -6 -4 -12l-236 -364v-3h193q22 0 22 -22v-19q0 -10 -6 -16t-16 -6h-276q-9 0 -15.5 6.5t-6.5 15.5zM212 543q-6 0 -12 5l-122 97q-6 5 -6 12t6 15q5 7 10.5 10.5 t13.5 -1.5l110 -68l110 68q8 5 13.5 1.5t10.5 -10.5q13 -17 0 -27l-122 -97q-6 -5 -12 -5z" glyph-name="zcaron" horiz-adv-x="414" unicode="ž"/><glyph d="M109 -79v419h-61q-8 0 -13.5 6t-5.5 13v22q0 8 5.5 13.5t13.5 5.5h61v140q0 84 42.5 127t110.5 43q66 0 110 -41q6 -6 6 -14q0 -6 -2 -9l-16 -26q-9 -14 -26 -1q-38 29 -73 29q-37 0 -60 -26.5t-23 -81.5v-140h116q8 0 13.5 -5.5t5.5 -13.5v-22q0 -8 -5.5 -13.5 t-13.5 -5.5h-116v-419q0 -84 -42.5 -127t-110.5 -43q-66 0 -110 41q-6 6 -6 14q0 6 2 9l16 26q9 14 26 1q12 -10 34 -19.5t39 -9.5q37 0 60 26.5t23 81.5z" glyph-name="florin" horiz-adv-x="343" unicode="ƒ"/><glyph d="M238 903l-10 22q-2 6 -0.5 11.5t6.5 7.5l150 84q4 3 13 3q10 0 13 -6l18 -36q3 -6 1.5 -12.5t-7.5 -8.5l-161 -67q-10 -4 -15 -4t-8 6zM20 0q-9 0 -14 5t-5 12q0 3 2 9l290 643q-32 10 -53 38.5t-21 65.5q0 46 31.5 77.5t77.5 31.5q45 0 77 -32t32 -77q0 -36 -20.5 -64.5 t-52.5 -38.5l289 -644q2 -6 2 -9q0 -8 -5 -12.5t-14 -4.5h-40q-12 0 -17 11l-74 165h-355l-73 -165q-4 -11 -17 -11h-40zM285 730q19 -18 43 -18t41.5 18.5t17.5 42.5t-17.5 41.5t-41.5 17.5t-42.5 -17.5t-18.5 -41.5t18 -43zM178 238h300l-146 328h-8z" glyph-name="Aringacute" horiz-adv-x="665" unicode="Ǻ"/><glyph d="M42 140q0 33 12 61t35.5 48.5t58 32t79.5 11.5q18 0 36 -2.5t32 -5.5q17 -4 31 -7q1 64 -27.5 95.5t-78.5 31.5q-38 0 -64.5 -11t-42.5 -16q-9 -4 -14 0t-8 12l-10 27q-3 11 1.5 16t12.5 9q17 8 49 19t80 11q89 0 131 -50t42 -144v-264q0 -18 -18 -18q-23 0 -35 15.5 t-14 38.5q-9 -9 -22.5 -20t-32 -20t-41 -15t-49.5 -6q-30 0 -56.5 10.5t-45.5 30t-30 47.5t-11 63zM227 510q-46 0 -77.5 25t-31.5 71t31.5 71t77.5 25q45 0 77 -25t32 -71t-32 -71t-77 -25zM115 140q0 -35 22.5 -59.5t60.5 -24.5q43 0 77.5 19.5t49.5 42.5v94q-11 6 -37 12 t-61 6q-48 0 -80 -22.5t-32 -67.5zM117 726q-3 8 -1.5 16.5t6.5 10.5l166 76q11 5 22.5 -1.5t16.5 -20.5t3 -26t-13 -15l-178 -57q-6 -2 -12 3t-10 14zM227 558q24 0 41.5 12t17.5 36t-17.5 35t-41.5 11t-42.5 -11t-18.5 -35t18.5 -36t42.5 -12z" glyph-name="aringacute" horiz-adv-x="471" unicode="ǻ"/><glyph d="M4 0q-8 0 -12 4t-4 10t4 12l401 643q13 20 19 25q9 6 25 6h381q8 0 13.5 -6t5.5 -13v-29q0 -8 -5.5 -13.5t-13.5 -5.5h-342v-244h293q8 0 13.5 -5.5t5.5 -13.5v-29q0 -8 -6 -13.5t-13 -5.5h-293v-255h342q8 0 13.5 -5.5t5.5 -13.5v-29q0 -8 -5.5 -13.5t-13.5 -5.5h-394 q-8 0 -13.5 6t-5.5 13v157h-237l-104 -165q-2 -3 -8 -7t-11 -4h-41zM204 238h201v328zM514 789q-4 8 -3.5 16.5t5.5 11.5l156 95q10 6 22.5 1t18.5 -19t5.5 -25.5t-10.5 -16.5l-170 -77q-6 -3 -12.5 1.5t-11.5 12.5z" glyph-name="AEacute" horiz-adv-x="889" unicode="Ǽ"/><glyph d="M43 142q0 66 46 108t125 42q55 0 111 -6v15q0 58 -14.5 81t-55.5 23q-11 0 -21.5 -0.5t-21 -1.5t-18.5 -2.5t-18 -4t-16 -3.5t-16 -4t-13.5 -4t-12 -4t-10.5 -3q-2 -1 -6 -1q-14 0 -18 17l-6 28q-2 7 3 13.5t16 9.5q30 11 75.5 19t86.5 8q56 0 84.5 -16t41.5 -47 q30 30 69.5 46.5t84.5 16.5q88 0 148 -58t60 -152q0 -14 -1 -23t-6.5 -17t-15.5 -8h-327v-75q22 -38 62.5 -60.5t86.5 -22.5q61 0 118 38q14 9 19 9q8 0 14 -9l16 -23q7 -9 7 -13q0 -6 -12 -16q-28 -20 -72 -36.5t-98 -16.5q-112 0 -174 82q-27 -34 -72.5 -58t-96.5 -24 q-68 0 -110 41.5t-42 111.5zM399 274h269q0 56 -38 93.5t-92 37.5q-42 0 -80.5 -22.5t-58.5 -55.5v-53zM117 141q0 -42 27.5 -63.5t65.5 -21.5q34 0 67 18t48 42v106q-38 9 -99 9q-46 0 -77.5 -24.5t-31.5 -65.5zM325 567q-4 8 -3.5 16.5t5.5 11.5l156 95q10 6 22 1t19 -19 q6 -14 5.5 -25.5t-10.5 -16.5l-170 -77q-6 -3 -12.5 1.5t-11.5 12.5z" glyph-name="aeacute" horiz-adv-x="790" unicode="ǽ"/><glyph d="M82 22q-6 6 -6 13t5 13l61 61q-90 103 -90 240q0 98 48 181.5t130 131.5t181 48q68 0 129.5 -24t110.5 -67l63 63q5 5 13 5t13 -5l5 -5q5 -5 5 -13t-5 -13l-63 -63q42 -49 65.5 -110.5t23.5 -128.5q0 -98 -48 -180.5t-130.5 -130.5t-181.5 -48q-137 0 -238 88l-61 -61 q-6 -5 -13 -5t-13 6zM193 160l408 409q-82 71 -190 71q-58 0 -111.5 -23t-92.5 -62.5t-62 -93t-23 -112.5q0 -107 71 -189zM224 129q80 -69 187 -69q58 0 112 23t92.5 62t62 92t23.5 112q0 52 -18.5 101t-51.5 87zM318 789q-4 8 -3.5 16.5t5.5 11.5l156 95q10 6 22.5 1 t18.5 -19t5.5 -25.5t-10.5 -16.5l-170 -77q-6 -3 -12.5 1.5t-11.5 12.5z" glyph-name="Oslashacute" horiz-adv-x="823" unicode="Ǿ"/><glyph d="M48 232q0 64 31 119t84.5 88t116.5 33q84 0 148 -56l24 24q7 7 16 7t16 -7l5 -5q8 -8 8 -15q0 -8 -8 -16l-26 -26q49 -65 49 -146q0 -65 -31 -121t-84.5 -89t-116.5 -33q-82 0 -147 55l-17 -17q-6 -6 -15 -6q-8 0 -16 6l-4 7q-8 6 -8 15q0 8 7 15l18 18q-50 64 -50 150z M120 232q0 -56 27 -100l233 235q-44 38 -100 38q-68 0 -114 -50.5t-46 -122.5zM439 232q0 50 -26 95l-232 -234q44 -37 99 -37q68 0 113.5 51.5t45.5 124.5zM174 567q-4 8 -3.5 16.5t5.5 11.5l156 95q10 6 22 1t19 -19q6 -14 5.5 -25.5t-10.5 -16.5l-170 -77 q-6 -3 -12.5 1.5t-11.5 12.5z" glyph-name="oslashacute" horiz-adv-x="559" unicode="ǿ"/><glyph d="M56 71q-3 3 -6.5 6t-5 7t-0.5 9t6 12l15 19q8 10 14.5 12.5t17.5 -6.5q3 -2 17.5 -14t37.5 -25t53.5 -23.5t63.5 -10.5q30 0 55 9t42.5 24.5t27 36t9.5 44.5q0 52 -44 87t-131 71q-41 18 -74 36t-55.5 41t-34.5 53t-12 73q0 25 11 56t36 58t65.5 45.5t100.5 18.5 q37 0 68 -8t54 -18q26 -11 49 -25q5 -2 9.5 -11t-3.5 -23l-10 -17q-11 -19 -35 -5q-32 19 -61.5 29.5t-71.5 10.5q-40 0 -66.5 -11.5t-42.5 -28t-22.5 -35.5t-6.5 -35q0 -53 36 -82t99 -55q51 -21 92 -42t70 -46.5t44.5 -58t15.5 -75.5q0 -39 -17.5 -72.5t-47 -58.5 t-68.5 -39t-83 -14t-81 11t-64 25t-44 27t-22 18zM222 -119q0 22 15 35t39 13q32 0 50.5 -22.5t18.5 -62.5q0 -66 -46 -112q-3 -3 -7 -3t-8 3l-16 12q-8 8 0 17q12 10 20.5 28t8.5 37q0 14 -5 22q-7 -7 -25 -7q-20 0 -32.5 11t-12.5 29z" glyph-name="uni0218" horiz-adv-x="532" unicode="Ș"/><glyph d="M209 -11q-29 0 -53 5.5t-43.5 14t-33.5 18.5t-23 18q-9 9 -3 20l14 26q5 8 11 10.5t16 -4.5q6 -5 16.5 -11.5t25 -13.5t33 -11.5t40.5 -4.5q35 0 57 15.5t22 42.5q0 16 -6.5 28.5t-19.5 23t-32.5 21t-44.5 22.5q-23 11 -46.5 23.5t-42 29t-30.5 38t-12 51.5q0 18 7.5 39 t24 39.5t44 30.5t67.5 12q45 0 80 -12t52 -24q15 -12 5 -31l-10 -19q-5 -10 -14.5 -11.5t-17.5 3.5q-15 9 -39 18t-56 9q-38 0 -53 -17t-15 -34q0 -15 6 -26t17 -20t27.5 -17.5t37.5 -18.5q30 -14 57 -27.5t47.5 -30.5t32.5 -39.5t12 -53.5q0 -27 -11.5 -51t-32 -42 t-49.5 -28.5t-64 -10.5zM151 -119q0 22 15 35t39 13q32 0 50.5 -22.5t18.5 -62.5q0 -66 -46 -112q-3 -3 -7 -3t-8 3l-16 12q-8 8 0 17q12 10 20.5 28t8.5 37q0 14 -5 22q-7 -7 -25 -7q-20 0 -32.5 11t-12.5 29z" glyph-name="uni0219" horiz-adv-x="406" unicode="ș"/><glyph d="M219 19v614h-174q-8 0 -13.5 5.5t-5.5 13.5v29q0 8 5.5 13.5t13.5 5.5h424q8 0 13.5 -6t5.5 -13v-29q0 -8 -5.5 -13.5t-13.5 -5.5h-174v-614q0 -8 -5.5 -13.5t-13.5 -5.5h-38q-8 0 -13.5 5.5t-5.5 13.5zM202 -119q0 22 15 35t39 13q32 0 50.5 -22.5t18.5 -62.5 q0 -66 -46 -112q-3 -3 -7 -3t-8 3l-16 12q-8 8 0 17q12 10 20.5 28t8.5 37q0 14 -5 22q-7 -7 -25 -7q-20 0 -32.5 11t-12.5 29z" glyph-name="uni021A" horiz-adv-x="514" unicode="Ț"/><glyph d="M47 398q-11 0 -17 6.5t-6 15.5v20q0 22 23 22h61v128q0 9 7 15t15 7l31 2q9 1 15 -6t6 -16v-130h136q10 0 16.5 -6t6.5 -16v-20q0 -9 -6.5 -15.5t-16.5 -6.5h-136v-273q0 -36 19 -52.5t43 -16.5q21 0 39 6t32 14t20 3.5t9 -12.5l8 -20q8 -21 -8 -30q-17 -9 -45.5 -18.5 t-63.5 -9.5q-30 0 -54 11t-40 30t-24.5 43.5t-8.5 51.5v273h-61zM161 -119q0 22 15 35t39 13q32 0 50.5 -22.5t18.5 -62.5q0 -66 -46 -112q-3 -3 -7 -3t-8 3l-16 12q-8 8 0 17q12 10 20.5 28t8.5 37q0 14 -5 22q-7 -7 -25 -7q-20 0 -32.5 11t-12.5 29z" glyph-name="uni021B" horiz-adv-x="379" unicode="ț"/><glyph d="M149 440v-490q0 -89 -35 -137t-96 -61h-5q-13 0 -16 12l-10 30q-2 6 -2 8q0 14 16 19q38 14 56 39.5t18 82.5v497q0 10 6.5 16t15.5 6h30q8 0 15 -6t7 -16z" glyph-name="uni0237" horiz-adv-x="230" unicode="ȷ"/><glyph d="M191 690q6 0 12 -5l122 -97q13 -10 0 -27q-5 -7 -10.5 -10.5t-13.5 1.5l-110 68l-110 -68q-8 -5 -13.5 -1.5t-10.5 10.5q-14 17 0 27l122 97q6 5 12 5z" glyph-name="circumflex" horiz-adv-x="373" unicode="ˆ"/><glyph d="M183 543q-6 0 -12 5l-122 97q-6 5 -6 12t6 15q5 7 10.5 10.5t13.5 -1.5l110 -68l110 68q8 5 13.5 1.5t10.5 -10.5q13 -17 0 -27l-122 -97q-6 -5 -12 -5z" glyph-name="caron" horiz-adv-x="373" unicode="ˇ"/><glyph d="M79 583q-8 0 -13.5 5.5t-5.5 12.5v21q0 8 5.5 13.5t13.5 5.5h256q8 0 13.5 -5.5t5.5 -13.5v-21q0 -8 -5.5 -13t-13.5 -5h-256z" glyph-name="uni02C9" horiz-adv-x="414" unicode="ˉ"/><glyph d="M171 531q-52 0 -90 32.5t-45 81.5v5q0 15 14 15h21q14 0 19 -17q8 -29 30 -46.5t51 -17.5q27 0 49 18.5t30 45.5q6 17 19 17h23q14 0 14 -15q0 -49 -42.5 -84t-92.5 -35z" glyph-name="breve" horiz-adv-x="346" unicode="˘"/><glyph d="M108 568q-23 0 -38.5 16t-15.5 38q0 24 15.5 40t38.5 16t39 -16t16 -40q0 -22 -16 -38t-39 -16z" glyph-name="dotaccent" horiz-adv-x="219" unicode="˙"/><glyph d="M145 492q-46 0 -77.5 31.5t-31.5 77.5t31.5 77.5t77.5 31.5q45 0 77 -32t32 -77t-32 -77t-77 -32zM102 558q19 -18 43 -18t41.5 18.5t17.5 42.5t-17.5 41.5t-41.5 17.5t-42.5 -17.5t-18.5 -41.5t18 -43z" glyph-name="ring" horiz-adv-x="290" unicode="˚"/><glyph d="M199 3q-18 -10 -33.5 -21.5t-34.5 -29.5t-30 -39.5t-11 -43.5q0 -25 13.5 -39t37.5 -14q28 0 63 26q8 5 12 2.5t4 -7.5l1 -34q0 -16 -12 -24q-13 -8 -36 -15.5t-47 -7.5q-47 0 -73 28t-26 72q0 23 8.5 44.5t19 36.5t28 30t28.5 23t28 19z" glyph-name="ogonek" horiz-adv-x="276" unicode="˛"/><glyph d="M62 575l-18 9q-6 2 -6 12q0 4 2 10l6 15t11.5 23t16 21t25.5 19t33 6q16 0 31 -7.5t25 -18.5t19 -22t18 -18.5t17 -7.5q30 0 45 51q5 16 23 8l16 -8q7 -4 7 -12q0 -2 -3 -14q-28 -81 -89 -81q-18 0 -36 12t-29.5 26t-23.5 25.5t-21 11.5q-10 0 -17.5 -4.5t-12.5 -13.5 t-8 -15t-6 -17q-4 -13 -15 -13q-4 0 -10 3z" glyph-name="tilde" horiz-adv-x="380" unicode="˜"/><glyph d="M71 513q-7 3 -11.5 8.5t-2.5 13.5l54 168q3 11 15 13t26 -3q13 -5 19.5 -14.5t2.5 -17.5l-75 -163q-3 -7 -11.5 -8t-16.5 3zM237 513q-7 3 -11.5 8.5t-2.5 13.5l54 168q3 11 15 13t26 -3q13 -5 19.5 -14.5t2.5 -17.5l-75 -163q-3 -7 -11.5 -8t-16.5 3z" glyph-name="hungarumlaut" horiz-adv-x="392" unicode="˝"/><glyph d="M58 0q-24 0 -24 18q0 9 6 21l298 666q6 9 14 9h5q10 0 14 -9l297 -668q5 -10 5 -19q0 -18 -23 -18h-592zM133 71h439l-217 502h-2z" glyph-name="uni0394" horiz-adv-x="717" unicode="Δ"/><glyph d="M77 15v41q0 6 4.5 10.5t10.5 4.5h111q-68 40 -107 116t-39 165q0 98 48 180.5t130.5 130t181.5 47.5t181.5 -47.5t130.5 -130t48 -180.5q0 -89 -39 -164.5t-106 -116.5h111q6 0 10.5 -4.5t4.5 -10.5v-41q0 -6 -4.5 -10.5t-10.5 -4.5h-249q-6 0 -10 4.5t-4 10.5v29 q0 10 4 14t13 8q92 28 151 107t59 176q0 77 -39.5 144t-106.5 106.5t-144 39.5t-144 -39.5t-106 -106.5t-39 -144q0 -96 59 -175.5t151 -107.5q6 -3 9 -5t5 -6.5t2 -10.5v-29q0 -6 -4 -10.5t-10 -4.5h-248q-6 0 -10.5 4.5t-4.5 10.5z" glyph-name="uni03A9" horiz-adv-x="835" unicode="Ω"/><glyph d="M444 462q8 0 14.5 -7t6.5 -15v-426q0 -18 -18 -18q-23 0 -35 15t-14 38q-20 -21 -54 -40.5t-89 -19.5t-91 19v-224q0 -9 -7 -15.5t-15 -6.5h-30q-9 0 -15.5 6.5t-6.5 15.5v656q0 8 6 15t16 7h30q9 0 15.5 -7t6.5 -15v-250q0 -69 23 -101.5t74 -32.5q26 0 46.5 7t37 17.5 t28 22t19.5 20.5v317q0 8 6 15t15 7h31z" glyph-name="uni03BC" horiz-adv-x="531" unicode="μ"/><glyph d="M157 17v381h-117q-8 0 -12.5 5t-4.5 11v31q0 7 5 12t12 5h599q8 0 13 -5t5 -11v-33q0 -6 -5 -10.5t-13 -4.5h-117v-381q0 -8 -4.5 -12.5t-11.5 -4.5h-41q-7 0 -12 5t-5 12v381h-218v-381q0 -7 -5.5 -12t-12.5 -5h-39q-6 0 -11 5.5t-5 11.5z" glyph-name="pi" horiz-adv-x="680" unicode="π"/><glyph d="M215 4l-189 672q-1 2 -1 7q0 8 5 12.5t14 4.5h42q6 0 11.5 -4t6.5 -10l139 -518h4l167 531q4 11 17 11h18q14 0 17 -11l170 -531h4l136 518q2 6 7 10t11 4h42q9 0 14 -5t5 -12q0 -5 -1 -7l-189 -672q-2 -6 -7 -10t-11 -4h-16q-12 0 -17 11l-173 541h-5l-170 -541 q-1 -3 -6 -7t-11 -4h-16q-6 0 -11 4t-7 10zM539 789q-5 -8 -11.5 -12.5t-12.5 -1.5l-170 77q-10 5 -10.5 16.5t5.5 25.5t18.5 19t22.5 -1l156 -95q5 -3 5.5 -11.5t-3.5 -16.5z" glyph-name="Wgrave" horiz-adv-x="886" unicode="Ẁ"/><glyph d="M348 348h-2l-136 -347q-4 -12 -19 -12h-6q-15 0 -20 12l-128 435q-1 3 -1 10q0 16 19 16h34q18 0 21 -13l85 -314h2l130 326q4 11 20 11h6q6 0 12 -3t7 -8l129 -327h2l85 315q3 13 19 13h35q18 0 18 -16q0 -2 -2 -10l-126 -435q-4 -12 -19 -12h-6q-14 0 -20 12zM449 567 q-5 -8 -11.5 -12.5t-12.5 -1.5l-170 77q-10 5 -10.5 16.5t5.5 25.5q7 14 19 19t22 -1l156 -95q5 -3 5.5 -11.5t-3.5 -16.5z" glyph-name="wgrave" horiz-adv-x="702" unicode="ẁ"/><glyph d="M215 4l-189 672q-1 2 -1 7q0 8 5 12.5t14 4.5h42q6 0 11.5 -4t6.5 -10l139 -518h4l167 531q4 11 17 11h18q14 0 17 -11l170 -531h4l136 518q2 6 7 10t11 4h42q9 0 14 -5t5 -12q0 -5 -1 -7l-189 -672q-2 -6 -7 -10t-11 -4h-16q-12 0 -17 11l-173 541h-5l-170 -541 q-1 -3 -6 -7t-11 -4h-16q-6 0 -11 4t-7 10zM339 789q-4 8 -3.5 16.5t5.5 11.5l156 95q10 6 22.5 1t18.5 -19t5.5 -25.5t-10.5 -16.5l-170 -77q-6 -3 -12.5 1.5t-11.5 12.5z" glyph-name="Wacute" horiz-adv-x="886" unicode="Ẃ"/><glyph d="M348 348h-2l-136 -347q-4 -12 -19 -12h-6q-15 0 -20 12l-128 435q-1 3 -1 10q0 16 19 16h34q18 0 21 -13l85 -314h2l130 326q4 11 20 11h6q6 0 12 -3t7 -8l129 -327h2l85 315q3 13 19 13h35q18 0 18 -16q0 -2 -2 -10l-126 -435q-4 -12 -19 -12h-6q-14 0 -20 12zM246 567 q-4 8 -3.5 16.5t5.5 11.5l156 95q10 6 22 1t19 -19q6 -14 5.5 -25.5t-10.5 -16.5l-170 -77q-6 -3 -12.5 1.5t-11.5 12.5z" glyph-name="wacute" horiz-adv-x="702" unicode="ẃ"/><glyph d="M215 4l-189 672q-1 2 -1 7q0 8 5 12.5t14 4.5h42q6 0 11.5 -4t6.5 -10l139 -518h4l167 531q4 11 17 11h18q14 0 17 -11l170 -531h4l136 518q2 6 7 10t11 4h42q9 0 14 -5t5 -12q0 -5 -1 -7l-189 -672q-2 -6 -7 -10t-11 -4h-16q-12 0 -17 11l-173 541h-5l-170 -541 q-1 -3 -6 -7t-11 -4h-16q-6 0 -11 4t-7 10zM547 788q-21 0 -36 15t-15 36q0 22 15 37t36 15q22 0 37 -15t15 -37q0 -21 -15 -36t-37 -15zM336 788q-21 0 -36 15t-15 36q0 22 15 37t36 15q22 0 37 -15t15 -37q0 -21 -15 -36t-37 -15z" glyph-name="Wdieresis" horiz-adv-x="886" unicode="Ẅ"/><glyph d="M348 348h-2l-136 -347q-4 -12 -19 -12h-6q-15 0 -20 12l-128 435q-1 3 -1 10q0 16 19 16h34q18 0 21 -13l85 -314h2l130 326q4 11 20 11h6q6 0 12 -3t7 -8l129 -327h2l85 315q3 13 19 13h35q18 0 18 -16q0 -2 -2 -10l-126 -435q-4 -12 -19 -12h-6q-14 0 -20 12zM446 581 q-21 0 -36 15t-15 36q0 22 15 37t36 15q22 0 37 -15t15 -37q0 -21 -15 -36t-37 -15zM253 581q-21 0 -36 15t-15 36q0 22 15 37t36 15q22 0 37 -15t15 -37q0 -21 -15 -36t-37 -15z" glyph-name="wdieresis" horiz-adv-x="702" unicode="ẅ"/><glyph d="M243 19v318l-241 334q-3 4 -3 10q0 8 5 13.5t14 5.5h47q9 0 16 -9l202 -279l202 279q7 9 16 9h47q9 0 14 -5t5 -13q0 -6 -3 -11l-244 -333v-319q0 -8 -5.5 -13.5t-13.5 -5.5h-39q-8 0 -13.5 5.5t-5.5 13.5zM385 789q-5 -8 -11.5 -12.5t-12.5 -1.5l-170 77 q-10 5 -10.5 16.5t5.5 25.5t18.5 19t22.5 -1l156 -95q5 -3 5.5 -11.5t-3.5 -16.5z" glyph-name="Ygrave" horiz-adv-x="574" unicode="Ỳ"/><glyph d="M136 -238q-14 0 -19 8t0 20l87 206l-171 441q-10 25 18 25h42q15 0 20 -13l131 -367h2l156 367q5 13 20 13h37q14 0 18.5 -7.5t-0.5 -18.5l-289 -660q-2 -5 -8 -9.5t-12 -4.5h-32v0zM342 567q-5 -8 -11.5 -12.5t-12.5 -1.5l-170 77q-10 5 -10.5 16.5t5.5 25.5q7 14 19 19 t22 -1l156 -95q5 -3 5.5 -11.5t-3.5 -16.5z" glyph-name="ygrave" horiz-adv-x="500" unicode="ỳ"/><glyph d="M85 223q-8 0 -13.5 5.5t-5.5 12.5v11q0 8 5.5 13.5t13.5 5.5h369q8 0 13.5 -5.5t5.5 -13.5v-11q0 -8 -5.5 -13t-13.5 -5h-369z" glyph-name="endash" horiz-adv-x="540" unicode="–"/><glyph d="M85 223q-8 0 -13.5 5.5t-5.5 12.5v11q0 8 5.5 13.5t13.5 5.5h589q8 0 13.5 -5.5t5.5 -13.5v-11q0 -8 -5.5 -13t-13.5 -5h-589z" glyph-name="emdash" horiz-adv-x="760" unicode="—"/><glyph d="M188 520q0 -26 -14.5 -43.5t-41.5 -17.5q-37 0 -56 32t-19 78q0 55 19.5 87t40.5 50q9 7 16 0l17 -16q5 -5 3.5 -9.5t-5.5 -8.5q-21 -21 -33 -40.5t-12 -48.5q0 -12 4 -23q5 4 15 6.5t18 2.5q24 0 36 -16t12 -33z" glyph-name="quoteleft" horiz-adv-x="233" unicode="‘"/><glyph d="M49 650q0 26 14.5 43.5t41.5 17.5q37 0 56 -32t19 -78q0 -55 -19.5 -87t-40.5 -50q-9 -7 -16 0l-17 16q-5 5 -3.5 9.5t5.5 8.5q21 21 33 40.5t12 48.5q0 12 -4 23q-5 -4 -15 -6.5t-18 -2.5q-24 0 -36 16t-12 33z" glyph-name="quoteright" horiz-adv-x="230" unicode="’"/><glyph d="M57 49q0 26 14.5 43.5t41.5 17.5q37 0 56 -32t19 -78q0 -55 -19.5 -87t-40.5 -50q-9 -7 -16 0l-17 16q-5 5 -3.5 9.5t5.5 8.5q21 21 33 40.5t12 48.5q0 12 -4 23q-5 -4 -15 -6.5t-18 -2.5q-24 0 -36 16t-12 33z" glyph-name="quotesinglbase" horiz-adv-x="241" unicode="‚"/><glyph d="M188 520q0 -26 -14.5 -43.5t-41.5 -17.5q-37 0 -56 32t-19 78q0 55 19.5 87t40.5 50q9 7 16 0l17 -16q5 -5 3.5 -9.5t-5.5 -8.5q-21 -21 -33 -40.5t-12 -48.5q0 -12 4 -23q5 4 15 6.5t18 2.5q24 0 36 -16t12 -33zM368 520q0 -26 -14.5 -43.5t-41.5 -17.5q-37 0 -56 32 t-19 78q0 55 19.5 87t40.5 50q9 7 16 0l17 -16q5 -5 3.5 -9.5t-5.5 -8.5q-21 -21 -33 -40.5t-12 -48.5q0 -12 4 -23q5 4 15 6.5t18 2.5q24 0 36 -16t12 -33z" glyph-name="quotedblleft" horiz-adv-x="413" unicode="“"/><glyph glyph-name="quotedblright" horiz-adv-x="410" unicode="”"/><glyph d="M57 49q0 26 14.5 43.5t41.5 17.5q37 0 56 -32t19 -78q0 -55 -19.5 -87t-40.5 -50q-9 -7 -16 0l-17 16q-5 5 -3.5 9.5t5.5 8.5q21 21 33 40.5t12 48.5q0 12 -4 23q-5 -4 -15 -6.5t-18 -2.5q-24 0 -36 16t-12 33zM236 49q0 26 14.5 43.5t41.5 17.5q37 0 56 -32t19 -78 q0 -55 -19.5 -87t-40.5 -50q-9 -7 -16 0l-17 16q-5 5 -3.5 9.5t5.5 8.5q21 21 33 40.5t12 48.5q0 12 -4 23q-5 -4 -15 -6.5t-18 -2.5q-24 0 -36 16t-12 33z" glyph-name="quotedblbase" horiz-adv-x="420" unicode="„"/><glyph d="M58 334q-8 0 -13.5 6t-5.5 13v28q0 8 5.5 13.5t13.5 5.5h195v281q0 8 5.5 13.5t13.5 5.5h50q8 0 13.5 -6t5.5 -13v-281h198q8 0 13 -6t5 -13v-28q0 -8 -5.5 -13.5t-12.5 -5.5h-200l-17 -556q0 -6 -6 -11t-13 -5h-12q-7 0 -13 5t-6 11l-17 556h-197z" glyph-name="dagger" horiz-adv-x="596" unicode="†"/><glyph d="M77 19v28q0 8 5.5 13.5t13.5 5.5h174l-9 333v1h-195q-8 0 -13.5 6t-5.5 13v28q0 8 5.5 13.5t13.5 5.5h195v215q0 8 5.5 13.5t13.5 5.5h50q8 0 13.5 -6t5.5 -13v-215h198q8 0 13 -6t5 -13v-28q0 -8 -5.5 -13.5t-12.5 -5.5h-198l-9 -334h177q8 0 13 -6t5 -13v-28 q0 -8 -5.5 -13.5t-12.5 -5.5h-179l-8 -222q0 -6 -6 -11t-13 -5h-12q-7 0 -13 5t-6 11l-8 222h-176q-8 0 -13.5 5.5t-5.5 13.5z" glyph-name="daggerdbl" horiz-adv-x="612" unicode="‡"/><glyph d="M184 149q-43 0 -74 31t-31 74q0 45 31 77t74 32q45 0 77 -32t32 -77q0 -43 -32 -74t-77 -31z" glyph-name="bullet" horiz-adv-x="372" unicode="•"/><glyph d="M114 -10q-23 0 -40 17t-17 40q0 24 16.5 40.5t40.5 16.5t40.5 -16.5t16.5 -40.5t-16.5 -40.5t-40.5 -16.5zM307 -10q-23 0 -40 17t-17 40q0 24 16.5 40.5t40.5 16.5t40.5 -16.5t16.5 -40.5t-16.5 -40.5t-40.5 -16.5zM504 -10q-23 0 -40 17t-17 40q0 24 16.5 40.5 t40.5 16.5t40.5 -16.5t16.5 -40.5t-16.5 -40.5t-40.5 -16.5z" glyph-name="ellipsis" horiz-adv-x="618" unicode="…"/><glyph d="M714 28q-39 40 -39 96t39.5 95.5t95.5 39.5t95.5 -39.5t39.5 -95.5t-39.5 -95.5t-95.5 -39.5t-96 39zM732 124q0 -33 22.5 -55.5t55.5 -22.5q31 0 53.5 23t22.5 55q0 31 -22.5 53.5t-53.5 22.5q-32 0 -55 -22.5t-23 -53.5zM279 480q-39 -39 -95 -39t-95.5 39.5 t-39.5 95.5t39.5 95.5t95.5 39.5t95.5 -39.5t39.5 -95.5t-40 -96zM142 27l343 663q6 10 17 10h16q8 0 13.5 -5t5.5 -13q0 -6 -2 -9l-345 -663q-5 -10 -17 -10h-14q-8 0 -13.5 5t-5.5 13q0 6 2 9zM184 498q31 0 53.5 23t22.5 55q0 31 -22.5 53.5t-53.5 22.5q-32 0 -55 -22.5 t-23 -53.5q0 -33 22.5 -55.5t55.5 -22.5zM500 -11q-56 0 -95.5 39.5t-39.5 95.5t39.5 95.5t95.5 39.5t95.5 -39.5t39.5 -95.5t-40 -95.5t-95 -39.5zM422 124q0 -33 22.5 -55.5t55.5 -22.5q31 0 53.5 23t22.5 55q0 31 -22.5 53.5t-53.5 22.5q-32 0 -55 -22.5t-23 -53.5z" glyph-name="perthousand" horiz-adv-x="988" unicode="‰"/><glyph d="M154 69l-104 155q-4 6 -4 12t4 12l109 148q8 12 18 12h14q9 0 14 -5t5 -12q0 -4 -4 -14l-74 -139l71 -147q3 -8 3 -13q0 -17 -18 -17h-19q-9 0 -15 8z" glyph-name="guilsinglleft" horiz-adv-x="270" unicode="‹"/><glyph d="M75 61q-18 0 -18 17q0 6 3 13l71 147l-74 139q-4 10 -4 14q0 8 5 12.5t14 4.5h14q10 0 18 -12l109 -148q4 -6 4 -12t-4 -12l-104 -155q-6 -8 -15 -8h-19z" glyph-name="guilsinglright" horiz-adv-x="270" unicode="›"/><glyph d="M-93 10q-5 -10 -17 -10h-14q-8 0 -13.5 5t-5.5 13q0 6 2 9l343 663q6 10 17 10h16q8 0 13.5 -5t5.5 -13q0 -6 -2 -9z" glyph-name="fraction" horiz-adv-x="120" unicode="⁄"/><glyph d="M287 651q0 -74 -32.5 -115.5t-91.5 -41.5t-91.5 41.5t-32.5 115.5t32.5 116t91.5 42t91.5 -41.5t32.5 -116.5zM112 570q18 -28 51 -28t51 28t18 81t-18 81.5t-51 28.5t-51 -28.5t-18 -81.5t18 -81z" glyph-name="uni2070" horiz-adv-x="326" unicode="⁰"/><glyph d="M194 504q-4 0 -7 3t-3 6v50h-150q-4 0 -6.5 2.5t-2.5 6.5v29l172 196q3 3 8 3h21q4 0 7 -3t3 -6v-185h41q4 0 6.5 -2.5t2.5 -5.5v-26q0 -3 -3 -5.5t-6 -2.5h-41v-51q0 -4 -3 -6.5t-7 -2.5h-32zM80 607h106v118z" glyph-name="uni2074" horiz-adv-x="316" unicode="⁴"/><glyph d="M139 494q-62 0 -98 38q-5 5 -5 9q0 2 4 6l21 20q6 6 12 0q4 -4 11.5 -9t24 -11.5t32.5 -6.5q28 0 46 17t18 40q0 24 -17.5 39t-48.5 15h-77q-7 0 -11 4.5t-4 11.5v124q0 4 2.5 6.5t6.5 2.5h156q4 0 6.5 -2.5t2.5 -6.5v-27q0 -3 -2.5 -5.5t-6.5 -2.5h-117v-60h48 q54 0 84.5 -26.5t30.5 -71.5q0 -44 -34 -74t-85 -30z" glyph-name="uni2075" horiz-adv-x="290" unicode="⁵"/><glyph d="M150 494q-54 0 -84 38.5t-30 95.5q0 34 13.5 64.5t32 50t42.5 36t41 24t32 12.5l1 1h2q4 0 9 -7l10 -23q5 -10 -9 -13q-28 -8 -68 -35.5t-48 -58.5q4 2 12 5.5t23 7.5t29 4q42 0 72 -26t30 -72q0 -42 -32.5 -73t-77.5 -31zM151 541q26 0 43 16.5t17 40.5q0 23 -18.5 39.5 t-43.5 16.5q-22 0 -40 -11t-26 -23q1 -29 19 -54t49 -25z" glyph-name="uni2076" horiz-adv-x="291" unicode="⁶"/><glyph d="M59 504q-9 0 -9 7v7l132 237h-143q-4 0 -6.5 2.5t-2.5 6.5v27q0 4 2.5 6.5t6.5 2.5h201q4 0 6.5 -2.5t2.5 -6.5v-11l-143 -267q-5 -9 -13 -9h-34z" glyph-name="uni2077" horiz-adv-x="268" unicode="⁷"/><glyph d="M147 494q-49 0 -79 23.5t-30 60.5q0 26 20 48t37 30v2q-18 8 -33.5 27t-15.5 43q0 37 29 59.5t73 22.5t73.5 -22.5t29.5 -59.5q0 -23 -15.5 -41.5t-34.5 -28.5v-2q21 -10 39.5 -31t18.5 -47q0 -37 -30.5 -60.5t-81.5 -23.5zM148 680q24 4 37 16t13 29q0 18 -14.5 30 t-36.5 12q-20 0 -34 -12t-14 -30q0 -37 49 -45zM148 537q24 0 40.5 12.5t16.5 31.5q0 18 -15.5 32t-41.5 19q-26 -5 -41 -19.5t-15 -31.5q0 -20 17 -32t39 -12z" glyph-name="uni2078" horiz-adv-x="297" unicode="⁸"/><glyph d="M94 487l-1 -1h-2q-4 0 -9 7l-10 23q-5 10 9 13q28 8 68 35.5t48 58.5q-4 -2 -12 -5.5t-23.5 -7.5t-28.5 -4q-42 0 -72 26t-30 72q0 42 32.5 73t77.5 31q54 0 84 -38.5t30 -95.5q0 -34 -13.5 -64.5t-32 -50t-43 -36t-41.5 -24.5t-31 -12zM142 648q22 0 40 11t26 23 q-1 29 -19 54t-49 25q-26 0 -43 -16.5t-17 -40.5q0 -23 18 -39.5t44 -16.5z" glyph-name="uni2079" horiz-adv-x="292" unicode="⁹"/><glyph d="M287 -3q0 -74 -32.5 -115.5t-91.5 -41.5t-91.5 41.5t-32.5 115.5t32.5 116t91.5 42t91.5 -41.5t32.5 -116.5zM112 -84q18 -28 51 -28t51 28t18 81t-18 81.5t-51 28.5t-51 -28.5t-18 -81.5t18 -81z" glyph-name="uni2080" horiz-adv-x="326" unicode="₀"/><glyph d="M91 -150q-10 0 -10 9v210l-41 -11q-8 -2 -10 4l-5 17l-1 1v3q0 3 4 7l70 56h28q9 0 9 -9v-278q0 -4 -2.5 -6.5t-6.5 -2.5h-35z" glyph-name="uni2081" horiz-adv-x="184" unicode="₁"/><glyph d="M43 -150q-10 0 -10 9v14l127 133q32 34 32 56q0 18 -14.5 32.5t-42.5 14.5q-32 0 -62 -30q-6 -6 -12 0l-20 21q-6 6 0 11q16 19 43.5 32t53.5 13q52 0 80 -25t28 -64q0 -40 -49 -90l-81 -83h121q9 0 9 -10v-25q0 -9 -9 -9h-194z" glyph-name="uni2082" horiz-adv-x="286" unicode="₂"/><glyph d="M136 -160q-66 0 -103 41q-2 2 -2 5t3 6l21 20q8 4 13 -1q2 -2 10.5 -7.5t24.5 -12t31 -6.5q24 0 42 12.5t18 32.5t-18.5 34t-54.5 14h-31q-10 0 -10 9v25q0 9 10 9h31q32 0 48.5 12.5t16.5 31.5q0 20 -16 32.5t-38 12.5q-32 0 -56 -24q-6 -6 -13 0l-20 18q-3 2 -3 6t3 6 q14 16 40 28t53 12q44 0 74.5 -23t30.5 -60q0 -24 -16 -43.5t-36 -26.5v-2q22 -8 41.5 -28.5t19.5 -46.5q0 -38 -31.5 -62t-82.5 -24z" glyph-name="uni2083" horiz-adv-x="289" unicode="₃"/><glyph d="M194 -150q-4 0 -7 3t-3 6v50h-150q-4 0 -6.5 2.5t-2.5 6.5v29l172 196q3 3 8 3h21q4 0 7 -3t3 -6v-185h41q4 0 6.5 -2.5t2.5 -5.5v-26q0 -3 -3 -5.5t-6 -2.5h-41v-51q0 -4 -3 -6.5t-7 -2.5h-32zM80 -47h106v118z" glyph-name="uni2084" horiz-adv-x="316" unicode="₄"/><glyph d="M139 -160q-62 0 -98 38q-5 5 -5 9q0 2 4 6l21 20q6 6 12 0q4 -4 11.5 -9t24 -11.5t32.5 -6.5q28 0 46 17t18 40q0 24 -17.5 39t-48.5 15h-77q-7 0 -11 4.5t-4 11.5v124q0 4 2.5 6.5t6.5 2.5h156q4 0 6.5 -2.5t2.5 -6.5v-27q0 -3 -2.5 -5.5t-6.5 -2.5h-117v-60h48 q54 0 84.5 -26.5t30.5 -71.5q0 -44 -34 -74t-85 -30z" glyph-name="uni2085" horiz-adv-x="290" unicode="₅"/><glyph d="M151 -160q-54 0 -84 38.5t-30 95.5q0 34 13.5 64.5t32 50t42.5 36t41 24t32 12.5l1 1h2q4 0 9 -7l10 -23q5 -10 -9 -13q-28 -8 -68 -35.5t-48 -58.5q4 2 12 5.5t23 7.5t29 4q42 0 72 -26t30 -72q0 -42 -32.5 -73t-77.5 -31zM152 -113q26 0 43 16.5t17 40.5 q0 23 -18.5 39.5t-43.5 16.5q-22 0 -40 -11t-26 -23q1 -29 19 -54t49 -25z" glyph-name="uni2086" horiz-adv-x="292" unicode="₆"/><glyph d="M60 -150q-9 0 -9 7v7l132 237h-143q-4 0 -6.5 2.5t-2.5 6.5v27q0 4 2.5 6.5t6.5 2.5h201q4 0 6.5 -2.5t2.5 -6.5v-11l-143 -267q-5 -9 -13 -9h-34z" glyph-name="uni2087" horiz-adv-x="270" unicode="₇"/><glyph d="M148 -160q-49 0 -79 23.5t-30 60.5q0 26 20 48t37 30v2q-18 8 -33.5 27t-15.5 43q0 37 29 59.5t73 22.5t73.5 -22.5t29.5 -59.5q0 -23 -15.5 -41.5t-34.5 -28.5v-2q21 -10 39.5 -31t18.5 -47q0 -37 -30.5 -60.5t-81.5 -23.5zM149 26q24 4 37 16t13 29q0 18 -14.5 30 t-36.5 12q-20 0 -34 -12t-14 -30q0 -37 49 -45zM149 -117q24 0 40.5 12.5t16.5 31.5q0 18 -15.5 32t-41.5 19q-26 -5 -41 -19.5t-15 -31.5q0 -20 17 -32t39 -12z" glyph-name="uni2088" horiz-adv-x="299" unicode="₈"/><glyph d="M94 -167l-1 -1h-2q-4 0 -9 7l-10 23q-5 10 9 13q28 8 68 35.5t48 58.5q-4 -2 -12 -5.5t-23.5 -7.5t-28.5 -4q-42 0 -72 26t-30 72q0 42 32.5 73t77.5 31q54 0 84 -38.5t30 -95.5q0 -34 -13.5 -64.5t-32 -50t-43 -36t-41.5 -24.5t-31 -12zM142 -6q22 0 40 11t26 23 q-1 29 -19 54t-49 25q-26 0 -43 -16.5t-17 -40.5q0 -23 18 -39.5t44 -16.5z" glyph-name="uni2089" horiz-adv-x="291" unicode="₉"/><glyph d="M93 373h-47q-8 0 -13 5.5t-5 13.5v17q0 8 5 13.5t13 5.5h52q9 62 32 113.5t57.5 89t80 58.5t99.5 21q33 0 59.5 -5.5t48.5 -15.5t41 -24.5t36 -32.5q13 -13 2 -28l-18 -24q-6 -8 -15 -8t-18 9q-14 13 -27 24.5t-29 19t-35.5 12t-45.5 4.5q-36 0 -67.5 -15.5t-56 -43 t-41.5 -67t-24 -87.5h276q8 0 13.5 -5.5t5.5 -13.5v-18q0 -8 -5.5 -13t-13.5 -5h-282v-24q0 -14 0.5 -26.5t1.5 -24.5h240q8 0 13.5 -5.5t5.5 -13.5v-18q0 -8 -5.5 -13t-13.5 -5h-231q20 -86 68 -136t116 -50q26 0 45.5 4t35.5 12t29 19t27 25q9 9 18 9t15 -8l18 -24 q11 -15 -2 -28q-35 -35 -77 -56.5t-108 -21.5q-51 0 -94.5 18.5t-77.5 52.5t-57.5 80.5t-34.5 103.5h-57q-8 0 -13 5.5t-5 13.5v17q0 8 5 13.5t13 5.5h49q-1 12 -1.5 24.5t-0.5 26.5v24z" glyph-name="Euro" unicode="€"/><glyph d="M102 148q0 30 7 72q-29 -9 -52 -13q-14 -2 -16 9l-4 22q-1 2 -1 6q0 10 14 13q46 8 70 16q12 62 18 94q34 171 82 257.5t120 86.5q50 0 79 -35.5t29 -96.5q0 -51 -16 -97.5t-42.5 -83t-63.5 -67.5t-77.5 -53.5t-86.5 -39.5q-11 -48 -11 -88q0 -30 7.5 -53.5t27.5 -40 t52 -16.5q84 0 157 45q14 9 20 -3l10 -16q4 -6 3.5 -10t-6.5 -10q-5 -4 -17.5 -11.5t-36.5 -18.5t-59 -18.5t-71 -7.5q-37 0 -64.5 13t-42.5 36t-22 50t-7 59zM172 289q48 20 87 47.5t71 63.5t50.5 82t18.5 97q0 38 -15.5 59.5t-43.5 21.5q-52 0 -88 -75.5t-66 -225.5z" glyph-name="uni2113" horiz-adv-x="474" unicode="ℓ"/><glyph d="M91 210q-28 67 -28 140t28.5 139.5t76.5 115t114.5 77t139.5 28.5t139.5 -29t114.5 -77t77 -114.5t29 -139.5t-28.5 -139.5t-77 -114.5t-115 -76.5t-139.5 -28.5t-139.5 28.5t-114.5 76.5t-77 114zM146 466q-23 -55 -23 -116t23.5 -116.5t63.5 -95.5t95.5 -63.5 t116.5 -23.5t116.5 23.5t95.5 63.5t63.5 95.5t23.5 116.5t-23.5 116.5t-63.5 95.5t-95.5 63.5t-116.5 23.5t-116.5 -23.5t-95.5 -63.5t-64 -96zM311 187v328q0 8 5.5 13.5t13.5 5.5h142q50 0 86.5 -29.5t36.5 -82.5q0 -54 -34 -84.5t-89 -30.5h-97v-120q0 -8 -5.5 -13.5 t-13.5 -5.5h-26q-8 0 -13.5 5.5t-5.5 13.5zM374 365h98q27 0 43.5 16.5t16.5 40.5q0 26 -16 41.5t-44 15.5h-98v-114z" glyph-name="uni2117" horiz-adv-x="845" unicode="℗"/><glyph d="M194 551q-5 0 -8.5 4.5t-2.5 10.5l31 169q2 9 11 9h5q7 0 11 -6l51 -123l52 123q2 6 11 6h3q10 0 12 -9l33 -170q2 -5 -2.5 -9.5t-10.5 -4.5h-14q-5 0 -7.5 3.5t-3.5 7.5l-18 97l-43 -104q-2 -6 -10 -6h-4q-3 0 -6.5 2t-4.5 5l-42 103l-18 -98q-2 -3 -4.5 -6.5t-6.5 -3.5 h-14zM85 551q-5 0 -8 3.5t-3 8.5v142h-47q-11 0 -11 11v14q0 11 11 11h133q10 0 10 -11v-14q0 -11 -10 -11h-48v-142q0 -5 -3.5 -8.5t-8.5 -3.5h-15z" glyph-name="trademark" horiz-adv-x="411" unicode="™"/><glyph d="M77 15v41q0 6 4.5 10.5t10.5 4.5h111q-68 40 -107 116t-39 165q0 98 48 180.5t130.5 130t181.5 47.5t181.5 -47.5t130.5 -130t48 -180.5q0 -89 -39 -164.5t-106 -116.5h111q6 0 10.5 -4.5t4.5 -10.5v-41q0 -6 -4.5 -10.5t-10.5 -4.5h-249q-6 0 -10 4.5t-4 10.5v29 q0 10 4 14t13 8q92 28 151 107t59 176q0 77 -39.5 144t-106.5 106.5t-144 39.5t-144 -39.5t-106 -106.5t-39 -144q0 -96 59 -175.5t151 -107.5q6 -3 9 -5t5 -6.5t2 -10.5v-29q0 -6 -4 -10.5t-10 -4.5h-248q-6 0 -10.5 4.5t-4.5 10.5z" glyph-name="Omega" horiz-adv-x="835" unicode="Ω"/><glyph d="M175 158q39 -57 108 -89.5t145 -32.5q56 0 112 23t102 63q12 12 23 1l12 -14q8 -10 -4 -22q-104 -98 -245 -98q-75 0 -142.5 28t-115.5 75.5t-76.5 114.5t-28.5 142t28.5 142t76.5 115t115.5 76.5t142.5 28.5q74 0 141.5 -28.5t116 -76.5t77 -115t28.5 -142 q0 -14 -3.5 -19t-14.5 -5h-598v-167zM175 371h508v168q-42 58 -109 91t-146 33q-78 0 -144 -32t-109 -90v-170z" glyph-name="estimated" horiz-adv-x="839" unicode="℮"/><glyph d="M146 10q-5 -10 -17 -10h-14q-8 0 -13.5 5t-5.5 13q0 6 2 9l343 663q6 10 17 10h16q8 0 13.5 -5t5.5 -13q0 -6 -2 -9zM112 404q-10 0 -10 9v210l-41 -11q-8 -2 -10 4l-5 17l-1 1v3q0 3 4 7l70 56h28q9 0 9 -9v-278q0 -4 -2.5 -6.5t-6.5 -2.5h-35zM461 -10q-66 0 -103 41 q-2 2 -2 5t3 6l21 20q8 4 13 -1q2 -2 10.5 -7.5t24.5 -12t31 -6.5q24 0 42 12.5t18 32.5t-18.5 34t-54.5 14h-31q-10 0 -10 9v25q0 9 10 9h31q32 0 48.5 12.5t16.5 31.5q0 20 -16 32.5t-38 12.5q-32 0 -56 -24q-6 -6 -13 0l-20 18q-3 2 -3 6t3 6q14 16 40 28t53 12 q44 0 74.5 -23t30.5 -60q0 -24 -16 -43.5t-36 -26.5v-2q22 -8 41.5 -28.5t19.5 -46.5q0 -38 -31.5 -62t-82.5 -24z" glyph-name="onethird" horiz-adv-x="626" unicode="⅓"/><glyph d="M202 10q-5 -10 -17 -10h-14q-8 0 -13.5 5t-5.5 13q0 6 2 9l343 663q6 10 17 10h16q8 0 13.5 -5t5.5 -13q0 -6 -2 -9zM517 -10q-66 0 -103 41q-2 2 -2 5t3 6l21 20q8 4 13 -1q2 -2 10.5 -7.5t24.5 -12t31 -6.5q24 0 42 12.5t18 32.5t-18.5 34t-54.5 14h-31q-10 0 -10 9v25 q0 9 10 9h31q32 0 48.5 12.5t16.5 31.5q0 20 -16 32.5t-38 12.5q-32 0 -56 -24q-6 -6 -13 0l-20 18q-3 2 -3 6t3 6q14 16 40 28t53 12q44 0 74.5 -23t30.5 -60q0 -24 -16 -43.5t-36 -26.5v-2q22 -8 41.5 -28.5t19.5 -46.5q0 -38 -31.5 -62t-82.5 -24zM61 404q-10 0 -10 9v14 l127 133q32 34 32 56q0 18 -14.5 32.5t-42.5 14.5q-32 0 -62 -30q-6 -6 -12 0l-20 21q-6 6 0 11q16 19 43.5 32t53.5 13q52 0 80 -25t28 -64q0 -40 -49 -90l-81 -83h121q9 0 9 -10v-25q0 -9 -9 -9h-194z" glyph-name="twothirds" horiz-adv-x="680" unicode="⅔"/><glyph d="M482 -10q-49 0 -79 23.5t-30 60.5q0 26 20 48t37 30v2q-18 8 -33.5 27t-15.5 43q0 37 29 59.5t73 22.5t73.5 -22.5t29.5 -59.5q0 -23 -15.5 -41.5t-34.5 -28.5v-2q21 -10 39.5 -31t18.5 -47q0 -37 -30.5 -60.5t-81.5 -23.5zM483 176q24 4 37 16t13 29q0 18 -14.5 30 t-36.5 12q-20 0 -34 -12t-14 -30q0 -37 49 -45zM483 33q24 0 40.5 12.5t16.5 31.5q0 18 -15.5 32t-41.5 19q-26 -5 -41 -19.5t-15 -31.5q0 -20 17 -32t39 -12zM146 10q-5 -10 -17 -10h-14q-8 0 -13.5 5t-5.5 13q0 6 2 9l343 663q6 10 17 10h16q8 0 13.5 -5t5.5 -13 q0 -6 -2 -9zM112 404q-10 0 -10 9v210l-41 -11q-8 -2 -10 4l-5 17l-1 1v3q0 3 4 7l70 56h28q9 0 9 -9v-278q0 -4 -2.5 -6.5t-6.5 -2.5h-35z" glyph-name="oneeighth" horiz-adv-x="644" unicode="⅛"/><glyph d="M524 -10q-49 0 -79 23.5t-30 60.5q0 26 20 48t37 30v2q-18 8 -33.5 27t-15.5 43q0 37 29 59.5t73 22.5t73.5 -22.5t29.5 -59.5q0 -23 -15.5 -41.5t-34.5 -28.5v-2q21 -10 39.5 -31t18.5 -47q0 -37 -30.5 -60.5t-81.5 -23.5zM525 176q24 4 37 16t13 29q0 18 -14.5 30 t-36.5 12q-20 0 -34 -12t-14 -30q0 -37 49 -45zM525 33q24 0 40.5 12.5t16.5 31.5q0 18 -15.5 32t-41.5 19q-26 -5 -41 -19.5t-15 -31.5q0 -20 17 -32t39 -12zM188 10q-5 -10 -17 -10h-14q-8 0 -13.5 5t-5.5 13q0 6 2 9l343 663q6 10 17 10h16q8 0 13.5 -5t5.5 -13 q0 -6 -2 -9zM153 394q-66 0 -103 41q-2 2 -2 5t3 6l21 20q8 4 13 -1q2 -2 10.5 -7.5t24.5 -12t31 -6.5q24 0 42 12.5t18 32.5t-18.5 34t-54.5 14h-31q-10 0 -10 9v25q0 9 10 9h31q32 0 48.5 12.5t16.5 31.5q0 20 -16 32.5t-38 12.5q-32 0 -56 -24q-6 -6 -13 0l-20 18 q-3 2 -3 6t3 6q14 16 40 28t53 12q44 0 74.5 -23t30.5 -60q0 -24 -16 -43.5t-36 -26.5v-2q22 -8 41.5 -28.5t19.5 -46.5q0 -38 -31.5 -62t-82.5 -24z" glyph-name="threeeighths" horiz-adv-x="685" unicode="⅜"/><glyph d="M526 -10q-49 0 -79 23.5t-30 60.5q0 26 20 48t37 30v2q-18 8 -33.5 27t-15.5 43q0 37 29 59.5t73 22.5t73.5 -22.5t29.5 -59.5q0 -23 -15.5 -41.5t-34.5 -28.5v-2q21 -10 39.5 -31t18.5 -47q0 -37 -30.5 -60.5t-81.5 -23.5zM527 176q24 4 37 16t13 29q0 18 -14.5 30 t-36.5 12q-20 0 -34 -12t-14 -30q0 -37 49 -45zM527 33q24 0 40.5 12.5t16.5 31.5q0 18 -15.5 32t-41.5 19q-26 -5 -41 -19.5t-15 -31.5q0 -20 17 -32t39 -12zM153 394q-62 0 -98 38q-5 5 -5 9q0 2 4 6l21 20q6 6 12 0q4 -4 11.5 -9t24 -11.5t32.5 -6.5q28 0 46 17t18 40 q0 24 -17.5 39t-48.5 15h-77q-7 0 -11 4.5t-4 11.5v124q0 4 2.5 6.5t6.5 2.5h156q4 0 6.5 -2.5t2.5 -6.5v-27q0 -3 -2.5 -5.5t-6.5 -2.5h-117v-60h48q54 0 84.5 -26.5t30.5 -71.5q0 -44 -34 -74t-85 -30zM190 10q-5 -10 -17 -10h-14q-8 0 -13.5 5t-5.5 13q0 6 2 9l343 663 q6 10 17 10h16q8 0 13.5 -5t5.5 -13q0 -6 -2 -9z" glyph-name="fiveeighths" horiz-adv-x="687" unicode="⅝"/><glyph d="M495 -10q-49 0 -79 23.5t-30 60.5q0 26 20 48t37 30v2q-18 8 -33.5 27t-15.5 43q0 37 29 59.5t73 22.5t73.5 -22.5t29.5 -59.5q0 -23 -15.5 -41.5t-34.5 -28.5v-2q21 -10 39.5 -31t18.5 -47q0 -37 -30.5 -60.5t-81.5 -23.5zM496 176q24 4 37 16t13 29q0 18 -14.5 30 t-36.5 12q-20 0 -34 -12t-14 -30q0 -37 49 -45zM496 33q24 0 40.5 12.5t16.5 31.5q0 18 -15.5 32t-41.5 19q-26 -5 -41 -19.5t-15 -31.5q0 -20 17 -32t39 -12zM77 404q-9 0 -9 7v7l132 237h-143q-4 0 -6.5 2.5t-2.5 6.5v27q0 4 2.5 6.5t6.5 2.5h201q4 0 6.5 -2.5t2.5 -6.5 v-11l-143 -267q-5 -9 -13 -9h-34zM159 10q-5 -10 -17 -10h-14q-8 0 -13.5 5t-5.5 13q0 6 2 9l343 663q6 10 17 10h16q8 0 13.5 -5t5.5 -13q0 -6 -2 -9z" glyph-name="seveneighths" horiz-adv-x="655" unicode="⅞"/><glyph d="M48 226q0 66 31 118t81 78.5t109 26.5q42 0 85.5 -13.5t71.5 -32.5q-8 37 -34 75.5t-59 68t-68.5 54.5t-62.5 39t-41 19q-21 8 -21 21q0 3 2 9l12 25q4 11 15 11q5 0 7 -1q26 -10 52 -23t61 -35t65 -47t60.5 -60.5t52 -75t35 -91.5t13.5 -109q0 -63 -14.5 -115 t-42.5 -92.5t-75 -63t-108 -22.5q-92 0 -159.5 69.5t-67.5 166.5zM121 221q0 -66 45 -114.5t109 -48.5q35 0 64 12.5t48 33t32 48.5t18.5 57t5.5 59q0 27 -4 47q-28 28 -73.5 47.5t-89.5 19.5q-64 0 -109.5 -46.5t-45.5 -114.5z" glyph-name="partialdiff" horiz-adv-x="579" unicode="∂"/><glyph d="M60 0q-20 0 -23 11t5 28l298 666q5 9 14 9h5q9 0 14 -9l297 -668q3 -6 4.5 -12.5t0 -12t-7 -9t-15.5 -3.5h-592zM574 71l-217 502h-2l-220 -502h439z" glyph-name="Delta" horiz-adv-x="717" unicode="∆"/><glyph d="M106 15v670q0 6 4.5 10.5t10.5 4.5h529q6 0 10.5 -4.5t4.5 -10.5v-670q0 -6 -4.5 -10.5t-10.5 -4.5h-48q-6 0 -10.5 4.5t-4.5 10.5v614h-403v-614q0 -6 -4 -10.5t-11 -4.5h-48q-6 0 -10.5 4.5t-4.5 10.5z" glyph-name="product" horiz-adv-x="771" unicode="∏"/><glyph d="M48 15v20l310 322l-310 310v18q0 6 4 10.5t10 4.5h405q6 0 10.5 -4.5t4.5 -10.5v-42q0 -6 -4.5 -10.5t-10.5 -4.5h-289l240 -231q15 -15 15 -26v-27q0 -4 -2 -8t-3.5 -6t-5.5 -6t-4 -5l-240 -248h289q6 0 10.5 -4t4.5 -10v-42q0 -6 -4.5 -10.5t-10.5 -4.5h-405 q-6 0 -10 4.5t-4 10.5z" glyph-name="summation" horiz-adv-x="547" unicode="∑"/><glyph d="M110 314q-8 0 -13.5 6t-5.5 13v28q0 8 5.5 13.5t13.5 5.5h381q8 0 13 -6t5 -13v-28q0 -8 -5.5 -13.5t-12.5 -5.5h-381z" glyph-name="minus" unicode="−"/><glyph d="M-93 10q-5 -10 -17 -10h-14q-8 0 -13.5 5t-5.5 13q0 6 2 9l343 663q6 10 17 10h16q8 0 13.5 -5t5.5 -13q0 -6 -2 -9z" glyph-name="uni2215" horiz-adv-x="120" unicode="∕"/><glyph d="M120 204q-23 0 -40 17t-17 40q0 24 16.5 40.5t40.5 16.5t40.5 -16.5t16.5 -40.5t-16.5 -40.5t-40.5 -16.5z" glyph-name="uni2219" horiz-adv-x="241" unicode="∙"/><glyph d="M199 0l-169 383q-2 6 -2 8q0 9 12 9h51q5 0 8.5 -3t4.5 -5l111 -261h3l248 559q4 10 15 10h149q6 0 10 -4.5t4 -10.5v-35q0 -6 -4 -10.5t-10 -4.5h-111l-287 -635q-4 -10 -14 -10h-6q-8 0 -13 10z" glyph-name="radical" horiz-adv-x="660" unicode="√"/><glyph d="M210 157q-58 0 -98.5 41t-40.5 98q0 58 40.5 98.5t98.5 40.5q34 0 65 -18.5t49 -47.5q18 30 49 48t67 18q57 0 98 -40.5t41 -98.5q0 -57 -41 -98t-98 -41q-36 0 -66.5 18.5t-49.5 47.5q-19 -29 -49.5 -47.5t-64.5 -18.5zM438 213q34 0 58.5 24.5t24.5 58.5t-24.5 58.5 t-58.5 24.5q-35 0 -59 -24.5t-24 -58.5t24 -58.5t59 -24.5zM152 237q25 -24 59 -24t58.5 24.5t24.5 58.5t-24.5 58.5t-58.5 24.5t-58.5 -24.5t-24.5 -58.5t24 -59z" glyph-name="infinity" horiz-adv-x="650" unicode="∞"/><glyph d="M204 -79v619q0 84 42.5 127t110.5 43q66 0 110 -41q6 -6 6 -14q0 -6 -2 -9l-16 -26q-9 -14 -26 -1q-38 29 -73 29q-37 0 -60 -26.5t-23 -81.5v-619q0 -84 -42.5 -127t-110.5 -43q-66 0 -110 41q-6 6 -6 14q0 6 2 9l16 26q9 14 26 1q12 -10 34 -19.5t39 -9.5q37 0 60 26.5 t23 81.5z" glyph-name="integral" horiz-adv-x="482" unicode="∫"/><glyph d="M146 326l-21 16q-6 4 -6 11q0 5 4 11q16 33 46 57.5t64 24.5q40 0 82 -36q30 -25 53 -25q40 0 64 51q3 6 10 7t12 -3l22 -16q6 -4 6 -11q0 -5 -4 -11q-16 -33 -46 -57.5t-64 -24.5q-40 0 -82 35q-31 26 -53 26q-41 0 -65 -51q-3 -6 -10 -7t-12 3zM147 122l-22 16 q-6 4 -6 11q0 5 4 11q16 33 46 57.5t64 24.5q40 0 82 -36q30 -25 53 -25q40 0 64 51q3 6 10 7t12 -3l22 -16q6 -4 6 -11q0 -5 -4 -11q-16 -33 -46 -57.5t-64 -24.5q-40 0 -82 35q-31 26 -53 26q-40 0 -64 -51q-3 -6 -10 -7t-12 3z" glyph-name="approxequal" unicode="≈"/><glyph d="M203 57q-18 10 -10 24l27 59h-70q-8 0 -13.5 6t-5.5 13v31q0 8 5.5 13.5t13.5 5.5h102l67 142h-169q-8 0 -13.5 5.5t-5.5 13.5v30q0 8 5.5 13.5t13.5 5.5h200l36 76q4 11 17 11q4 0 8 -2l6 -3q8 -2 10.5 -11.5t-0.5 -12.5l-28 -58h50q8 0 13.5 -5.5t5.5 -13.5v-30 q0 -8 -5.5 -13.5t-13.5 -5.5h-82l-66 -142h148q8 0 13.5 -5.5t5.5 -13.5v-31q0 -8 -5.5 -13.5t-13.5 -5.5h-180l-36 -77q-4 -11 -17 -11q-4 0 -8 2z" glyph-name="notequal" unicode="≠"/><glyph d="M97 382q-10 7 -10 17v5q0 9 10 16l384 194q6 2 8 2q10 0 10 -14v-41q0 -10 -8 -15l-303 -144l303 -141q8 -6 8 -15v-41q0 -10 -5.5 -13t-12.5 1zM103 61q-8 0 -13.5 6t-5.5 13v28q0 8 5.5 13.5t13.5 5.5h381q8 0 13 -6t5 -13v-28q0 -8 -5.5 -13.5t-12.5 -5.5h-381z" glyph-name="lessequal" unicode="≤"/><glyph d="M119 193q-7 -4 -12.5 -0.5t-5.5 12.5v41q0 10 8 15l303 141l-303 144q-8 6 -8 15v41q0 14 10 14q2 0 8 -2l384 -194q10 -7 10 -16v-5q0 -10 -10 -17zM116 61q-8 0 -13.5 6t-5.5 13v28q0 8 5.5 13.5t13.5 5.5h381q8 0 13 -6t5 -13v-28q0 -8 -5.5 -13.5t-12.5 -5.5h-381z" glyph-name="greaterequal" unicode="≥"/><glyph d="M69 306q-12 16 -16 25t-4 22v8q1 12 5 20.5t17 26.5l221 297q6 9 14 9h5q10 0 14 -9l220 -296q12 -18 17 -28.5t5 -23.5q0 -4 -0.5 -6.5t-0.5 -6t-1 -5.5t-2 -5.5t-2 -5t-3.5 -5.5t-3 -5.5t-4.5 -7t-5 -7.5l-220 -295q-4 -8 -14 -8h-5q-8 0 -14 8zM307 95h2l188 261 l-188 263h-2l-188 -263z" glyph-name="lozenge" horiz-adv-x="620" unicode="◊"/><glyph d="M84 -119q0 22 15 35t39 13q32 0 50.5 -22.5t18.5 -62.5q0 -66 -46 -112q-3 -3 -7 -3t-8 3l-16 12q-8 8 0 17q12 10 20.5 28t8.5 37q0 14 -5 22q-7 -7 -25 -7q-20 0 -32.5 11t-12.5 29z" glyph-name="uniF6C3" horiz-adv-x="292" unicode=""/><glyph d="M50 30v640q0 16 7 23t23 7h439q16 0 23 -7t7 -23v-640q0 -16 -7 -23t-23 -7h-439q-16 0 -23 7t-7 23zM262 314q0 -5 4 -8.5t10 -3.5h36q15 0 15 13v26q0 13 10.5 25t26.5 23.5t31 24.5t26 33t11 44q0 48 -36 79.5t-89 31.5q-42 0 -78 -19t-52 -42q-4 -6 -4 -10q0 -6 4 -8 l22 -22q4 -3 9 -3q6 0 8 3l10 9q10 10 17 15t23 11t34 6q28 0 44.5 -15t16.5 -37q0 -18 -10.5 -32t-24.5 -25.5t-29 -23t-25 -28.5t-10 -38v-29zM293 108q20 0 34.5 14t14.5 34t-14.5 34t-34.5 14t-34 -14t-14 -34t14.5 -34t33.5 -14z" glyph-name="uniF8FF" horiz-adv-x="599" unicode=""/><glyph d="M119 22v376h-74q-9 0 -15.5 6.5t-6.5 15.5v20q0 10 6.5 16t15.5 6h74v31q0 99 55.5 153t143.5 54q44 0 80.5 -14t57.5 -31q38 55 123 55q78 0 127 -47q9 -6 9 -17q0 -4 -3 -9l-17 -25q-6 -9 -14 -9q-6 0 -17 7q-42 33 -86 33q-40 0 -59 -25t-19 -84v-72h136q9 0 15.5 -6 t6.5 -16v-20q0 -9 -6.5 -15.5t-15.5 -6.5h-136v-376q0 -9 -7 -15.5t-16 -6.5h-29q-9 0 -15.5 6.5t-6.5 15.5v376h-234v-376q0 -9 -6.5 -15.5t-15.5 -6.5h-29q-9 0 -15.5 6.5t-6.5 15.5zM192 462h234v72q0 32 5 53q-15 18 -48 32t-67 14q-58 0 -91 -34.5t-33 -105.5v-31z" glyph-name="uniFB00" horiz-adv-x="680" unicode="ﬀ"/><glyph d="M119 22v376h-74q-9 0 -15.5 6.5t-6.5 15.5v20q0 10 6.5 16t15.5 6h74v61q0 89 48 138t128 49q50 0 92.5 -18t66.5 -37q6 -4 7.5 -12.5t-2.5 -13.5l-19 -28q-6 -7 -13 -7t-16 6q-58 43 -117 43q-48 0 -74.5 -30.5t-26.5 -89.5v-61h286q9 0 15.5 -7t6.5 -15v-418 q0 -9 -6.5 -15.5t-15.5 -6.5h-30q-8 0 -15 6.5t-7 15.5v376h-234v-376q0 -9 -6.5 -15.5t-15.5 -6.5h-30q-9 0 -15.5 6.5t-6.5 15.5z" glyph-name="uniFB01" horiz-adv-x="577" unicode="ﬁ"/><glyph d="M119 22v376h-74q-9 0 -15.5 6t-6.5 15v21q0 10 6.5 16t15.5 6h74v53q0 96 52.5 145.5t131.5 49.5q45 0 88 -17t67 -40l8 28q1 3 2.5 7t6.5 8t12 4h1l13 -1q9 0 15.5 -6.5t6.5 -15.5v-656q0 -9 -6.5 -15.5t-15.5 -6.5l-29 1q-8 0 -15 6.5t-7 15.5v549q-22 30 -61 51 t-80 21q-50 0 -83 -32.5t-33 -95.5v-53h137q9 0 15.5 -6t6.5 -16v-21q0 -9 -6.5 -15t-15.5 -6h-137v-376q0 -9 -6.5 -15.5t-15.5 -6.5h-30q-9 0 -15.5 6.5t-6.5 15.5z" glyph-name="uniFB02" horiz-adv-x="606" unicode="ﬂ"/><glyph d="M602 710q50 0 93 -18t66 -37q6 -4 7.5 -12.5t-2.5 -13.5l-19 -28q-6 -7 -13 -7t-16 6q-58 43 -117 43q-48 0 -74.5 -27.5t-26.5 -81.5v-72h286q9 0 15.5 -7t6.5 -15v-418q0 -9 -6.5 -15.5t-15.5 -6.5h-30q-8 0 -15 6.5t-7 15.5v376h-234v-376q0 -9 -7 -15.5t-16 -6.5h-29 q-9 0 -15.5 6.5t-6.5 15.5v376h-234v-376q0 -9 -6.5 -15.5t-15.5 -6.5h-29q-9 0 -15.5 6.5t-6.5 15.5v376h-74q-9 0 -15.5 6.5t-6.5 15.5v20q0 10 6.5 16t15.5 6h74v31q0 99 55.5 153t143.5 54q46 0 84 -14t61 -32q43 56 139 56zM192 462h234v72q0 36 5 57q-17 16 -50 29 t-65 13q-58 0 -91 -34.5t-33 -105.5v-31z" glyph-name="uniFB03" horiz-adv-x="884" unicode="ﬃ"/><glyph d="M610 710q45 0 88 -17t67 -40l8 28q2 6 3.5 9t6.5 6.5t12 3.5l13 -1q10 0 16 -7.5t6 -14.5v-656q0 -9 -6.5 -15.5t-15.5 -6.5l-29 1q-8 0 -15 6.5t-7 15.5v549q-22 30 -61.5 51t-79.5 21q-55 0 -85.5 -30.5t-30.5 -91.5v-59h137q9 0 15.5 -6t6.5 -16v-21q0 -9 -6.5 -15 t-15.5 -6h-137v-376q0 -9 -7 -15.5t-16 -6.5h-29q-9 0 -15.5 6.5t-6.5 15.5v376h-234v-376q0 -9 -6.5 -15.5t-15.5 -6.5h-29q-9 0 -15.5 6.5t-6.5 15.5v376h-74q-9 0 -15.5 6.5t-6.5 15.5v20q0 10 6.5 16t15.5 6h74v31q0 99 55.5 153t143.5 54q82 0 151 -45q21 26 57 40.5 t84 14.5zM192 462h234v61q0 38 8 67q-16 16 -50.5 29.5t-67.5 13.5q-58 0 -91 -34.5t-33 -105.5v-31z" glyph-name="uniFB04" horiz-adv-x="913" unicode="ﬄ"/><glyph d="M257 789q-5 -8 -11.5 -12.5t-12.5 -1.5l-170 77q-10 5 -10.5 16.5t5.5 25.5t18.5 19t22.5 -1l156 -95q5 -3 5.5 -11.5t-3.5 -16.5z" glyph-name="glyph306" horiz-adv-x="302"/><glyph d="M57 789q-4 8 -3.5 16.5t5.5 11.5l156 95q10 6 22.5 1t18.5 -19t5.5 -25.5t-10.5 -16.5l-170 -77q-6 -3 -12.5 1.5t-11.5 12.5z" glyph-name="glyph308" horiz-adv-x="302"/><glyph d="M191 909q6 0 12 -5l122 -97q13 -10 0 -27q-5 -7 -10.5 -10.5t-13.5 1.5l-110 68l-110 -68q-8 -5 -13.5 -1.5t-10.5 10.5q-14 17 0 27l122 97q6 5 12 5z" glyph-name="glyph310" horiz-adv-x="373"/><glyph d="M183 769q-6 0 -12 5l-122 97q-6 5 -6 12t6 15q5 7 10.5 10.5t13.5 -1.5l110 -68l110 68q8 5 13.5 1.5t10.5 -10.5q13 -17 0 -27l-122 -97q-6 -5 -12 -5z" glyph-name="glyph312" horiz-adv-x="373"/><glyph d="M121 663q0 22 15 35t39 13q32 0 50.5 -22.5t18.5 -62.5q0 -66 -46 -112q-3 -3 -7 -3t-8 3l-16 12q-8 8 0 17q12 10 20.5 28t8.5 37q0 14 -5 22q-7 -7 -25 -7q-20 0 -32.5 11t-12.5 29z" glyph-name="glyph313" horiz-adv-x="373"/><glyph d="M62 795l-18 9q-6 2 -6 12q0 4 2 10l6 15t11.5 23t16 21t25.5 19t33 6q16 0 31 -7.5t25 -18.5t19 -22t18 -18.5t17 -7.5q30 0 45 51q5 16 23 8l16 -8q7 -4 7 -12q0 -2 -3 -14q-28 -81 -89 -81q-18 0 -36 12t-29.5 26t-23.5 25.5t-21 11.5q-10 0 -17.5 -4.5t-12.5 -13.5 t-8 -15t-6 -17q-4 -13 -15 -13q-4 0 -10 3z" glyph-name="glyph315" horiz-adv-x="380"/><glyph d="M342 788q-21 0 -36 15t-15 36q0 22 15 37t36 15q22 0 37 -15t15 -37q0 -21 -15 -36t-37 -15zM131 788q-21 0 -36 15t-15 36q0 22 15 37t36 15q22 0 37 -15t15 -37q0 -21 -15 -36t-37 -15z" glyph-name="glyph317" horiz-adv-x="474"/><glyph d="M79 821q-8 0 -13.5 5.5t-5.5 12.5v21q0 8 5.5 13.5t13.5 5.5h256q8 0 13.5 -5.5t5.5 -13.5v-21q0 -8 -5.5 -13t-13.5 -5h-256z" glyph-name="glyph319" horiz-adv-x="414"/><glyph d="M171 771q-52 0 -90 32.5t-45 81.5v5q0 15 14 15h21q14 0 19 -17q8 -29 30 -46.5t51 -17.5q27 0 49 18.5t30 45.5q6 17 19 17h23q14 0 14 -15q0 -49 -42.5 -84t-92.5 -35z" glyph-name="glyph322" horiz-adv-x="346"/><glyph d="M145 758q-46 0 -77.5 31.5t-31.5 77.5t31.5 77.5t77.5 31.5q45 0 77 -32t32 -77t-32 -77t-77 -32zM102 824q19 -18 43 -18t41.5 18.5t17.5 42.5t-17.5 41.5t-41.5 17.5t-42.5 -17.5t-18.5 -41.5t18 -43z" glyph-name="glyph324" horiz-adv-x="290"/><glyph d="M62 763q-7 3 -11.5 8.5t-2.5 13.5l54 168q3 11 15 13t26 -3q13 -5 19.5 -14.5t2.5 -17.5l-75 -163q-3 -7 -11.5 -8t-16.5 3zM228 763q-7 3 -11.5 8.5t-2.5 13.5l54 168q3 11 15 13t26 -3q13 -5 19.5 -14.5t2.5 -17.5l-75 -163q-3 -7 -11.5 -8t-16.5 3z" glyph-name="glyph326" horiz-adv-x="392"/><glyph d="M108 798q-23 0 -38.5 16t-15.5 38q0 24 15.5 40t38.5 16t39 -16t16 -40q0 -22 -16 -38t-39 -16z" glyph-name="glyph328" horiz-adv-x="219"/><glyph d="M112 3h52l-45 -70q12 4 25 4q35 0 59.5 -20.5t24.5 -62.5t-32 -68t-77 -26q-52 0 -82 28q-4 4 -4 9q0 4 4 12l8 15q4 8 10 9t11 -4q22 -20 50 -20q26 0 41 12.5t15 32.5q0 22 -14 33.5t-39 11.5q-24 0 -44 -10q-5 -2 -10 2.5t-2 10.5z" glyph-name="glyph330" horiz-adv-x="247"/><glyph d="M199 3q-18 -10 -33.5 -21.5t-34.5 -29.5t-30 -39.5t-11 -43.5q0 -25 13.5 -39t37.5 -14q28 0 63 26q8 5 12 2.5t4 -7.5l1 -34q0 -16 -12 -24q-13 -8 -36 -15.5t-47 -7.5q-47 0 -73 28t-26 72q0 23 8.5 44.5t19 36.5t28 30t28.5 23t28 19z" glyph-name="glyph332" horiz-adv-x="276"/><glyph d="M191 600q0 -22 -15 -35t-39 -13q-32 0 -50.5 22t-18.5 63q0 66 46 112q3 3 7 3t8 -3l16 -12q8 -8 0 -17q-12 -10 -20.5 -28t-8.5 -37q0 -14 5 -22q7 7 25 7q20 0 32.5 -11t12.5 -29z" glyph-name="glyph334" horiz-adv-x="292"/><glyph d="M84 -119q0 22 15 35t39 13q32 0 50.5 -22.5t18.5 -62.5q0 -66 -46 -112q-3 -3 -7 -3t-8 3l-16 12q-8 8 0 17q12 10 20.5 28t8.5 37q0 14 -5 22q-7 -7 -25 -7q-20 0 -32.5 11t-12.5 29z" glyph-name="glyph335" horiz-adv-x="292"/><glyph d="M192 462h234v61q0 38 8 67q-16 16 -50.5 29.5t-67.5 13.5q-58 0 -91 -34.5t-33 -105.5v-31zM808 0h-29q-8 0 -15 6.5t-7 15.5v549q-22 30 -61.5 51t-79.5 21q-55 0 -85.5 -30.5t-30.5 -91.5v-59h137q9 0 15.5 -6t6.5 -16v-21q0 -9 -6.5 -15t-15.5 -6h-137v-376 q0 -9 -7 -15.5t-16 -6.5h-29q-9 0 -15.5 6.5t-6.5 15.5v376h-234v-376q0 -9 -6.5 -15.5t-15.5 -6.5h-29q-9 0 -15.5 6.5t-6.5 15.5v376h-74q-9 0 -15.5 6.5t-6.5 15.5v20q0 10 6.5 16t15.5 6h74v31q0 99 55.5 153t143.5 54q82 0 151 -45q21 26 57 40.5t84 14.5q45 0 88 -17 t67 -40l8 28q2 6 3.5 9t6.5 6.5t12 3.5h13q8 0 15 -7t7 -15v-265q22 24 62.5 41.5t84.5 17.5q85 0 126 -52t41 -154v-244q0 -9 -7 -15.5t-15 -6.5h-31q-9 0 -15.5 6.5t-6.5 15.5v244q0 68 -22.5 103.5t-74.5 35.5q-41 0 -80 -19t-62 -47v-317q0 -9 -7 -15.5t-15 -6.5z" glyph-name="f_f_h.dlig" horiz-adv-x="1217"/><glyph d="M488 700h13q8 0 15 -7t7 -15v-391l192 161q16 14 28 14h56q16 0 16 -15q0 -10 -5 -13l-213 -177l229 -228q5 -5 5 -13q0 -6 -4.5 -11t-12.5 -5h-57q-12 0 -23 9l-211 223v-210q0 -9 -6.5 -15.5t-15.5 -6.5h-29q-8 0 -15 6.5t-7 15.5v549q-22 30 -61 51t-80 21 q-50 0 -83 -32.5t-33 -95.5v-53h137q9 0 15.5 -6t6.5 -16v-21q0 -9 -6.5 -15t-15.5 -6h-137v-376q0 -9 -6.5 -15.5t-15.5 -6.5h-30q-9 0 -15.5 6.5t-6.5 15.5v376h-74q-9 0 -15.5 6t-6.5 15v21q0 10 6.5 16t15.5 6h74v53q0 96 52.5 145.5t131.5 49.5q45 0 88 -17t67 -40 l8 28q2 6 4 9t6.5 6.5t11.5 3.5z" glyph-name="f_k.dlig" horiz-adv-x="855"/><glyph d="M450 571q-17 20 -38 36q-18 14 -44 25t-59 11q-23 0 -44 -7.5t-37 -23t-25.5 -40t-9.5 -57.5v-53h137q9 0 15.5 -6t6.5 -16v-21q0 -9 -6.5 -15t-15.5 -6h-137v-376q0 -9 -6.5 -15.5t-15.5 -6.5h-30q-9 0 -15.5 6.5t-6.5 15.5v376h-74q-9 0 -15.5 6t-6.5 15v21 q0 10 6.5 16t15.5 6h74v53q0 51 15 87.5t40 60.5t58.5 35.5t70.5 11.5q36 0 64.5 -9t48.5 -20q24 -12 42 -28l8 28q2 6 6.5 12.5t15.5 6.5h13q8 0 15 -7t7 -15v-235q16 8 35 14q17 5 40.5 10t52.5 5q52 0 92.5 -18.5t68.5 -51t42.5 -76t14.5 -94.5q0 -50 -16 -94t-43.5 -77 t-65.5 -52.5t-82 -19.5q-54 0 -89 19t-57 40q-2 -23 -14 -37.5t-34 -14.5q-18 0 -18 18v557zM523 132q15 -21 34 -38q17 -14 40.5 -26t55.5 -12q31 0 57 14.5t44.5 39t28.5 56t10 65.5t-10 65.5t-29.5 55.5t-48 38.5t-66.5 14.5q-24 0 -45 -5t-37 -10q-18 -6 -34 -14v-244z" glyph-name="f_b.dlig" horiz-adv-x="918"/><glyph d="M192 462h234v61q0 38 8 67q-16 16 -50.5 29.5t-67.5 13.5q-58 0 -91 -34.5t-33 -105.5v-31zM808 0h-29q-8 0 -15 6.5t-7 15.5v549q-22 30 -61.5 51t-79.5 21q-55 0 -85.5 -30.5t-30.5 -91.5v-59h137q9 0 15.5 -6t6.5 -16v-21q0 -9 -6.5 -15t-15.5 -6h-137v-376 q0 -9 -7 -15.5t-16 -6.5h-29q-9 0 -15.5 6.5t-6.5 15.5v376h-234v-376q0 -9 -6.5 -15.5t-15.5 -6.5h-29q-9 0 -15.5 6.5t-6.5 15.5v376h-74q-9 0 -15.5 6.5t-6.5 15.5v20q0 10 6.5 16t15.5 6h74v31q0 99 55.5 153t143.5 54q82 0 151 -45q21 26 57 40.5t84 14.5q45 0 88 -17 t67 -40l8 28q2 6 3.5 9t6.5 6.5t12 3.5h13q8 0 15 -7t7 -15v-391l192 161q16 14 28 14h56q16 0 16 -15q0 -10 -5 -13l-213 -177l229 -228q5 -5 5 -13q0 -6 -4 -11t-13 -5h-57q-12 0 -23 9l-211 223v-210q0 -9 -7 -15.5t-15 -6.5z" glyph-name="f_f_k.dlig" horiz-adv-x="1162"/><glyph d="M488 700h13q8 0 15 -7t7 -15v-265q21 24 62 41.5t85 17.5q85 0 126 -52t41 -154v-244q0 -9 -6.5 -15.5t-15.5 -6.5h-31q-9 0 -15.5 6.5t-6.5 15.5v244q0 68 -23 103.5t-74 35.5q-41 0 -80 -19t-62 -47v-317q0 -9 -6.5 -15.5t-15.5 -6.5h-29q-8 0 -15 6.5t-7 15.5v549 q-22 30 -61 51t-80 21q-50 0 -83 -32.5t-33 -95.5v-53h137q9 0 15.5 -6t6.5 -16v-21q0 -9 -6.5 -15t-15.5 -6h-137v-376q0 -9 -6.5 -15.5t-15.5 -6.5h-30q-9 0 -15.5 6.5t-6.5 15.5v376h-74q-9 0 -15.5 6t-6.5 15v21q0 10 6.5 16t15.5 6h74v53q0 96 52.5 145.5t131.5 49.5 q45 0 88 -17t67 -40l8 28q2 6 4 9t6.5 6.5t11.5 3.5z" glyph-name="f_h.dlig" horiz-adv-x="910"/><glyph d="M757 571q-17 20 -38 36q-18 14 -44 25t-59 11q-54 0 -85 -29.5t-31 -92.5v-59h137q9 0 15.5 -6t6.5 -16v-21q0 -9 -6.5 -15t-15.5 -6h-137v-376q0 -9 -7 -15.5t-16 -6.5h-29q-9 0 -15.5 6.5t-6.5 15.5v376h-234v-376q0 -9 -6.5 -15.5t-15.5 -6.5h-29q-9 0 -15.5 6.5 t-6.5 15.5v376h-74q-9 0 -15.5 6.5t-6.5 15.5v20q0 10 6.5 16t15.5 6h74v31q0 51 15.5 90t42 65t63 39t78.5 13q51 0 88 -14t63 -31q20 25 56 40t85 15q36 0 64.5 -9t48.5 -20q24 -12 42 -28l8 28q2 6 6.5 12.5t15.5 6.5h13q8 0 15 -7t7 -15v-235q16 8 35 14q17 5 40.5 10 t52.5 5q52 0 92.5 -18.5t68.5 -51t42.5 -76t14.5 -94.5q0 -50 -16 -94t-43.5 -77t-65.5 -52.5t-82 -19.5q-54 0 -89 19t-57 40q-2 -23 -14 -37.5t-34 -14.5q-18 0 -18 18v557zM830 132q15 -21 34 -38q17 -14 40.5 -26t55.5 -12q31 0 57 14.5t44.5 39t28.5 56t10 65.5 t-10 65.5t-29.5 55.5t-48 38.5t-66.5 14.5q-24 0 -45 -5t-37 -10q-18 -6 -34 -14v-244zM426 523q0 38 8 67q-16 16 -49.5 29.5t-68.5 13.5q-56 0 -90 -33t-34 -107v-31h234v61z" glyph-name="f_f_b.dlig" horiz-adv-x="1225"/><glyph d="M300 -11q-60 0 -105.5 25t-76.5 71.5t-46.5 113.5t-15.5 151q0 85 15.5 151.5t46.5 113t76.5 71t105.5 24.5t105.5 -24.5t76.5 -71t46.5 -113t15.5 -151.5q0 -84 -15.5 -151t-46.5 -113.5t-76.5 -71.5t-105.5 -25zM300 60q85 0 125.5 74t40.5 216q0 141 -40.5 215.5 t-125.5 74.5t-125.5 -74.5t-40.5 -215.5q0 -142 40.5 -216t125.5 -74z" glyph-name="zero.tnum"/><glyph d="M116 0q-8 0 -14 5.5t-6 13.5v22q0 9 6 14.5t14 5.5h178v531l-140 -82q-7 -4 -12.5 -4.5t-10.5 6.5l-15 22q-5 7 -3.5 13.5t6.5 9.5l205 137q9 6 18 6h9q8 0 13.5 -5.5t5.5 -13.5v-620h145q20 0 20 -20v-22q0 -19 -20 -19h-399v0z" glyph-name="one.tnum"/><glyph d="M186 67h300q8 0 14 -6t6 -14v-27q0 -8 -6 -14t-14 -6h-391q-8 0 -14 6t-6 14v20q0 10 7 17q60 63 121.5 130t124.5 136q54 57 79 103t25 83q0 22 -7.5 45.5t-24.5 42.5t-44.5 31t-67.5 12q-24 0 -45.5 -7.5t-40 -19t-34 -25t-27.5 -26.5q-6 -6 -13.5 -6t-13.5 6l-21 20 q-5 5 -5.5 13t4.5 14q22 28 52 50q26 19 61.5 35t82.5 16q55 0 96.5 -16.5t69.5 -44t42 -63.5t14 -75q0 -34 -10 -64t-27.5 -58t-41 -55.5t-50.5 -55.5l-195 -209v-2z" glyph-name="two.tnum"/><glyph d="M72 81q-5 6 -5 13t6 12l28 24q16 11 28 -5q3 -5 15.5 -16.5t33 -23.5t48 -21.5t60.5 -9.5q29 0 56.5 8.5t48.5 25t33.5 40.5t12.5 56q0 58 -45 95.5t-140 37.5h-61q-8 0 -14 5t-6 18v25q0 12 4.5 17t17.5 5h60q41 0 72 10t52 27t31.5 39.5t10.5 48.5q0 30 -11 54.5 t-30 41t-44 25.5t-53 9q-26 0 -47.5 -7t-39 -17t-30 -21.5t-21.5 -21.5q-5 -5 -11.5 -7.5t-14.5 5.5l-25 19q-6 5 -5.5 13.5t5.5 13.5q23 25 52 45q25 17 60 31.5t77 14.5q47 0 86.5 -13t68.5 -37.5t45 -59.5t16 -78q0 -30 -10 -56t-26 -47t-34.5 -36.5t-36.5 -23.5v-3 q18 -8 40 -21.5t40.5 -33.5t31 -47.5t12.5 -61.5q0 -44 -16 -81t-46 -64t-73 -42t-97 -15q-47 0 -82.5 10.5t-61 25.5t-41.5 30.5t-25 24.5z" glyph-name="three.tnum"/><glyph d="M60 159q-8 0 -13.5 5.5t-5.5 13.5v28q0 9 6 18l338 470q7 10 11.5 13t15.5 3h16q8 0 14 -6t6 -14v-468h70q9 0 14.5 -5t5.5 -13v-26q0 -8 -5.5 -13.5t-14.5 -5.5h-70v-139q0 -8 -6 -14t-14 -6h-33q-8 0 -13.5 6t-5.5 14v139h-316zM115 222h261v355h-1l-260 -352v-3z" glyph-name="four.tnum"/><glyph d="M91 75q-11 11 -11 18.5t9 16.5q6 5 11.5 11.5t12.5 11.5q7 6 13 6.5t12 -7.5q4 -6 15.5 -18.5t30.5 -25t45.5 -22.5t61.5 -10q37 0 67 13.5t51 37t32.5 54t11.5 64.5q0 30 -10 57t-30 47t-50.5 32t-71.5 12h-157q-15 0 -23.5 11.5t-8.5 24.5v272q0 8 6 13.5t14 5.5h311 q8 0 14 -5.5t6 -13.5v-30q0 -8 -6 -14t-14 -6h-262v-189h120q117 0 177.5 -57.5t60.5 -158.5q0 -50 -18 -93.5t-49.5 -75t-75.5 -49.5t-96 -18q-40 0 -72 9t-56.5 21.5t-42 27.5t-28.5 27z" glyph-name="five.tnum"/><glyph d="M74 283q0 68 18 124t47 101t65.5 79.5t74.5 60t73 42.5t61 27q16 6 23 -10l11 -25q4 -9 0 -17t-18 -13q-12 -4 -33.5 -14t-48 -26t-55 -38t-54 -48t-45.5 -57t-29 -66q20 12 45 23q21 8 49.5 15.5t62.5 7.5q43 0 83 -15.5t71 -44.5t49 -70.5t18 -92.5q0 -49 -18 -92 t-49.5 -75t-73 -50.5t-87.5 -18.5q-63 0 -108 22.5t-74.5 62.5t-43.5 93t-14 115zM314 58q33 0 61 13t49 35.5t33 52t12 62.5q0 34 -12 63t-33 51t-49.5 34.5t-61.5 12.5q-36 0 -65.5 -10.5t-51.5 -23.5q-26 -15 -45 -33q-4 -20 -4 -48q0 -36 9 -73.5t29.5 -67.5t52 -49 t76.5 -19z" glyph-name="six.tnum"/><glyph d="M437 631h-345q-8 0 -13.5 6t-5.5 14v30q0 8 5.5 13.5t13.5 5.5h426q18 0 18 -16q0 -5 -1 -10.5t-6 -16.5l-264 -630q-3 -7 -11 -17t-23 -10h-30q-8 0 -13.5 6t-5.5 14v1q0 11 4 19l251 587v4z" glyph-name="seven.tnum"/><glyph d="M58 189q0 32 12 61.5t32 50.5t40 36t40 23v4q-40 18 -73 61t-33 98q0 84 60 135.5t153 51.5q94 0 154 -51t60 -136q0 -54 -32.5 -97.5t-73.5 -61.5v-4q20 -8 40 -23t39.5 -36t32 -51t12.5 -61q0 -87 -61.5 -143t-171.5 -56q-107 0 -168.5 56t-61.5 143zM290 397 q68 6 102.5 39.5t34.5 83.5q0 57 -39.5 92.5t-97.5 35.5q-60 0 -98.5 -35.5t-38.5 -92.5q0 -50 34 -83.5t103 -39.5zM135 182q0 -60 41.5 -95.5t111.5 -35.5t113 35.5t43 95.5q0 50 -42 90.5t-112 47.5q-71 -7 -113 -47.5t-42 -90.5z" glyph-name="eight.tnum"/><glyph d="M152 21q-4 9 0 16.5t18 12.5q12 4 33.5 14t48 26t55 37.5t54 47.5t45.5 56.5t29 65.5q-20 -13 -45 -24q-21 -9 -49.5 -16t-61.5 -7q-44 0 -84 15.5t-71 45t-49 71t-18 92.5q0 49 18 92t49.5 75t72.5 50.5t88 18.5q63 0 108 -23t74.5 -62.5t43.5 -93.5t14 -115 q0 -68 -18 -124.5t-47.5 -101.5t-66.5 -79.5t-74.5 -60t-72.5 -42.5t-60 -26q-8 -3 -14 0.5t-9 10.5zM286 317q36 0 65.5 10t51.5 23q25 15 45 34q4 20 4 48q0 36 -9 73.5t-29.5 68t-52 49.5t-76.5 19q-33 0 -61 -13t-49 -35.5t-33 -52.5t-12 -63t12 -62.5t33 -51.5 t49.5 -34.5t61.5 -12.5z" glyph-name="nine.tnum"/><glyph d="M54 147q0 75 32 116.5t92 41.5t92 -41.5t32 -116.5q0 -74 -32 -115.5t-92 -41.5t-92 41.5t-32 115.5zM178 38q33 0 51 28t18 81t-18 81.5t-51 28.5t-51 -28.5t-18 -81.5t18 -81t51 -28z" glyph-name="zero.dnom" horiz-adv-x="356"/><glyph d="M98 219l-41 -11q-9 -2 -10 4l-5 17q-1 7 3 11l70 56h28q9 0 9 -9v-278q0 -9 -9 -9h-35q-10 0 -10 9v210z" glyph-name="one.dnom" horiz-adv-x="221"/><glyph d="M53 23l127 133q15 17 23.5 29.5t8.5 26.5q0 16 -13 31.5t-44 15.5q-17 0 -33.5 -9t-28.5 -21q-4 -4 -7 -3t-5 3l-20 21q-6 6 0 11q11 12 26 22q13 8 30.5 15.5t40.5 7.5q54 0 81 -26t27 -63q0 -24 -13.5 -45.5t-35.5 -44.5l-81 -83h121q9 0 9 -10v-25q0 -3 -1.5 -6 t-7.5 -3h-194q-10 0 -10 9v14z" glyph-name="two.dnom" horiz-adv-x="324"/><glyph d="M58 31q-6 6 1 11l21 20q7 4 13 -1q1 -1 6.5 -5t14.5 -8.5t20.5 -8.5t24.5 -4q23 0 41.5 12.5t18.5 32.5q0 19 -17.5 33.5t-55.5 14.5h-31q-10 0 -10 9v25q0 9 10 9h31q34 0 49.5 13t15.5 31q0 20 -16.5 32.5t-37.5 12.5q-22 0 -35 -8t-21 -16q-6 -6 -13 0l-20 18 q-8 6 0 12q12 11 26 20q12 8 29 14t38 6q44 0 74.5 -22.5t30.5 -60.5q0 -26 -15 -44.5t-32 -25.5v-2q18 -7 37 -26.5t19 -48.5q0 -37 -31 -61.5t-83 -24.5q-23 0 -40.5 4.5t-30 11.5t-20.5 13.5t-12 11.5z" glyph-name="three.dnom" horiz-adv-x="327"/><glyph d="M44 59q-9 0 -9 9v32l169 193q3 3 8 3h24q10 0 10 -9v-185h41q9 0 9 -8v-26q0 -8 -9 -8h-41v-51q0 -9 -10 -9h-32q-10 0 -10 9v50h-150zM196 103v118l-106 -118h106z" glyph-name="four.dnom" horiz-adv-x="341"/><glyph d="M66 28q-8 9 -1 15l21 20q7 5 12 0q1 -1 7 -5.5t15 -9t20.5 -8.5t25.5 -4q29 0 46.5 17.5t17.5 39.5q0 23 -16.5 38.5t-49.5 15.5h-77q-8 0 -11.5 5t-3.5 11v124q0 9 9 9h156q9 0 9 -9v-27q0 -8 -9 -8h-117v-60h48q55 0 85 -26.5t30 -71.5q0 -21 -9 -40t-24.5 -33.5 t-37.5 -22.5t-48 -8q-41 0 -64.5 13.5t-33.5 24.5z" glyph-name="five.dnom" horiz-adv-x="332"/><glyph d="M59 124q0 45 20 78.5t46.5 56t53.5 35t41 17.5q8 3 12 -6l10 -23q5 -10 -9 -13q-9 -3 -25.5 -10.5t-34.5 -19.5t-34 -28t-22 -36q4 2 22.5 9.5t41.5 7.5q19 0 37.5 -6t32.5 -18.5t23 -31t9 -42.5q0 -21 -9 -40t-24 -33.5t-35 -22.5t-42 -8q-29 0 -50 11t-35.5 29 t-21.5 42.5t-7 51.5zM106 116q0 -12 4.5 -26t13 -26t21 -19.5t29.5 -7.5q26 0 43 17t17 40t-18 39.5t-44 16.5q-25 0 -42.5 -12.5t-23.5 -21.5z" glyph-name="six.dnom" horiz-adv-x="339"/><glyph d="M76 14l132 237h-143q-9 0 -9 9v27q0 9 9 9h201q9 0 9 -9v-11l-143 -267q-5 -9 -13 -9h-34q-9 0 -9 7v7z" glyph-name="seven.dnom" horiz-adv-x="316"/><glyph d="M56 74q0 15 6.5 28t16 23t19 17t15.5 10v2q-15 7 -32 25.5t-17 44.5q0 38 29 60t73 22t73.5 -22t29.5 -60q0 -26 -17.5 -44t-32.5 -26v-2q8 -4 18 -11t19 -17t15 -22.5t6 -27.5q0 -37 -30 -60.5t-82 -23.5q-50 0 -79.5 23.5t-29.5 60.5zM166 176q26 5 38 17t12 28 q0 18 -14.5 30t-36.5 12q-20 0 -34 -12t-14 -30q0 -17 11.5 -28.5t37.5 -16.5zM110 77q0 -20 17 -32t39 -12q23 0 40 12t17 32q0 17 -14.5 31.5t-42.5 19.5q-27 -5 -41.5 -19.5t-14.5 -31.5z" glyph-name="eight.dnom" horiz-adv-x="333"/><glyph d="M89 12q-5 10 9 13q9 3 25.5 10.5t34.5 19.5t34 28t22 36q-4 -2 -22.5 -9.5t-41.5 -7.5q-19 0 -37.5 6t-32.5 18.5t-23 31t-9 42.5q0 21 8.5 40t23.5 33.5t35 22.5t43 8q28 0 49.5 -11t36 -29t21.5 -42.5t7 -51.5q0 -45 -20 -78.5t-46.5 -56t-53.5 -35.5t-41 -17 q-8 -3 -12 6zM159 144q25 0 42.5 12.5t23.5 21.5q0 12 -4.5 26t-13 26t-21 19.5t-29.5 7.5q-26 0 -43 -17t-17 -40t18 -39.5t44 -16.5z" glyph-name="nine.dnom" horiz-adv-x="322"/><glyph d="M163 394q-60 0 -92 41.5t-32 115.5q0 75 32 116.5t92 41.5t92 -41.5t32 -116.5q0 -74 -32 -115.5t-92 -41.5zM163 442q33 0 51 28t18 81t-18 81.5t-51 28.5t-51 -28.5t-18 -81.5t18 -81t51 -28z" glyph-name="zero.numr" horiz-adv-x="326"/><glyph d="M91 404q-10 0 -10 9v210l-41 -11q-9 -2 -10 4l-5 17q-1 7 3 11l70 56h28q9 0 9 -9v-278q0 -9 -9 -9h-35v0z" glyph-name="one.numr" horiz-adv-x="184"/><glyph d="M43 404q-10 0 -10 9v14l127 133q15 17 23.5 29.5t8.5 26.5q0 16 -13 31.5t-44 15.5q-17 0 -33.5 -9t-28.5 -21q-4 -4 -7 -3t-5 3l-20 21q-6 6 0 11q11 12 26 22q13 8 30.5 15.5t40.5 7.5q54 0 81 -26t27 -63q0 -24 -13.5 -45.5t-35.5 -44.5l-81 -83h121q9 0 9 -10v-25 q0 -3 -1.5 -6t-7.5 -3h-194v0z" glyph-name="two.numr" horiz-adv-x="286"/><glyph d="M140 394q-23 0 -40.5 4.5t-30 11.5t-20.5 13.5t-12 11.5q-6 6 1 11l21 20q7 4 13 -1q1 -1 6.5 -5t14.5 -8.5t20.5 -8.5t24.5 -4q23 0 41.5 12.5t18.5 32.5q0 19 -17.5 33.5t-55.5 14.5h-31q-10 0 -10 9v25q0 9 10 9h31q34 0 49.5 13t15.5 31q0 20 -16.5 32.5t-37.5 12.5 q-22 0 -35 -8t-21 -16q-6 -6 -13 0l-20 18q-8 6 0 12q12 11 26 20q12 8 29 14t38 6q44 0 74.5 -22.5t30.5 -60.5q0 -26 -15 -44.5t-32 -25.5v-2q18 -7 37 -26.5t19 -48.5q0 -37 -31 -61.5t-83 -24.5z" glyph-name="three.numr" horiz-adv-x="289"/><glyph d="M194 404q-10 0 -10 9v50h-150q-9 0 -9 9v32l169 193q3 3 8 3h24q10 0 10 -9v-185h41q9 0 9 -8v-26q0 -8 -9 -8h-41v-51q0 -9 -10 -9h-32zM186 507v118l-106 -118h106z" glyph-name="four.numr" horiz-adv-x="316"/><glyph d="M142 394q-41 0 -64.5 13.5t-33.5 24.5q-8 9 -1 15l21 20q7 5 12 0q1 -1 7 -5.5t15 -9t20.5 -8.5t25.5 -4q29 0 46.5 17.5t17.5 39.5q0 23 -16.5 38.5t-49.5 15.5h-77q-8 0 -11.5 5t-3.5 11v124q0 9 9 9h156q9 0 9 -9v-27q0 -8 -9 -8h-117v-60h48q55 0 85 -26.5t30 -71.5 q0 -21 -9 -40t-24.5 -33.5t-37.5 -22.5t-48 -8z" glyph-name="five.numr" horiz-adv-x="290"/><glyph d="M150 394q-29 0 -50 11t-35.5 29t-21.5 42.5t-7 51.5q0 45 20 78.5t46.5 56t53.5 35t41 17.5q8 3 12 -6l10 -23q5 -10 -9 -13q-9 -3 -25.5 -10.5t-34.5 -19.5t-34 -28t-22 -36q4 2 22.5 9.5t41.5 7.5q19 0 37.5 -6t32.5 -18.5t23 -31t9 -42.5q0 -21 -9 -40t-24 -33.5 t-35 -22.5t-42 -8zM151 441q26 0 43 17t17 40t-18 39.5t-44 16.5q-25 0 -42.5 -12.5t-23.5 -21.5q0 -12 4.5 -26t13 -26t21 -19.5t29.5 -7.5z" glyph-name="six.numr" horiz-adv-x="291"/><glyph d="M59 404q-9 0 -9 7v7l132 237h-143q-9 0 -9 9v27q0 9 9 9h201q9 0 9 -9v-11l-143 -267q-5 -9 -13 -9h-34v0z" glyph-name="seven.numr" horiz-adv-x="268"/><glyph d="M147 394q-50 0 -79.5 23.5t-29.5 60.5q0 15 6.5 28t16 23t19 17t15.5 10v2q-15 7 -32 25.5t-17 44.5q0 38 29 60t73 22t73.5 -22t29.5 -60q0 -26 -17.5 -44t-32.5 -26v-2q8 -4 18 -11t19 -17t15 -22.5t6 -27.5q0 -37 -30 -60.5t-82 -23.5zM148 580q26 5 38 17t12 28 q0 18 -14.5 30t-36.5 12q-20 0 -34 -12t-14 -30q0 -17 11.5 -28.5t37.5 -16.5zM148 437q23 0 40 12t17 32q0 17 -14.5 31.5t-42.5 19.5q-27 -5 -41.5 -19.5t-14.5 -31.5q0 -20 17 -32t39 -12z" glyph-name="eight.numr" horiz-adv-x="297"/><glyph d="M94 387q-8 -3 -12 6l-10 23q-5 10 9 13q9 3 25.5 10.5t34.5 19.5t34 28t22 36q-4 -2 -22.5 -9.5t-41.5 -7.5q-19 0 -37.5 6t-32.5 18.5t-23 31t-9 42.5q0 21 8.5 40t23.5 33.5t35 22.5t43 8q28 0 49.5 -11t36 -29t21.5 -42.5t7 -51.5q0 -45 -20 -78.5t-46.5 -56 t-53.5 -35.5t-41 -17zM142 548q25 0 42.5 12.5t23.5 21.5q0 12 -4.5 26t-13 26t-21 19.5t-29.5 7.5q-26 0 -43 -17t-17 -40t18 -39.5t44 -16.5z" glyph-name="nine.numr" horiz-adv-x="292"/><glyph d="M285 -118q-43 2 -85 33.5t-75.5 90t-54.5 144t-21 195.5t21 197t54.5 147.5t75.5 93.5t85 35q17 2 18 -10l2 -27q3 -15 -10 -17q-47 -9 -80.5 -48.5t-54.5 -97t-31 -129t-10 -144.5q0 -74 10 -143.5t31 -125.5t54.5 -93.5t80.5 -46.5q13 -2 10 -17l-2 -27q-1 -12 -18 -10 z" glyph-name="parenleft.aalt" horiz-adv-x="329"/><glyph d="M45 -118q-17 -2 -18 10l-2 27q-3 15 10 17q47 9 80.5 46.5t54.5 93.5t31 125.5t10 143.5q0 73 -10 144.5t-31 129t-54.5 97t-80.5 48.5q-13 2 -10 17l2 27q1 12 18 10q43 -2 85 -35t75.5 -93.5t54.5 -147.5t21 -197t-21 -195.5t-54.5 -144t-75.5 -90t-85 -33.5z" glyph-name="parenright.aalt" horiz-adv-x="329"/><glyph d="M87 310q-8 0 -13.5 5t-5.5 13v19q0 8 5.5 13.5t13.5 5.5h209q8 0 13.5 -5.5t5.5 -13.5v-19q0 -8 -5.5 -13t-13.5 -5h-209z" glyph-name="hyphen.aalt" horiz-adv-x="383"/><glyph d="M148 -55h137q8 0 13.5 -5.5t5.5 -12.5v-26q0 -8 -6 -13.5t-13 -5.5h-186q-8 0 -13.5 6t-5.5 13v900q0 8 6 13.5t13 5.5h186q8 0 13.5 -6t5.5 -13v-25q0 -8 -6 -13.5t-13 -5.5h-137v-812z" glyph-name="bracketleft.aalt" horiz-adv-x="331"/><glyph d="M46 -55h137v812h-137q-8 0 -13.5 5.5t-5.5 13.5v25q0 8 5.5 13.5t13.5 5.5h186q8 0 13.5 -6t5.5 -13v-900q0 -8 -5.5 -13.5t-13.5 -5.5h-186q-8 0 -13.5 6t-5.5 13v26q0 8 5.5 13t13.5 5z" glyph-name="bracketright.aalt" horiz-adv-x="331"/><glyph d="M115 94v146q0 30 -23.5 52t-45.5 26q-6 0 -10.5 5.5t-4.5 11.5v31q0 6 4.5 10t10.5 5q22 4 45.5 25.5t23.5 52.5v146q0 44 10.5 79.5t30 59.5t43 41.5t52.5 27t55 13.5t54 4q8 0 14 -4t6 -13v-19q0 -7 -3.5 -12.5t-9.5 -5.5q-38 -6 -69.5 -18t-57.5 -32t-41 -51t-15 -70 v-118q0 -28 -6 -51t-13 -36t-20 -23.5t-20.5 -14.5t-19.5 -9v-7q12 -5 19.5 -9t20.5 -14.5t20 -23.5t13 -36t6 -51v-118q0 -39 15 -69.5t41 -50.5t58 -32t69 -18q13 -2 13 -17v-20q0 -7 -6 -12t-14 -5q-34 0 -65.5 5.5t-65 21t-58.5 39.5t-40.5 65t-15.5 93z" glyph-name="braceleft.aalt" horiz-adv-x="403"/><glyph d="M79 -150v961q0 8 5.5 13.5t13.5 5.5h7q8 0 13 -5.5t5 -13.5v-961q0 -8 -5.5 -13t-13.5 -5h-6q-8 0 -13.5 5t-5.5 13z" glyph-name="bar.aalt" horiz-adv-x="202"/></font>
</defs>
</svg>
